<svg width="500" height="500" viewBox="0 0 500 500" fill="none" xmlns="http://www.w3.org/2000/svg">
<g clip-path="url(#clip0_230_305)">
<g clip-path="url(#clip1_230_305)">
<path d="M248.625 252.333C248.565 252.103 248.445 251.892 248.276 251.724C248.108 251.555 247.897 251.435 247.667 251.375L243.577 250.321C243.507 250.301 243.445 250.259 243.402 250.201C243.358 250.143 243.334 250.072 243.334 250C243.334 249.927 243.358 249.857 243.402 249.799C243.445 249.741 243.507 249.699 243.577 249.679L247.667 248.624C247.897 248.565 248.108 248.444 248.276 248.276C248.445 248.108 248.565 247.897 248.625 247.667L249.679 243.577C249.699 243.507 249.741 243.445 249.799 243.401C249.857 243.357 249.928 243.333 250 243.333C250.073 243.333 250.144 243.357 250.202 243.401C250.26 243.445 250.302 243.507 250.321 243.577L251.375 247.667C251.435 247.897 251.555 248.108 251.724 248.276C251.892 248.445 252.103 248.565 252.333 248.625L256.423 249.679C256.494 249.698 256.556 249.74 256.6 249.798C256.644 249.856 256.668 249.927 256.668 250C256.668 250.073 256.644 250.144 256.6 250.202C256.556 250.26 256.494 250.302 256.423 250.321L252.333 251.375C252.103 251.435 251.892 251.555 251.724 251.724C251.555 251.892 251.435 252.103 251.375 252.333L250.321 256.423C250.301 256.493 250.259 256.555 250.201 256.599C250.143 256.643 250.072 256.667 250 256.667C249.927 256.667 249.856 256.643 249.798 256.599C249.74 256.555 249.698 256.493 249.679 256.423L248.625 252.333Z" stroke="#FFD48A" stroke-linecap="round" stroke-linejoin="round"/>
<path d="M255.333 244V246.667" stroke="#FFD48A" stroke-linecap="round" stroke-linejoin="round"/>
<path d="M256.667 245.333H254" stroke="#FFD48A" stroke-linecap="round" stroke-linejoin="round"/>
<path d="M244.667 253.333V254.667" stroke="#FFD48A" stroke-linecap="round" stroke-linejoin="round"/>
<path d="M245.333 254H244" stroke="#FFD48A" stroke-linecap="round" stroke-linejoin="round"/>
</g>
<g clip-path="url(#clip2_230_305)">
<path d="M248.625 2.3333C248.565 2.10258 248.445 1.89203 248.276 1.72355C248.108 1.55507 247.897 1.43481 247.667 1.3753L243.577 0.320629C243.507 0.300823 243.445 0.258797 243.402 0.200926C243.358 0.143055 243.334 0.0724985 243.334 -3.73125e-05C243.334 -0.0725732 243.358 -0.14313 243.402 -0.201001C243.445 -0.258872 243.507 -0.300898 243.577 -0.320704L247.667 -1.37604C247.897 -1.4355 248.108 -1.55565 248.276 -1.72401C248.445 -1.89237 248.565 -2.10278 248.625 -2.33337L249.679 -6.42337C249.699 -6.49343 249.741 -6.55514 249.799 -6.59911C249.857 -6.64307 249.928 -6.66687 250 -6.66687C250.073 -6.66687 250.144 -6.64307 250.202 -6.59911C250.26 -6.55514 250.302 -6.49343 250.321 -6.42337L251.375 -2.33337C251.435 -2.10266 251.555 -1.89211 251.724 -1.72363C251.892 -1.55514 252.103 -1.43489 252.333 -1.37537L256.423 -0.321371C256.494 -0.301971 256.556 -0.260031 256.6 -0.201986C256.644 -0.143941 256.668 -0.0729965 256.668 -3.73125e-05C256.668 0.0729219 256.644 0.143866 256.6 0.201911C256.556 0.259957 256.494 0.301896 256.423 0.321296L252.333 1.3753C252.103 1.43481 251.892 1.55507 251.724 1.72355C251.555 1.89203 251.435 2.10258 251.375 2.3333L250.321 6.4233C250.301 6.49335 250.259 6.55507 250.201 6.59903C250.143 6.643 250.072 6.6668 250 6.6668C249.927 6.6668 249.856 6.643 249.798 6.59903C249.74 6.55507 249.698 6.49335 249.679 6.4233L248.625 2.3333Z" stroke="#FFD48A" stroke-linecap="round" stroke-linejoin="round"/>
<path d="M244.667 3.33337V4.66671" stroke="#FFD48A" stroke-linecap="round" stroke-linejoin="round"/>
<path d="M245.333 4H244" stroke="#FFD48A" stroke-linecap="round" stroke-linejoin="round"/>
</g>
<g clip-path="url(#clip3_230_305)">
<path d="M248.625 502.333C248.565 502.103 248.445 501.892 248.276 501.724C248.108 501.555 247.897 501.435 247.667 501.375L243.577 500.321C243.507 500.301 243.445 500.259 243.402 500.201C243.358 500.143 243.334 500.072 243.334 500C243.334 499.927 243.358 499.857 243.402 499.799C243.445 499.741 243.507 499.699 243.577 499.679L247.667 498.624C247.897 498.565 248.108 498.444 248.276 498.276C248.445 498.108 248.565 497.897 248.625 497.667L249.679 493.577C249.699 493.507 249.741 493.445 249.799 493.401C249.857 493.357 249.928 493.333 250 493.333C250.073 493.333 250.144 493.357 250.202 493.401C250.26 493.445 250.302 493.507 250.321 493.577L251.375 497.667C251.435 497.897 251.555 498.108 251.724 498.276C251.892 498.445 252.103 498.565 252.333 498.625L256.423 499.679C256.494 499.698 256.556 499.74 256.6 499.798C256.644 499.856 256.668 499.927 256.668 500C256.668 500.073 256.644 500.144 256.6 500.202C256.556 500.26 256.494 500.302 256.423 500.321L252.333 501.375C252.103 501.435 251.892 501.555 251.724 501.724C251.555 501.892 251.435 502.103 251.375 502.333L250.321 506.423C250.301 506.493 250.259 506.555 250.201 506.599C250.143 506.643 250.072 506.667 250 506.667C249.927 506.667 249.856 506.643 249.798 506.599C249.74 506.555 249.698 506.493 249.679 506.423L248.625 502.333Z" stroke="#FFD48A" stroke-linecap="round" stroke-linejoin="round"/>
<path d="M255.333 494V496.667" stroke="#FFD48A" stroke-linecap="round" stroke-linejoin="round"/>
<path d="M256.667 495.333H254" stroke="#FFD48A" stroke-linecap="round" stroke-linejoin="round"/>
</g>
<path d="M122.691 375.991C122.812 375.786 122.876 375.552 122.876 375.314C122.876 375.075 122.812 374.842 122.691 374.636L120.545 370.998C120.51 370.935 120.496 370.862 120.506 370.79C120.516 370.718 120.549 370.652 120.6 370.6C120.652 370.549 120.718 370.516 120.79 370.506C120.862 370.496 120.935 370.51 120.999 370.545L124.637 372.691C124.842 372.812 125.076 372.876 125.314 372.876C125.552 372.876 125.786 372.812 125.991 372.691L129.629 370.545C129.692 370.509 129.766 370.495 129.838 370.505C129.91 370.515 129.977 370.548 130.028 370.6C130.08 370.651 130.113 370.718 130.123 370.79C130.133 370.862 130.119 370.936 130.083 370.999L127.936 374.636C127.815 374.842 127.751 375.075 127.751 375.314C127.751 375.552 127.815 375.786 127.936 375.991L130.083 379.628C130.119 379.692 130.133 379.765 130.123 379.838C130.114 379.91 130.08 379.977 130.029 380.029C129.977 380.08 129.91 380.114 129.838 380.123C129.765 380.133 129.692 380.119 129.629 380.083L125.991 377.936C125.786 377.815 125.552 377.751 125.314 377.751C125.075 377.751 124.842 377.815 124.636 377.936L120.999 380.082C120.935 380.118 120.862 380.132 120.79 380.122C120.718 380.112 120.651 380.079 120.599 380.028C120.548 379.976 120.515 379.909 120.505 379.837C120.495 379.765 120.509 379.692 120.545 379.628L122.691 375.991Z" stroke="#FFD48A" stroke-linecap="round" stroke-linejoin="round"/>
<g clip-path="url(#clip4_230_305)">
<path d="M373.625 377.333C373.565 377.103 373.445 376.892 373.276 376.724C373.108 376.555 372.897 376.435 372.667 376.375L368.577 375.321C368.507 375.301 368.445 375.259 368.402 375.201C368.358 375.143 368.334 375.072 368.334 375C368.334 374.927 368.358 374.857 368.402 374.799C368.445 374.741 368.507 374.699 368.577 374.679L372.667 373.624C372.897 373.565 373.108 373.444 373.276 373.276C373.445 373.108 373.565 372.897 373.625 372.667L374.679 368.577C374.699 368.507 374.741 368.445 374.799 368.401C374.857 368.357 374.928 368.333 375 368.333C375.073 368.333 375.144 368.357 375.202 368.401C375.26 368.445 375.302 368.507 375.321 368.577L376.375 372.667C376.435 372.897 376.555 373.108 376.724 373.276C376.892 373.445 377.103 373.565 377.333 373.625L381.423 374.679C381.494 374.698 381.556 374.74 381.6 374.798C381.644 374.856 381.668 374.927 381.668 375C381.668 375.073 381.644 375.144 381.6 375.202C381.556 375.26 381.494 375.302 381.423 375.321L377.333 376.375C377.103 376.435 376.892 376.555 376.724 376.724C376.555 376.892 376.435 377.103 376.375 377.333L375.321 381.423C375.301 381.493 375.259 381.555 375.201 381.599C375.143 381.643 375.072 381.667 375 381.667C374.927 381.667 374.856 381.643 374.798 381.599C374.74 381.555 374.698 381.493 374.679 381.423L373.625 377.333Z" stroke="#FFD48A" stroke-linecap="round" stroke-linejoin="round"/>
</g>
<g clip-path="url(#clip5_230_305)">
<path d="M123.625 127.333C123.565 127.103 123.445 126.892 123.276 126.724C123.108 126.555 122.897 126.435 122.667 126.375L118.577 125.321C118.507 125.301 118.445 125.259 118.402 125.201C118.358 125.143 118.334 125.072 118.334 125C118.334 124.927 118.358 124.857 118.402 124.799C118.445 124.741 118.507 124.699 118.577 124.679L122.667 123.624C122.897 123.565 123.108 123.444 123.276 123.276C123.445 123.108 123.565 122.897 123.625 122.667L124.679 118.577C124.699 118.507 124.741 118.445 124.799 118.401C124.857 118.357 124.928 118.333 125 118.333C125.073 118.333 125.144 118.357 125.202 118.401C125.26 118.445 125.302 118.507 125.321 118.577L126.375 122.667C126.435 122.897 126.555 123.108 126.724 123.276C126.892 123.445 127.103 123.565 127.333 123.625L131.423 124.679C131.494 124.698 131.556 124.74 131.6 124.798C131.644 124.856 131.668 124.927 131.668 125C131.668 125.073 131.644 125.144 131.6 125.202C131.556 125.26 131.494 125.302 131.423 125.321L127.333 126.375C127.103 126.435 126.892 126.555 126.724 126.724C126.555 126.892 126.435 127.103 126.375 127.333L125.321 131.423C125.301 131.493 125.259 131.555 125.201 131.599C125.143 131.643 125.072 131.667 125 131.667C124.927 131.667 124.856 131.643 124.798 131.599C124.74 131.555 124.698 131.493 124.679 131.423L123.625 127.333Z" stroke="#FFD48A" stroke-linecap="round" stroke-linejoin="round"/>
</g>
<path d="M372.691 125.991C372.812 125.786 372.876 125.552 372.876 125.314C372.876 125.075 372.812 124.842 372.691 124.636L370.545 120.998C370.51 120.935 370.496 120.862 370.506 120.79C370.516 120.718 370.549 120.652 370.6 120.6C370.652 120.549 370.718 120.516 370.79 120.506C370.862 120.496 370.935 120.51 370.999 120.545L374.637 122.691C374.842 122.812 375.076 122.876 375.314 122.876C375.552 122.876 375.786 122.812 375.991 122.691L379.629 120.545C379.692 120.509 379.766 120.495 379.838 120.505C379.91 120.515 379.977 120.548 380.028 120.6C380.08 120.651 380.113 120.718 380.123 120.79C380.133 120.862 380.119 120.936 380.083 120.999L377.936 124.636C377.815 124.842 377.751 125.075 377.751 125.314C377.751 125.552 377.815 125.786 377.936 125.991L380.083 129.628C380.119 129.692 380.133 129.765 380.123 129.838C380.114 129.91 380.08 129.977 380.029 130.029C379.977 130.08 379.91 130.114 379.838 130.123C379.765 130.133 379.692 130.119 379.629 130.083L375.991 127.936C375.786 127.815 375.552 127.751 375.314 127.751C375.075 127.751 374.842 127.815 374.636 127.936L370.999 130.082C370.935 130.118 370.862 130.132 370.79 130.122C370.718 130.112 370.651 130.079 370.599 130.028C370.548 129.976 370.515 129.909 370.505 129.837C370.495 129.765 370.509 129.692 370.545 129.628L372.691 125.991Z" stroke="#FFD48A" stroke-linecap="round" stroke-linejoin="round"/>
<g clip-path="url(#clip6_230_305)">
<path d="M-1.37533 252.333C-1.43485 252.103 -1.55511 251.892 -1.72359 251.724C-1.89207 251.555 -2.10262 251.435 -2.33333 251.375L-6.42333 250.321C-6.49311 250.301 -6.55453 250.259 -6.59826 250.201C-6.64199 250.143 -6.66565 250.072 -6.66565 250C-6.66565 249.927 -6.64199 249.857 -6.59826 249.799C-6.55453 249.741 -6.49311 249.699 -6.42333 249.679L-2.33333 248.624C-2.1027 248.565 -1.8922 248.444 -1.72373 248.276C-1.55526 248.108 -1.43496 247.897 -1.37533 247.667L-0.320666 243.577C-0.301061 243.507 -0.259077 243.445 -0.201119 243.401C-0.143161 243.357 -0.0724121 243.333 0.000333985 243.333C0.0730801 243.333 0.143829 243.357 0.201787 243.401C0.259745 243.445 0.301729 243.507 0.321334 243.577L1.37533 247.667C1.43485 247.897 1.55511 248.108 1.72359 248.276C1.89207 248.445 2.10262 248.565 2.33333 248.625L6.42334 249.679C6.49367 249.698 6.55569 249.74 6.59989 249.798C6.6441 249.856 6.66803 249.927 6.66803 250C6.66803 250.073 6.6441 250.144 6.59989 250.202C6.55569 250.26 6.49367 250.302 6.42334 250.321L2.33333 251.375C2.10262 251.435 1.89207 251.555 1.72359 251.724C1.55511 251.892 1.43485 252.103 1.37533 252.333L0.320667 256.423C0.301062 256.493 0.259078 256.555 0.201121 256.599C0.143163 256.643 0.0724138 256.667 -0.000332316 256.667C-0.0730784 256.667 -0.143827 256.643 -0.201785 256.599C-0.259743 256.555 -0.301728 256.493 -0.321333 256.423L-1.37533 252.333Z" stroke="#FFD48A" stroke-linecap="round" stroke-linejoin="round"/>
<path d="M5.33337 244V246.667" stroke="#FFD48A" stroke-linecap="round" stroke-linejoin="round"/>
<path d="M6.66667 245.333H4" stroke="#FFD48A" stroke-linecap="round" stroke-linejoin="round"/>
</g>
<g clip-path="url(#clip7_230_305)">
<path d="M498.625 252.333C498.565 252.103 498.445 251.892 498.276 251.724C498.108 251.555 497.897 251.435 497.667 251.375L493.577 250.321C493.507 250.301 493.445 250.259 493.402 250.201C493.358 250.143 493.334 250.072 493.334 250C493.334 249.927 493.358 249.857 493.402 249.799C493.445 249.741 493.507 249.699 493.577 249.679L497.667 248.624C497.897 248.565 498.108 248.444 498.276 248.276C498.445 248.108 498.565 247.897 498.625 247.667L499.679 243.577C499.699 243.507 499.741 243.445 499.799 243.401C499.857 243.357 499.928 243.333 500 243.333C500.073 243.333 500.144 243.357 500.202 243.401C500.26 243.445 500.302 243.507 500.321 243.577L501.375 247.667C501.435 247.897 501.555 248.108 501.724 248.276C501.892 248.445 502.103 248.565 502.333 248.625L506.423 249.679C506.494 249.698 506.556 249.74 506.6 249.798C506.644 249.856 506.668 249.927 506.668 250C506.668 250.073 506.644 250.144 506.6 250.202C506.556 250.26 506.494 250.302 506.423 250.321L502.333 251.375C502.103 251.435 501.892 251.555 501.724 251.724C501.555 251.892 501.435 252.103 501.375 252.333L500.321 256.423C500.301 256.493 500.259 256.555 500.201 256.599C500.143 256.643 500.072 256.667 500 256.667C499.927 256.667 499.856 256.643 499.798 256.599C499.74 256.555 499.698 256.493 499.679 256.423L498.625 252.333Z" stroke="#FFD48A" stroke-linecap="round" stroke-linejoin="round"/>
<path d="M494.667 253.333V254.667" stroke="#FFD48A" stroke-linecap="round" stroke-linejoin="round"/>
<path d="M495.333 254H494" stroke="#FFD48A" stroke-linecap="round" stroke-linejoin="round"/>
</g>
</g>
<defs>
<clipPath id="clip0_230_305">
<rect width="500" height="500" rx="2" fill="white"/>
</clipPath>
<clipPath id="clip1_230_305">
<rect width="16" height="16" fill="white" transform="translate(242 242)"/>
</clipPath>
<clipPath id="clip2_230_305">
<rect width="16" height="16" fill="white" transform="translate(242 -8)"/>
</clipPath>
<clipPath id="clip3_230_305">
<rect width="16" height="16" fill="white" transform="translate(242 492)"/>
</clipPath>
<clipPath id="clip4_230_305">
<rect width="16" height="16" fill="white" transform="translate(367 367)"/>
</clipPath>
<clipPath id="clip5_230_305">
<rect width="16" height="16" fill="white" transform="translate(117 117)"/>
</clipPath>
<clipPath id="clip6_230_305">
<rect width="16" height="16" fill="white" transform="translate(-8 242)"/>
</clipPath>
<clipPath id="clip7_230_305">
<rect width="16" height="16" fill="white" transform="translate(492 242)"/>
</clipPath>
</defs>
</svg>
