<svg width="500" height="300" viewBox="0 0 500 300" fill="none" xmlns="http://www.w3.org/2000/svg">
<g clip-path="url(#clip0_2001_249)">
<g clip-path="url(#clip1_2001_249)">
<rect y="-100" width="500" height="500" rx="2" fill="#39342D"/>
<g clip-path="url(#clip2_2001_249)">
<path d="M248.625 152.333C248.565 152.103 248.445 151.892 248.276 151.724C248.108 151.555 247.897 151.435 247.667 151.375L243.577 150.321C243.507 150.301 243.445 150.259 243.402 150.201C243.358 150.143 243.334 150.073 243.334 150C243.334 149.928 243.358 149.857 243.402 149.799C243.445 149.741 243.507 149.699 243.577 149.679L247.667 148.624C247.897 148.565 248.108 148.444 248.276 148.276C248.445 148.108 248.565 147.897 248.625 147.667L249.679 143.577C249.699 143.507 249.741 143.445 249.799 143.401C249.857 143.357 249.927 143.333 250 143.333C250.073 143.333 250.144 143.357 250.202 143.401C250.26 143.445 250.302 143.507 250.321 143.577L251.375 147.667C251.435 147.897 251.555 148.108 251.723 148.276C251.892 148.445 252.102 148.565 252.333 148.625L256.423 149.679C256.494 149.698 256.556 149.74 256.6 149.798C256.644 149.856 256.668 149.927 256.668 150C256.668 150.073 256.644 150.144 256.6 150.202C256.556 150.26 256.494 150.302 256.423 150.321L252.333 151.375C252.102 151.435 251.892 151.555 251.723 151.724C251.555 151.892 251.435 152.103 251.375 152.333L250.321 156.423C250.301 156.493 250.259 156.555 250.201 156.599C250.143 156.643 250.072 156.667 250 156.667C249.927 156.667 249.856 156.643 249.798 156.599C249.74 156.555 249.698 156.493 249.679 156.423L248.625 152.333Z" stroke="#554E44" stroke-linecap="round" stroke-linejoin="round"/>
<path d="M255.333 144V146.667" stroke="#554E44" stroke-linecap="round" stroke-linejoin="round"/>
<path d="M256.667 145.333H254" stroke="#554E44" stroke-linecap="round" stroke-linejoin="round"/>
<path d="M244.667 153.333V154.667" stroke="#554E44" stroke-linecap="round" stroke-linejoin="round"/>
<path d="M245.333 154H244" stroke="#554E44" stroke-linecap="round" stroke-linejoin="round"/>
</g>
<path d="M122.691 275.991C122.812 275.786 122.876 275.552 122.876 275.314C122.876 275.075 122.812 274.842 122.691 274.636L120.545 270.998C120.51 270.935 120.496 270.862 120.506 270.79C120.516 270.718 120.549 270.652 120.6 270.6C120.652 270.549 120.718 270.516 120.79 270.506C120.862 270.496 120.935 270.51 120.998 270.545L124.637 272.691C124.842 272.812 125.076 272.876 125.314 272.876C125.552 272.876 125.786 272.812 125.991 272.691L129.629 270.545C129.692 270.509 129.766 270.495 129.838 270.505C129.91 270.515 129.977 270.548 130.028 270.6C130.079 270.651 130.113 270.718 130.123 270.79C130.132 270.862 130.118 270.936 130.083 270.999L127.936 274.636C127.815 274.842 127.751 275.075 127.751 275.314C127.751 275.552 127.815 275.786 127.936 275.991L130.083 279.628C130.119 279.692 130.133 279.765 130.123 279.838C130.113 279.91 130.08 279.977 130.029 280.029C129.977 280.08 129.91 280.114 129.838 280.123C129.765 280.133 129.692 280.119 129.628 280.083L125.991 277.936C125.786 277.815 125.552 277.751 125.314 277.751C125.075 277.751 124.841 277.815 124.636 277.936L120.998 280.082C120.935 280.118 120.862 280.132 120.79 280.122C120.718 280.112 120.651 280.079 120.599 280.028C120.548 279.976 120.515 279.909 120.505 279.837C120.495 279.765 120.509 279.692 120.544 279.628L122.691 275.991Z" stroke="#554E44" stroke-linecap="round" stroke-linejoin="round"/>
<g clip-path="url(#clip3_2001_249)">
<path d="M373.625 277.333C373.565 277.103 373.445 276.892 373.276 276.724C373.108 276.555 372.897 276.435 372.667 276.375L368.577 275.321C368.507 275.301 368.445 275.259 368.402 275.201C368.358 275.143 368.334 275.073 368.334 275C368.334 274.928 368.358 274.857 368.402 274.799C368.445 274.741 368.507 274.699 368.577 274.679L372.667 273.624C372.897 273.565 373.108 273.444 373.276 273.276C373.445 273.108 373.565 272.897 373.625 272.667L374.679 268.577C374.699 268.507 374.741 268.445 374.799 268.401C374.857 268.357 374.927 268.333 375 268.333C375.073 268.333 375.144 268.357 375.202 268.401C375.26 268.445 375.302 268.507 375.321 268.577L376.375 272.667C376.435 272.897 376.555 273.108 376.723 273.276C376.892 273.445 377.102 273.565 377.333 273.625L381.423 274.679C381.494 274.698 381.556 274.74 381.6 274.798C381.644 274.856 381.668 274.927 381.668 275C381.668 275.073 381.644 275.144 381.6 275.202C381.556 275.26 381.494 275.302 381.423 275.321L377.333 276.375C377.102 276.435 376.892 276.555 376.723 276.724C376.555 276.892 376.435 277.103 376.375 277.333L375.321 281.423C375.301 281.493 375.259 281.555 375.201 281.599C375.143 281.643 375.072 281.667 375 281.667C374.927 281.667 374.856 281.643 374.798 281.599C374.74 281.555 374.698 281.493 374.679 281.423L373.625 277.333Z" stroke="#554E44" stroke-linecap="round" stroke-linejoin="round"/>
</g>
<g clip-path="url(#clip4_2001_249)">
<path d="M123.625 27.3334C123.565 27.1027 123.445 26.8922 123.276 26.7237C123.108 26.5552 122.897 26.4349 122.667 26.3754L118.577 25.3208C118.507 25.3009 118.445 25.2589 118.402 25.201C118.358 25.1432 118.334 25.0726 118.334 25.0001C118.334 24.9275 118.358 24.857 118.402 24.7991C118.445 24.7413 118.507 24.6992 118.577 24.6794L122.667 23.6241C122.897 23.5646 123.108 23.4445 123.276 23.2761C123.445 23.1078 123.565 22.8973 123.625 22.6668L124.679 18.5768C124.699 18.5067 124.741 18.445 124.799 18.401C124.857 18.357 124.927 18.3333 125 18.3333C125.073 18.3333 125.144 18.357 125.202 18.401C125.26 18.445 125.302 18.5067 125.321 18.5768L126.375 22.6668C126.435 22.8975 126.555 23.108 126.723 23.2765C126.892 23.445 127.102 23.5652 127.333 23.6248L131.423 24.6788C131.494 24.6982 131.556 24.7401 131.6 24.7981C131.644 24.8562 131.668 24.9271 131.668 25.0001C131.668 25.073 131.644 25.144 131.6 25.202C131.556 25.2601 131.494 25.302 131.423 25.3214L127.333 26.3754C127.102 26.4349 126.892 26.5552 126.723 26.7237C126.555 26.8922 126.435 27.1027 126.375 27.3334L125.321 31.4234C125.301 31.4935 125.259 31.5552 125.201 31.5992C125.143 31.6431 125.072 31.6669 125 31.6669C124.927 31.6669 124.856 31.6431 124.798 31.5992C124.74 31.5552 124.698 31.4935 124.679 31.4234L123.625 27.3334Z" stroke="#554E44" stroke-linecap="round" stroke-linejoin="round"/>
</g>
<path d="M372.691 25.9911C372.812 25.7859 372.876 25.552 372.876 25.3137C372.876 25.0755 372.812 24.8415 372.691 24.6363L370.545 20.9985C370.51 20.9351 370.496 20.862 370.506 20.7901C370.516 20.7183 370.549 20.6517 370.6 20.6004C370.652 20.5491 370.718 20.5159 370.79 20.5059C370.862 20.4959 370.935 20.5097 370.998 20.545L374.637 22.6908C374.842 22.8119 375.076 22.8757 375.314 22.8758C375.552 22.8759 375.786 22.8122 375.991 22.6913L379.629 20.545C379.692 20.5093 379.766 20.4954 379.838 20.5053C379.91 20.5152 379.977 20.5484 380.028 20.5998C380.079 20.6512 380.113 20.7181 380.123 20.7902C380.132 20.8622 380.118 20.9356 380.083 20.999L377.936 24.6363C377.815 24.8415 377.751 25.0755 377.751 25.3137C377.751 25.552 377.815 25.7859 377.936 25.9911L380.083 29.6285C380.119 29.6919 380.133 29.7655 380.123 29.8377C380.113 29.91 380.08 29.9771 380.029 30.0287C379.977 30.0803 379.91 30.1136 379.838 30.1233C379.765 30.1331 379.692 30.1189 379.628 30.0829L375.991 27.9361C375.786 27.8151 375.552 27.7512 375.314 27.7512C375.075 27.7512 374.841 27.8151 374.636 27.9361L370.998 30.0824C370.935 30.1181 370.862 30.1321 370.79 30.1222C370.718 30.1123 370.651 30.0791 370.599 30.0276C370.548 29.9762 370.515 29.9094 370.505 29.8373C370.495 29.7652 370.509 29.6919 370.544 29.6285L372.691 25.9911Z" stroke="#554E44" stroke-linecap="round" stroke-linejoin="round"/>
<g clip-path="url(#clip5_2001_249)">
<path d="M-1.37533 152.333C-1.43485 152.103 -1.55511 151.892 -1.72359 151.724C-1.89207 151.555 -2.10262 151.435 -2.33333 151.375L-6.42333 150.321C-6.49311 150.301 -6.55453 150.259 -6.59826 150.201C-6.64199 150.143 -6.66565 150.073 -6.66565 150C-6.66565 149.928 -6.64199 149.857 -6.59826 149.799C-6.55453 149.741 -6.49311 149.699 -6.42333 149.679L-2.33333 148.624C-2.1027 148.565 -1.8922 148.444 -1.72373 148.276C-1.55526 148.108 -1.43496 147.897 -1.37533 147.667L-0.320666 143.577C-0.301061 143.507 -0.259077 143.445 -0.201119 143.401C-0.143161 143.357 -0.0724121 143.333 0.000333985 143.333C0.0730801 143.333 0.143829 143.357 0.201787 143.401C0.259745 143.445 0.301729 143.507 0.321334 143.577L1.37533 147.667C1.43485 147.897 1.55511 148.108 1.72359 148.276C1.89207 148.445 2.10262 148.565 2.33333 148.625L6.42334 149.679C6.49367 149.698 6.55569 149.74 6.59989 149.798C6.6441 149.856 6.66803 149.927 6.66803 150C6.66803 150.073 6.6441 150.144 6.59989 150.202C6.55569 150.26 6.49367 150.302 6.42334 150.321L2.33333 151.375C2.10262 151.435 1.89207 151.555 1.72359 151.724C1.55511 151.892 1.43485 152.103 1.37533 152.333L0.320667 156.423C0.301062 156.493 0.259078 156.555 0.201121 156.599C0.143163 156.643 0.0724138 156.667 -0.000332316 156.667C-0.0730784 156.667 -0.143827 156.643 -0.201785 156.599C-0.259743 156.555 -0.301728 156.493 -0.321333 156.423L-1.37533 152.333Z" stroke="#554E44" stroke-linecap="round" stroke-linejoin="round"/>
<path d="M5.33337 144V146.667" stroke="#554E44" stroke-linecap="round" stroke-linejoin="round"/>
<path d="M6.66667 145.333H4" stroke="#554E44" stroke-linecap="round" stroke-linejoin="round"/>
</g>
<g clip-path="url(#clip6_2001_249)">
<path d="M498.625 152.333C498.565 152.103 498.445 151.892 498.276 151.724C498.108 151.555 497.897 151.435 497.667 151.375L493.577 150.321C493.507 150.301 493.445 150.259 493.402 150.201C493.358 150.143 493.334 150.073 493.334 150C493.334 149.928 493.358 149.857 493.402 149.799C493.445 149.741 493.507 149.699 493.577 149.679L497.667 148.624C497.897 148.565 498.108 148.444 498.276 148.276C498.445 148.108 498.565 147.897 498.625 147.667L499.679 143.577C499.699 143.507 499.741 143.445 499.799 143.401C499.857 143.357 499.927 143.333 500 143.333C500.073 143.333 500.144 143.357 500.202 143.401C500.26 143.445 500.302 143.507 500.321 143.577L501.375 147.667C501.435 147.897 501.555 148.108 501.723 148.276C501.892 148.445 502.102 148.565 502.333 148.625L506.423 149.679C506.494 149.698 506.556 149.74 506.6 149.798C506.644 149.856 506.668 149.927 506.668 150C506.668 150.073 506.644 150.144 506.6 150.202C506.556 150.26 506.494 150.302 506.423 150.321L502.333 151.375C502.102 151.435 501.892 151.555 501.723 151.724C501.555 151.892 501.435 152.103 501.375 152.333L500.321 156.423C500.301 156.493 500.259 156.555 500.201 156.599C500.143 156.643 500.072 156.667 500 156.667C499.927 156.667 499.856 156.643 499.798 156.599C499.74 156.555 499.698 156.493 499.679 156.423L498.625 152.333Z" stroke="#554E44" stroke-linecap="round" stroke-linejoin="round"/>
<path d="M494.667 153.333V154.667" stroke="#554E44" stroke-linecap="round" stroke-linejoin="round"/>
<path d="M495.333 154H494" stroke="#554E44" stroke-linecap="round" stroke-linejoin="round"/>
</g>
</g>
<path d="M138.5 132.667C138.5 128 141.833 124.667 147.167 124.667C153.833 124.667 153.607 128.667 157.167 131.333C160.727 134 163.833 134 163.833 139.333C163.833 145.333 160.5 148 154.5 148C151.167 148 151.167 151.333 146.5 151.333C141.833 151.333 137.167 148.667 137.167 144C137.167 140 139.167 140 139.167 137.333C139.167 135.333 138.5 134 138.5 132.667Z" fill="white" stroke="#1C1A17" stroke-width="3" stroke-linecap="round" stroke-linejoin="round"/>
<path d="M149.833 143.333C152.411 143.333 154.5 141.244 154.5 138.667C154.5 136.089 152.411 134 149.833 134C147.256 134 145.167 136.089 145.167 138.667C145.167 141.244 147.256 143.333 149.833 143.333Z" fill="#FFAF24" stroke="#39342D" stroke-width="2" stroke-linecap="round" stroke-linejoin="round"/>
<path d="M177.829 147.5V128.591H182.963V135.977H189.758V128.591H194.892V147.5H189.758V140.114H182.963V147.5H177.829ZM197.403 147.5V133.318H202.5V147.5H197.403ZM199.951 131.841C199.262 131.841 198.671 131.613 198.179 131.158C197.686 130.702 197.44 130.154 197.44 129.514C197.44 128.874 197.686 128.326 198.179 127.871C198.671 127.415 199.262 127.188 199.951 127.188C200.647 127.188 201.238 127.415 201.724 127.871C202.216 128.326 202.463 128.874 202.463 129.514C202.463 130.154 202.216 130.702 201.724 131.158C201.238 131.613 200.647 131.841 199.951 131.841ZM210.045 144.915L209.971 145.949C209.91 146.835 209.762 147.685 209.528 148.497C209.3 149.31 209.057 150.03 208.799 150.658C208.546 151.286 208.346 151.772 208.199 152.116H205.059C205.158 151.772 205.296 151.273 205.475 150.621C205.66 149.974 205.826 149.242 205.973 148.423C206.127 147.611 206.204 146.786 206.204 145.949V144.915H210.045ZM222.14 128.591V147.5H217.007V128.591H222.14ZM228.857 128.591V130.807C228.857 131.41 228.734 132.013 228.488 132.616C228.248 133.214 227.94 133.771 227.565 134.288C227.195 134.799 226.814 135.226 226.42 135.571L224.315 134.5C224.573 134.057 224.804 133.543 225.007 132.958C225.21 132.373 225.312 131.656 225.312 130.807V128.591H228.857ZM230.766 147.5V133.318H235.604V136.014H235.752C236.047 135.128 236.552 134.426 237.266 133.909C237.98 133.392 238.83 133.134 239.815 133.134C240.812 133.134 241.67 133.398 242.391 133.928C243.111 134.451 243.545 135.146 243.692 136.014H243.84C244.08 135.146 244.591 134.451 245.373 133.928C246.155 133.398 247.072 133.134 248.124 133.134C249.485 133.134 250.586 133.571 251.43 134.445C252.279 135.319 252.704 136.482 252.704 137.935V147.5H247.607V139.227C247.607 138.606 247.45 138.119 247.136 137.768C246.822 137.411 246.401 137.233 245.871 137.233C245.348 137.233 244.933 137.411 244.625 137.768C244.323 138.119 244.172 138.606 244.172 139.227V147.5H239.297V139.227C239.297 138.606 239.141 138.119 238.827 137.768C238.513 137.411 238.091 137.233 237.562 137.233C237.211 137.233 236.909 137.313 236.657 137.473C236.405 137.633 236.208 137.864 236.066 138.165C235.931 138.461 235.863 138.815 235.863 139.227V147.5H230.766ZM259.806 132.727V128.591H276.241V132.727H270.553V147.5H265.494V132.727H259.806ZM280.269 147.722C279.364 147.722 278.564 147.574 277.868 147.278C277.179 146.977 276.637 146.521 276.243 145.912C275.849 145.303 275.652 144.527 275.652 143.585C275.652 142.81 275.785 142.148 276.049 141.6C276.314 141.046 276.683 140.594 277.157 140.243C277.631 139.892 278.182 139.624 278.81 139.44C279.444 139.255 280.127 139.135 280.86 139.08C281.654 139.018 282.291 138.944 282.771 138.858C283.257 138.766 283.608 138.639 283.823 138.479C284.039 138.313 284.147 138.095 284.147 137.824V137.787C284.147 137.418 284.005 137.134 283.722 136.938C283.439 136.741 283.076 136.642 282.632 136.642C282.146 136.642 281.749 136.75 281.441 136.965C281.14 137.174 280.958 137.498 280.897 137.935H276.206C276.268 137.073 276.542 136.279 277.028 135.553C277.52 134.82 278.237 134.235 279.179 133.798C280.121 133.355 281.297 133.134 282.706 133.134C283.722 133.134 284.633 133.254 285.439 133.494C286.246 133.728 286.932 134.057 287.498 134.482C288.064 134.9 288.495 135.393 288.791 135.959C289.092 136.519 289.243 137.128 289.243 137.787V147.5H284.479V145.506H284.368C284.085 146.035 283.74 146.463 283.334 146.789C282.934 147.115 282.475 147.352 281.958 147.5C281.447 147.648 280.884 147.722 280.269 147.722ZM281.931 144.509C282.318 144.509 282.682 144.429 283.02 144.268C283.365 144.108 283.645 143.878 283.86 143.576C284.076 143.274 284.184 142.908 284.184 142.477V141.295C284.048 141.351 283.903 141.403 283.75 141.452C283.602 141.502 283.442 141.548 283.269 141.591C283.103 141.634 282.925 141.674 282.734 141.711C282.549 141.748 282.355 141.782 282.152 141.812C281.758 141.874 281.435 141.976 281.183 142.117C280.937 142.253 280.752 142.422 280.629 142.625C280.512 142.822 280.453 143.044 280.453 143.29C280.453 143.684 280.592 143.985 280.869 144.195C281.146 144.404 281.5 144.509 281.931 144.509ZM300.136 133.318V137.011H290.792V133.318H300.136ZM292.602 129.92H297.698V142.939C297.698 143.136 297.732 143.302 297.8 143.438C297.868 143.567 297.972 143.665 298.114 143.733C298.255 143.795 298.437 143.825 298.658 143.825C298.812 143.825 298.991 143.807 299.194 143.77C299.403 143.733 299.557 143.702 299.656 143.678L300.394 147.26C300.167 147.328 299.84 147.411 299.416 147.509C298.997 147.608 298.498 147.672 297.92 147.703C296.75 147.765 295.769 147.645 294.975 147.343C294.18 147.035 293.583 146.552 293.183 145.893C292.783 145.235 292.589 144.41 292.602 143.419V129.92ZM302.215 147.5V133.318H307.312V147.5H302.215ZM304.764 131.841C304.074 131.841 303.483 131.613 302.991 131.158C302.499 130.702 302.252 130.154 302.252 129.514C302.252 128.874 302.499 128.326 302.991 127.871C303.483 127.415 304.074 127.188 304.764 127.188C305.459 127.188 306.05 127.415 306.536 127.871C307.029 128.326 307.275 128.874 307.275 129.514C307.275 130.154 307.029 130.702 306.536 131.158C306.05 131.613 305.459 131.841 304.764 131.841ZM313.861 147.722C312.956 147.722 312.156 147.574 311.46 147.278C310.771 146.977 310.229 146.521 309.835 145.912C309.441 145.303 309.244 144.527 309.244 143.585C309.244 142.81 309.376 142.148 309.641 141.6C309.906 141.046 310.275 140.594 310.749 140.243C311.223 139.892 311.774 139.624 312.402 139.44C313.036 139.255 313.719 139.135 314.451 139.08C315.245 139.018 315.883 138.944 316.363 138.858C316.849 138.766 317.2 138.639 317.415 138.479C317.631 138.313 317.738 138.095 317.738 137.824V137.787C317.738 137.418 317.597 137.134 317.314 136.938C317.031 136.741 316.667 136.642 316.224 136.642C315.738 136.642 315.341 136.75 315.033 136.965C314.732 137.174 314.55 137.498 314.488 137.935H309.798C309.86 137.073 310.133 136.279 310.62 135.553C311.112 134.82 311.829 134.235 312.771 133.798C313.713 133.355 314.888 133.134 316.298 133.134C317.314 133.134 318.225 133.254 319.031 133.494C319.837 133.728 320.524 134.057 321.09 134.482C321.656 134.9 322.087 135.393 322.383 135.959C322.684 136.519 322.835 137.128 322.835 137.787V147.5H318.071V145.506H317.96C317.677 146.035 317.332 146.463 316.926 146.789C316.526 147.115 316.067 147.352 315.55 147.5C315.039 147.648 314.476 147.722 313.861 147.722ZM315.522 144.509C315.91 144.509 316.273 144.429 316.612 144.268C316.957 144.108 317.237 143.878 317.452 143.576C317.668 143.274 317.775 142.908 317.775 142.477V141.295C317.64 141.351 317.495 141.403 317.341 141.452C317.194 141.502 317.034 141.548 316.861 141.591C316.695 141.634 316.517 141.674 316.326 141.711C316.141 141.748 315.947 141.782 315.744 141.812C315.35 141.874 315.027 141.976 314.775 142.117C314.528 142.253 314.344 142.422 314.221 142.625C314.104 142.822 314.045 143.044 314.045 143.29C314.045 143.684 314.184 143.985 314.461 144.195C314.738 144.404 315.092 144.509 315.522 144.509ZM330.367 139.523V147.5H325.27V133.318H330.108V136.014H330.256C330.564 135.116 331.105 134.411 331.881 133.9C332.663 133.389 333.574 133.134 334.614 133.134C335.617 133.134 336.488 133.364 337.227 133.826C337.972 134.281 338.547 134.909 338.953 135.71C339.366 136.51 339.569 137.424 339.563 138.452V147.5H334.466V139.523C334.472 138.821 334.294 138.27 333.931 137.87C333.574 137.47 333.075 137.27 332.435 137.27C332.016 137.27 331.65 137.362 331.336 137.547C331.028 137.725 330.791 137.984 330.625 138.322C330.459 138.655 330.373 139.055 330.367 139.523ZM346.03 147.722C345.126 147.722 344.325 147.574 343.63 147.278C342.94 146.977 342.399 146.521 342.005 145.912C341.611 145.303 341.414 144.527 341.414 143.585C341.414 142.81 341.546 142.148 341.811 141.6C342.076 141.046 342.445 140.594 342.919 140.243C343.393 139.892 343.944 139.624 344.572 139.44C345.206 139.255 345.889 139.135 346.621 139.08C347.415 139.018 348.052 138.944 348.533 138.858C349.019 138.766 349.37 138.639 349.585 138.479C349.801 138.313 349.908 138.095 349.908 137.824V137.787C349.908 137.418 349.767 137.134 349.484 136.938C349.2 136.741 348.837 136.642 348.394 136.642C347.908 136.642 347.511 136.75 347.203 136.965C346.901 137.174 346.72 137.498 346.658 137.935H341.968C342.03 137.073 342.303 136.279 342.79 135.553C343.282 134.82 343.999 134.235 344.941 133.798C345.883 133.355 347.058 133.134 348.468 133.134C349.484 133.134 350.395 133.254 351.201 133.494C352.007 133.728 352.694 134.057 353.26 134.482C353.826 134.9 354.257 135.393 354.552 135.959C354.854 136.519 355.005 137.128 355.005 137.787V147.5H350.241V145.506H350.13C349.847 146.035 349.502 146.463 349.096 146.789C348.696 147.115 348.237 147.352 347.72 147.5C347.209 147.648 346.646 147.722 346.03 147.722ZM347.692 144.509C348.08 144.509 348.443 144.429 348.782 144.268C349.127 144.108 349.407 143.878 349.622 143.576C349.838 143.274 349.945 142.908 349.945 142.477V141.295C349.81 141.351 349.665 141.403 349.511 141.452C349.364 141.502 349.204 141.548 349.031 141.591C348.865 141.634 348.686 141.674 348.496 141.711C348.311 141.748 348.117 141.782 347.914 141.812C347.52 141.874 347.197 141.976 346.945 142.117C346.698 142.253 346.514 142.422 346.391 142.625C346.274 142.822 346.215 143.044 346.215 143.29C346.215 143.684 346.354 143.985 346.631 144.195C346.908 144.404 347.262 144.509 347.692 144.509ZM363.349 128.591L362.869 141.591H358.659L358.179 128.591H363.349ZM360.764 147.795C360.05 147.795 359.437 147.546 358.927 147.048C358.422 146.543 358.173 145.93 358.179 145.21C358.173 144.509 358.422 143.908 358.927 143.41C359.437 142.911 360.05 142.662 360.764 142.662C361.441 142.662 362.038 142.911 362.555 143.41C363.078 143.908 363.343 144.509 363.349 145.21C363.343 145.69 363.217 146.127 362.971 146.521C362.731 146.909 362.417 147.22 362.029 147.454C361.641 147.682 361.219 147.795 360.764 147.795Z" fill="#E8E6E3"/>
<path d="M126.112 176V167.273H129.06C129.745 167.273 130.305 167.396 130.739 167.643C131.177 167.888 131.501 168.219 131.711 168.636C131.921 169.054 132.026 169.52 132.026 170.034C132.026 170.548 131.921 171.016 131.711 171.436C131.504 171.857 131.183 172.192 130.748 172.442C130.313 172.689 129.756 172.812 129.077 172.812H126.964V171.875H129.043C129.512 171.875 129.888 171.794 130.173 171.632C130.457 171.47 130.663 171.251 130.79 170.976C130.921 170.697 130.987 170.384 130.987 170.034C130.987 169.685 130.921 169.372 130.79 169.097C130.663 168.821 130.455 168.605 130.168 168.449C129.881 168.29 129.501 168.21 129.026 168.21H127.168V176H126.112ZM133.592 176V169.455H134.564V170.443H134.632C134.751 170.119 134.967 169.857 135.28 169.655C135.592 169.453 135.945 169.352 136.337 169.352C136.411 169.352 136.503 169.354 136.614 169.357C136.724 169.359 136.808 169.364 136.865 169.369V170.392C136.831 170.384 136.753 170.371 136.631 170.354C136.511 170.334 136.385 170.324 136.251 170.324C135.933 170.324 135.649 170.391 135.399 170.524C135.152 170.655 134.956 170.837 134.811 171.07C134.669 171.3 134.598 171.562 134.598 171.858V176H133.592ZM140.517 176.136C139.926 176.136 139.408 175.996 138.962 175.714C138.518 175.433 138.172 175.04 137.922 174.534C137.675 174.028 137.551 173.437 137.551 172.761C137.551 172.08 137.675 171.484 137.922 170.976C138.172 170.467 138.518 170.072 138.962 169.791C139.408 169.51 139.926 169.369 140.517 169.369C141.108 169.369 141.625 169.51 142.068 169.791C142.514 170.072 142.861 170.467 143.108 170.976C143.358 171.484 143.483 172.08 143.483 172.761C143.483 173.437 143.358 174.028 143.108 174.534C142.861 175.04 142.514 175.433 142.068 175.714C141.625 175.996 141.108 176.136 140.517 176.136ZM140.517 175.233C140.966 175.233 141.335 175.118 141.625 174.888C141.915 174.658 142.129 174.355 142.268 173.98C142.408 173.605 142.477 173.199 142.477 172.761C142.477 172.324 142.408 171.916 142.268 171.538C142.129 171.161 141.915 170.855 141.625 170.622C141.335 170.389 140.966 170.273 140.517 170.273C140.068 170.273 139.699 170.389 139.409 170.622C139.119 170.855 138.905 171.161 138.766 171.538C138.626 171.916 138.557 172.324 138.557 172.761C138.557 173.199 138.626 173.605 138.766 173.98C138.905 174.355 139.119 174.658 139.409 174.888C139.699 175.118 140.068 175.233 140.517 175.233ZM147.49 176.136C146.944 176.136 146.463 175.999 146.045 175.723C145.627 175.445 145.301 175.053 145.065 174.547C144.829 174.038 144.711 173.438 144.711 172.744C144.711 172.057 144.829 171.46 145.065 170.955C145.301 170.449 145.629 170.058 146.049 169.783C146.47 169.507 146.956 169.369 147.507 169.369C147.933 169.369 148.27 169.44 148.517 169.582C148.767 169.722 148.957 169.881 149.088 170.06C149.221 170.236 149.325 170.381 149.399 170.494H149.484V167.273H150.49V176H149.518V174.994H149.399C149.325 175.114 149.22 175.264 149.083 175.446C148.947 175.625 148.752 175.786 148.5 175.928C148.247 176.067 147.91 176.136 147.49 176.136ZM147.626 175.233C148.029 175.233 148.37 175.128 148.649 174.918C148.927 174.705 149.139 174.411 149.284 174.036C149.429 173.658 149.501 173.222 149.501 172.727C149.501 172.239 149.43 171.811 149.288 171.445C149.146 171.075 148.936 170.788 148.657 170.584C148.379 170.376 148.035 170.273 147.626 170.273C147.2 170.273 146.845 170.382 146.561 170.601C146.279 170.817 146.068 171.111 145.926 171.483C145.787 171.852 145.717 172.267 145.717 172.727C145.717 173.193 145.788 173.616 145.93 173.997C146.075 174.375 146.288 174.676 146.569 174.901C146.853 175.122 147.206 175.233 147.626 175.233ZM156.596 173.324V169.455H157.602V176H156.596V174.892H156.528C156.375 175.224 156.136 175.507 155.812 175.74C155.488 175.97 155.079 176.085 154.585 176.085C154.176 176.085 153.812 175.996 153.494 175.817C153.176 175.635 152.926 175.362 152.744 174.999C152.562 174.632 152.471 174.17 152.471 173.614V169.455H153.477V173.545C153.477 174.023 153.61 174.403 153.877 174.688C154.147 174.972 154.491 175.114 154.909 175.114C155.159 175.114 155.413 175.05 155.672 174.922C155.933 174.794 156.152 174.598 156.328 174.334C156.507 174.07 156.596 173.733 156.596 173.324ZM162.103 176.136C161.489 176.136 160.961 175.991 160.518 175.702C160.075 175.412 159.734 175.013 159.495 174.504C159.256 173.996 159.137 173.415 159.137 172.761C159.137 172.097 159.259 171.51 159.504 171.001C159.751 170.49 160.094 170.091 160.535 169.804C160.978 169.514 161.495 169.369 162.086 169.369C162.546 169.369 162.961 169.455 163.33 169.625C163.7 169.795 164.002 170.034 164.238 170.341C164.474 170.648 164.62 171.006 164.677 171.415H163.671C163.594 171.116 163.424 170.852 163.16 170.622C162.898 170.389 162.546 170.273 162.103 170.273C161.711 170.273 161.367 170.375 161.072 170.58C160.779 170.781 160.55 171.067 160.386 171.436C160.224 171.803 160.143 172.233 160.143 172.727C160.143 173.233 160.222 173.673 160.381 174.048C160.543 174.423 160.771 174.714 161.063 174.922C161.359 175.129 161.705 175.233 162.103 175.233C162.364 175.233 162.602 175.188 162.815 175.097C163.028 175.006 163.208 174.875 163.356 174.705C163.504 174.534 163.609 174.33 163.671 174.091H164.677C164.62 174.477 164.479 174.825 164.255 175.135C164.033 175.442 163.739 175.686 163.373 175.868C163.009 176.047 162.586 176.136 162.103 176.136ZM168.994 169.455V170.307H165.602V169.455H168.994ZM166.59 167.886H167.596V174.125C167.596 174.409 167.637 174.622 167.719 174.764C167.805 174.903 167.913 174.997 168.043 175.045C168.177 175.091 168.317 175.114 168.465 175.114C168.576 175.114 168.667 175.108 168.738 175.097C168.809 175.082 168.866 175.071 168.908 175.062L169.113 175.966C169.045 175.991 168.95 176.017 168.827 176.043C168.705 176.071 168.55 176.085 168.363 176.085C168.079 176.085 167.8 176.024 167.528 175.902C167.258 175.78 167.033 175.594 166.854 175.344C166.678 175.094 166.59 174.778 166.59 174.398V167.886ZM174.022 171.79V172.727H170.204V171.79H174.022ZM178.706 169.455V170.307H175.178V169.455H178.706ZM176.235 176V168.551C176.235 168.176 176.323 167.864 176.499 167.614C176.675 167.364 176.904 167.176 177.185 167.051C177.466 166.926 177.763 166.864 178.076 166.864C178.323 166.864 178.525 166.884 178.681 166.923C178.837 166.963 178.953 167 179.03 167.034L178.74 167.903C178.689 167.886 178.618 167.865 178.527 167.839C178.439 167.814 178.323 167.801 178.178 167.801C177.846 167.801 177.605 167.885 177.458 168.053C177.313 168.22 177.24 168.466 177.24 168.79V176H176.235ZM182.505 176.136C181.914 176.136 181.396 175.996 180.95 175.714C180.507 175.433 180.16 175.04 179.91 174.534C179.663 174.028 179.539 173.437 179.539 172.761C179.539 172.08 179.663 171.484 179.91 170.976C180.16 170.467 180.507 170.072 180.95 169.791C181.396 169.51 181.914 169.369 182.505 169.369C183.096 169.369 183.613 169.51 184.056 169.791C184.502 170.072 184.849 170.467 185.096 170.976C185.346 171.484 185.471 172.08 185.471 172.761C185.471 173.437 185.346 174.028 185.096 174.534C184.849 175.04 184.502 175.433 184.056 175.714C183.613 175.996 183.096 176.136 182.505 176.136ZM182.505 175.233C182.954 175.233 183.324 175.118 183.613 174.888C183.903 174.658 184.118 174.355 184.257 173.98C184.396 173.605 184.466 173.199 184.466 172.761C184.466 172.324 184.396 171.916 184.257 171.538C184.118 171.161 183.903 170.855 183.613 170.622C183.324 170.389 182.954 170.273 182.505 170.273C182.056 170.273 181.687 170.389 181.397 170.622C181.108 170.855 180.893 171.161 180.754 171.538C180.615 171.916 180.545 172.324 180.545 172.761C180.545 173.199 180.615 173.605 180.754 173.98C180.893 174.355 181.108 174.658 181.397 174.888C181.687 175.118 182.056 175.233 182.505 175.233ZM189.665 176.136C189.052 176.136 188.523 175.991 188.08 175.702C187.637 175.412 187.296 175.013 187.058 174.504C186.819 173.996 186.7 173.415 186.7 172.761C186.7 172.097 186.822 171.51 187.066 171.001C187.313 170.49 187.657 170.091 188.097 169.804C188.54 169.514 189.058 169.369 189.648 169.369C190.109 169.369 190.523 169.455 190.893 169.625C191.262 169.795 191.565 170.034 191.8 170.341C192.036 170.648 192.183 171.006 192.239 171.415H191.234C191.157 171.116 190.987 170.852 190.722 170.622C190.461 170.389 190.109 170.273 189.665 170.273C189.273 170.273 188.93 170.375 188.634 170.58C188.342 170.781 188.113 171.067 187.948 171.436C187.786 171.803 187.705 172.233 187.705 172.727C187.705 173.233 187.785 173.673 187.944 174.048C188.106 174.423 188.333 174.714 188.626 174.922C188.921 175.129 189.268 175.233 189.665 175.233C189.927 175.233 190.164 175.188 190.377 175.097C190.59 175.006 190.771 174.875 190.918 174.705C191.066 174.534 191.171 174.33 191.234 174.091H192.239C192.183 174.477 192.042 174.825 191.817 175.135C191.596 175.442 191.302 175.686 190.935 175.868C190.572 176.047 190.148 176.136 189.665 176.136ZM197.835 173.324V169.455H198.84V176H197.835V174.892H197.766C197.613 175.224 197.374 175.507 197.05 175.74C196.727 175.97 196.317 176.085 195.823 176.085C195.414 176.085 195.05 175.996 194.732 175.817C194.414 175.635 194.164 175.362 193.982 174.999C193.8 174.632 193.71 174.17 193.71 173.614V169.455H194.715V173.545C194.715 174.023 194.849 174.403 195.116 174.688C195.386 174.972 195.729 175.114 196.147 175.114C196.397 175.114 196.651 175.05 196.91 174.922C197.171 174.794 197.39 174.598 197.566 174.334C197.745 174.07 197.835 173.733 197.835 173.324ZM205.319 170.92L204.415 171.176C204.358 171.026 204.275 170.879 204.164 170.737C204.056 170.592 203.908 170.473 203.721 170.379C203.533 170.286 203.293 170.239 203 170.239C202.6 170.239 202.266 170.331 201.999 170.516C201.735 170.697 201.603 170.929 201.603 171.21C201.603 171.46 201.694 171.658 201.875 171.803C202.057 171.947 202.341 172.068 202.728 172.165L203.699 172.403C204.284 172.545 204.721 172.763 205.007 173.055C205.294 173.345 205.438 173.719 205.438 174.176C205.438 174.551 205.33 174.886 205.114 175.182C204.901 175.477 204.603 175.71 204.219 175.881C203.836 176.051 203.39 176.136 202.881 176.136C202.213 176.136 201.661 175.991 201.223 175.702C200.786 175.412 200.509 174.989 200.392 174.432L201.347 174.193C201.438 174.545 201.61 174.81 201.863 174.986C202.118 175.162 202.452 175.25 202.864 175.25C203.333 175.25 203.705 175.151 203.98 174.952C204.259 174.75 204.398 174.509 204.398 174.227C204.398 174 204.319 173.81 204.159 173.656C204 173.5 203.756 173.384 203.426 173.307L202.336 173.051C201.736 172.909 201.296 172.689 201.015 172.391C200.736 172.089 200.597 171.713 200.597 171.261C200.597 170.892 200.701 170.565 200.908 170.281C201.118 169.997 201.404 169.774 201.765 169.612C202.128 169.45 202.54 169.369 203 169.369C203.648 169.369 204.157 169.511 204.526 169.795C204.898 170.08 205.162 170.455 205.319 170.92ZM209.696 176.136C209.065 176.136 208.521 175.997 208.064 175.719C207.609 175.438 207.259 175.045 207.011 174.543C206.767 174.037 206.645 173.449 206.645 172.778C206.645 172.108 206.767 171.517 207.011 171.006C207.259 170.491 207.602 170.091 208.043 169.804C208.486 169.514 209.003 169.369 209.594 169.369C209.935 169.369 210.271 169.426 210.604 169.54C210.936 169.653 211.239 169.838 211.511 170.094C211.784 170.347 212.001 170.682 212.163 171.099C212.325 171.517 212.406 172.031 212.406 172.642V173.068H207.361V172.199H211.384C211.384 171.83 211.31 171.5 211.162 171.21C211.017 170.92 210.81 170.692 210.54 170.524C210.273 170.357 209.957 170.273 209.594 170.273C209.193 170.273 208.847 170.372 208.554 170.571C208.264 170.767 208.041 171.023 207.885 171.338C207.729 171.653 207.651 171.991 207.651 172.352V172.932C207.651 173.426 207.736 173.845 207.906 174.189C208.08 174.53 208.32 174.79 208.626 174.969C208.933 175.145 209.29 175.233 209.696 175.233C209.96 175.233 210.199 175.196 210.412 175.122C210.628 175.045 210.814 174.932 210.97 174.781C211.126 174.628 211.247 174.437 211.332 174.21L212.304 174.483C212.202 174.812 212.03 175.102 211.788 175.352C211.547 175.599 211.249 175.793 210.893 175.932C210.538 176.068 210.139 176.136 209.696 176.136ZM216.408 176.136C215.862 176.136 215.381 175.999 214.963 175.723C214.545 175.445 214.219 175.053 213.983 174.547C213.747 174.038 213.629 173.438 213.629 172.744C213.629 172.057 213.747 171.46 213.983 170.955C214.219 170.449 214.547 170.058 214.967 169.783C215.388 169.507 215.874 169.369 216.425 169.369C216.851 169.369 217.188 169.44 217.435 169.582C217.685 169.722 217.875 169.881 218.006 170.06C218.139 170.236 218.243 170.381 218.317 170.494H218.402V167.273H219.408V176H218.436V174.994H218.317C218.243 175.114 218.138 175.264 218.001 175.446C217.865 175.625 217.67 175.786 217.418 175.928C217.165 176.067 216.828 176.136 216.408 176.136ZM216.544 175.233C216.947 175.233 217.288 175.128 217.567 174.918C217.845 174.705 218.057 174.411 218.202 174.036C218.347 173.658 218.419 173.222 218.419 172.727C218.419 172.239 218.348 171.811 218.206 171.445C218.064 171.075 217.854 170.788 217.575 170.584C217.297 170.376 216.953 170.273 216.544 170.273C216.118 170.273 215.763 170.382 215.479 170.601C215.197 170.817 214.986 171.111 214.844 171.483C214.705 171.852 214.635 172.267 214.635 172.727C214.635 173.193 214.706 173.616 214.848 173.997C214.993 174.375 215.206 174.676 215.487 174.901C215.771 175.122 216.124 175.233 216.544 175.233ZM227.509 176.136C226.878 176.136 226.334 175.997 225.876 175.719C225.422 175.438 225.071 175.045 224.824 174.543C224.58 174.037 224.457 173.449 224.457 172.778C224.457 172.108 224.58 171.517 224.824 171.006C225.071 170.491 225.415 170.091 225.855 169.804C226.298 169.514 226.815 169.369 227.406 169.369C227.747 169.369 228.084 169.426 228.416 169.54C228.749 169.653 229.051 169.838 229.324 170.094C229.597 170.347 229.814 170.682 229.976 171.099C230.138 171.517 230.219 172.031 230.219 172.642V173.068H225.173V172.199H229.196C229.196 171.83 229.122 171.5 228.974 171.21C228.83 170.92 228.622 170.692 228.352 170.524C228.085 170.357 227.77 170.273 227.406 170.273C227.006 170.273 226.659 170.372 226.366 170.571C226.077 170.767 225.854 171.023 225.697 171.338C225.541 171.653 225.463 171.991 225.463 172.352V172.932C225.463 173.426 225.548 173.845 225.719 174.189C225.892 174.53 226.132 174.79 226.439 174.969C226.746 175.145 227.102 175.233 227.509 175.233C227.773 175.233 228.011 175.196 228.224 175.122C228.44 175.045 228.626 174.932 228.783 174.781C228.939 174.628 229.06 174.437 229.145 174.21L230.116 174.483C230.014 174.812 229.842 175.102 229.601 175.352C229.359 175.599 229.061 175.793 228.706 175.932C228.351 176.068 227.952 176.136 227.509 176.136ZM232.754 172.062V176H231.749V169.455H232.72V170.477H232.805C232.959 170.145 233.192 169.878 233.504 169.676C233.817 169.472 234.22 169.369 234.714 169.369C235.158 169.369 235.545 169.46 235.878 169.642C236.21 169.821 236.469 170.094 236.653 170.46C236.838 170.824 236.93 171.284 236.93 171.841V176H235.925V171.909C235.925 171.395 235.791 170.994 235.524 170.707C235.257 170.418 234.891 170.273 234.425 170.273C234.104 170.273 233.817 170.342 233.564 170.482C233.314 170.621 233.116 170.824 232.972 171.091C232.827 171.358 232.754 171.682 232.754 172.062ZM241.41 178.591C240.924 178.591 240.507 178.528 240.157 178.403C239.808 178.281 239.517 178.119 239.284 177.918C239.054 177.719 238.87 177.506 238.734 177.278L239.535 176.716C239.626 176.835 239.741 176.972 239.88 177.125C240.02 177.281 240.21 177.416 240.451 177.53C240.696 177.646 241.015 177.705 241.41 177.705C241.939 177.705 242.375 177.577 242.718 177.321C243.062 177.065 243.234 176.665 243.234 176.119V174.79H243.149C243.075 174.909 242.97 175.057 242.833 175.233C242.7 175.406 242.507 175.561 242.254 175.697C242.004 175.831 241.666 175.898 241.24 175.898C240.711 175.898 240.237 175.773 239.816 175.523C239.399 175.273 239.068 174.909 238.824 174.432C238.582 173.955 238.461 173.375 238.461 172.693C238.461 172.023 238.579 171.439 238.815 170.942C239.051 170.442 239.379 170.055 239.799 169.783C240.22 169.507 240.706 169.369 241.257 169.369C241.683 169.369 242.021 169.44 242.271 169.582C242.524 169.722 242.717 169.881 242.85 170.06C242.987 170.236 243.092 170.381 243.166 170.494H243.268V169.455H244.24V176.188C244.24 176.75 244.112 177.207 243.856 177.56C243.603 177.915 243.262 178.175 242.833 178.339C242.407 178.507 241.933 178.591 241.41 178.591ZM241.376 174.994C241.779 174.994 242.12 174.902 242.399 174.717C242.677 174.533 242.889 174.267 243.034 173.92C243.179 173.574 243.251 173.159 243.251 172.676C243.251 172.205 243.18 171.788 243.038 171.428C242.896 171.067 242.686 170.784 242.407 170.58C242.129 170.375 241.785 170.273 241.376 170.273C240.95 170.273 240.595 170.381 240.311 170.597C240.029 170.812 239.818 171.102 239.676 171.466C239.537 171.83 239.467 172.233 239.467 172.676C239.467 173.131 239.538 173.533 239.68 173.882C239.825 174.229 240.038 174.501 240.319 174.7C240.603 174.896 240.956 174.994 241.376 174.994ZM246.081 176V169.455H247.086V176H246.081ZM246.592 168.364C246.396 168.364 246.227 168.297 246.085 168.163C245.946 168.03 245.876 167.869 245.876 167.682C245.876 167.494 245.946 167.334 246.085 167.2C246.227 167.067 246.396 167 246.592 167C246.788 167 246.956 167.067 247.095 167.2C247.237 167.334 247.308 167.494 247.308 167.682C247.308 167.869 247.237 168.03 247.095 168.163C246.956 168.297 246.788 168.364 246.592 168.364ZM249.934 172.062V176H248.928V169.455H249.9V170.477H249.985C250.138 170.145 250.371 169.878 250.684 169.676C250.996 169.472 251.4 169.369 251.894 169.369C252.337 169.369 252.725 169.46 253.058 169.642C253.39 169.821 253.648 170.094 253.833 170.46C254.018 170.824 254.11 171.284 254.11 171.841V176H253.104V171.909C253.104 171.395 252.971 170.994 252.704 170.707C252.437 170.418 252.07 170.273 251.604 170.273C251.283 170.273 250.996 170.342 250.744 170.482C250.494 170.621 250.296 170.824 250.151 171.091C250.006 171.358 249.934 171.682 249.934 172.062ZM258.692 176.136C258.061 176.136 257.517 175.997 257.06 175.719C256.605 175.438 256.255 175.045 256.007 174.543C255.763 174.037 255.641 173.449 255.641 172.778C255.641 172.108 255.763 171.517 256.007 171.006C256.255 170.491 256.598 170.091 257.039 169.804C257.482 169.514 257.999 169.369 258.59 169.369C258.931 169.369 259.267 169.426 259.6 169.54C259.932 169.653 260.235 169.838 260.507 170.094C260.78 170.347 260.998 170.682 261.159 171.099C261.321 171.517 261.402 172.031 261.402 172.642V173.068H256.357V172.199H260.38C260.38 171.83 260.306 171.5 260.158 171.21C260.013 170.92 259.806 170.692 259.536 170.524C259.269 170.357 258.953 170.273 258.59 170.273C258.189 170.273 257.843 170.372 257.55 170.571C257.26 170.767 257.037 171.023 256.881 171.338C256.725 171.653 256.647 171.991 256.647 172.352V172.932C256.647 173.426 256.732 173.845 256.902 174.189C257.076 174.53 257.316 174.79 257.623 174.969C257.929 175.145 258.286 175.233 258.692 175.233C258.956 175.233 259.195 175.196 259.408 175.122C259.624 175.045 259.81 174.932 259.966 174.781C260.123 174.628 260.243 174.437 260.328 174.21L261.3 174.483C261.198 174.812 261.026 175.102 260.784 175.352C260.543 175.599 260.245 175.793 259.89 175.932C259.534 176.068 259.135 176.136 258.692 176.136ZM265.676 176.136C265.046 176.136 264.502 175.997 264.044 175.719C263.59 175.438 263.239 175.045 262.992 174.543C262.748 174.037 262.625 173.449 262.625 172.778C262.625 172.108 262.748 171.517 262.992 171.006C263.239 170.491 263.583 170.091 264.023 169.804C264.466 169.514 264.983 169.369 265.574 169.369C265.915 169.369 266.252 169.426 266.584 169.54C266.917 169.653 267.219 169.838 267.492 170.094C267.765 170.347 267.982 170.682 268.144 171.099C268.306 171.517 268.387 172.031 268.387 172.642V173.068H263.341V172.199H267.364C267.364 171.83 267.29 171.5 267.142 171.21C266.998 170.92 266.79 170.692 266.52 170.524C266.253 170.357 265.938 170.273 265.574 170.273C265.174 170.273 264.827 170.372 264.534 170.571C264.245 170.767 264.022 171.023 263.865 171.338C263.709 171.653 263.631 171.991 263.631 172.352V172.932C263.631 173.426 263.716 173.845 263.887 174.189C264.06 174.53 264.3 174.79 264.607 174.969C264.914 175.145 265.27 175.233 265.676 175.233C265.941 175.233 266.179 175.196 266.392 175.122C266.608 175.045 266.794 174.932 266.951 174.781C267.107 174.628 267.228 174.437 267.313 174.21L268.284 174.483C268.182 174.812 268.01 175.102 267.769 175.352C267.527 175.599 267.229 175.793 266.874 175.932C266.519 176.068 266.12 176.136 265.676 176.136ZM269.917 176V169.455H270.888V170.443H270.956C271.076 170.119 271.292 169.857 271.604 169.655C271.917 169.453 272.269 169.352 272.661 169.352C272.735 169.352 272.827 169.354 272.938 169.357C273.049 169.359 273.132 169.364 273.189 169.369V170.392C273.155 170.384 273.077 170.371 272.955 170.354C272.836 170.334 272.709 170.324 272.576 170.324C272.257 170.324 271.973 170.391 271.723 170.524C271.476 170.655 271.28 170.837 271.135 171.07C270.993 171.3 270.922 171.562 270.922 171.858V176H269.917ZM279.239 176L277.245 169.455H278.302L279.717 174.466H279.785L281.183 169.455H282.256L283.637 174.449H283.705L285.12 169.455H286.177L284.183 176H283.194L281.762 170.972H281.66L280.228 176H279.239ZM288.512 172.062V176H287.506V167.273H288.512V170.477H288.597C288.751 170.139 288.981 169.871 289.288 169.672C289.597 169.47 290.009 169.369 290.523 169.369C290.969 169.369 291.36 169.459 291.695 169.638C292.031 169.814 292.29 170.085 292.475 170.452C292.663 170.815 292.756 171.278 292.756 171.841V176H291.751V171.909C291.751 171.389 291.616 170.987 291.346 170.703C291.079 170.416 290.708 170.273 290.234 170.273C289.904 170.273 289.609 170.342 289.347 170.482C289.089 170.621 288.884 170.824 288.734 171.091C288.586 171.358 288.512 171.682 288.512 172.062ZM297.255 176.136C296.664 176.136 296.146 175.996 295.7 175.714C295.257 175.433 294.91 175.04 294.66 174.534C294.413 174.028 294.289 173.437 294.289 172.761C294.289 172.08 294.413 171.484 294.66 170.976C294.91 170.467 295.257 170.072 295.7 169.791C296.146 169.51 296.664 169.369 297.255 169.369C297.846 169.369 298.363 169.51 298.806 169.791C299.252 170.072 299.599 170.467 299.846 170.976C300.096 171.484 300.221 172.08 300.221 172.761C300.221 173.437 300.096 174.028 299.846 174.534C299.599 175.04 299.252 175.433 298.806 175.714C298.363 175.996 297.846 176.136 297.255 176.136ZM297.255 175.233C297.704 175.233 298.074 175.118 298.363 174.888C298.653 174.658 298.868 174.355 299.007 173.98C299.146 173.605 299.216 173.199 299.216 172.761C299.216 172.324 299.146 171.916 299.007 171.538C298.868 171.161 298.653 170.855 298.363 170.622C298.074 170.389 297.704 170.273 297.255 170.273C296.806 170.273 296.437 170.389 296.147 170.622C295.858 170.855 295.643 171.161 295.504 171.538C295.365 171.916 295.295 172.324 295.295 172.761C295.295 173.199 295.365 173.605 295.504 173.98C295.643 174.355 295.858 174.658 296.147 174.888C296.437 175.118 296.806 175.233 297.255 175.233ZM306.137 167.273V176H305.131V167.273H306.137ZM310.638 176.136C310.047 176.136 309.529 175.996 309.083 175.714C308.64 175.433 308.293 175.04 308.043 174.534C307.796 174.028 307.672 173.437 307.672 172.761C307.672 172.08 307.796 171.484 308.043 170.976C308.293 170.467 308.64 170.072 309.083 169.791C309.529 169.51 310.047 169.369 310.638 169.369C311.229 169.369 311.746 169.51 312.189 169.791C312.635 170.072 312.982 170.467 313.229 170.976C313.479 171.484 313.604 172.08 313.604 172.761C313.604 173.437 313.479 174.028 313.229 174.534C312.982 175.04 312.635 175.433 312.189 175.714C311.746 175.996 311.229 176.136 310.638 176.136ZM310.638 175.233C311.087 175.233 311.456 175.118 311.746 174.888C312.036 174.658 312.25 174.355 312.39 173.98C312.529 173.605 312.598 173.199 312.598 172.761C312.598 172.324 312.529 171.916 312.39 171.538C312.25 171.161 312.036 170.855 311.746 170.622C311.456 170.389 311.087 170.273 310.638 170.273C310.189 170.273 309.82 170.389 309.53 170.622C309.24 170.855 309.026 171.161 308.887 171.538C308.748 171.916 308.678 172.324 308.678 172.761C308.678 173.199 308.748 173.605 308.887 173.98C309.026 174.355 309.24 174.658 309.53 174.888C309.82 175.118 310.189 175.233 310.638 175.233ZM320.257 169.455L317.837 176H316.814L314.393 169.455H315.484L317.291 174.67H317.359L319.166 169.455H320.257ZM324.094 176.136C323.464 176.136 322.92 175.997 322.462 175.719C322.008 175.438 321.657 175.045 321.41 174.543C321.165 174.037 321.043 173.449 321.043 172.778C321.043 172.108 321.165 171.517 321.41 171.006C321.657 170.491 322.001 170.091 322.441 169.804C322.884 169.514 323.401 169.369 323.992 169.369C324.333 169.369 324.67 169.426 325.002 169.54C325.335 169.653 325.637 169.838 325.91 170.094C326.183 170.347 326.4 170.682 326.562 171.099C326.724 171.517 326.805 172.031 326.805 172.642V173.068H321.759V172.199H325.782C325.782 171.83 325.708 171.5 325.56 171.21C325.415 170.92 325.208 170.692 324.938 170.524C324.671 170.357 324.356 170.273 323.992 170.273C323.592 170.273 323.245 170.372 322.952 170.571C322.663 170.767 322.44 171.023 322.283 171.338C322.127 171.653 322.049 171.991 322.049 172.352V172.932C322.049 173.426 322.134 173.845 322.305 174.189C322.478 174.53 322.718 174.79 323.025 174.969C323.332 175.145 323.688 175.233 324.094 175.233C324.359 175.233 324.597 175.196 324.81 175.122C325.026 175.045 325.212 174.932 325.369 174.781C325.525 174.628 325.646 174.437 325.731 174.21L326.702 174.483C326.6 174.812 326.428 175.102 326.187 175.352C325.945 175.599 325.647 175.793 325.292 175.932C324.937 176.068 324.538 176.136 324.094 176.136ZM332.971 170.92L332.067 171.176C332.011 171.026 331.927 170.879 331.816 170.737C331.708 170.592 331.56 170.473 331.373 170.379C331.185 170.286 330.945 170.239 330.653 170.239C330.252 170.239 329.918 170.331 329.651 170.516C329.387 170.697 329.255 170.929 329.255 171.21C329.255 171.46 329.346 171.658 329.528 171.803C329.71 171.947 329.994 172.068 330.38 172.165L331.352 172.403C331.937 172.545 332.373 172.763 332.66 173.055C332.947 173.345 333.09 173.719 333.09 174.176C333.09 174.551 332.982 174.886 332.766 175.182C332.553 175.477 332.255 175.71 331.871 175.881C331.488 176.051 331.042 176.136 330.533 176.136C329.866 176.136 329.313 175.991 328.876 175.702C328.438 175.412 328.161 174.989 328.045 174.432L328.999 174.193C329.09 174.545 329.262 174.81 329.515 174.986C329.771 175.162 330.104 175.25 330.516 175.25C330.985 175.25 331.357 175.151 331.633 174.952C331.911 174.75 332.05 174.509 332.05 174.227C332.05 174 331.971 173.81 331.812 173.656C331.653 173.5 331.408 173.384 331.079 173.307L329.988 173.051C329.388 172.909 328.948 172.689 328.667 172.391C328.388 172.089 328.249 171.713 328.249 171.261C328.249 170.892 328.353 170.565 328.56 170.281C328.771 169.997 329.056 169.774 329.417 169.612C329.781 169.45 330.192 169.369 330.653 169.369C331.3 169.369 331.809 169.511 332.178 169.795C332.55 170.08 332.815 170.455 332.971 170.92ZM340.451 176.136C339.905 176.136 339.424 175.999 339.006 175.723C338.588 175.445 338.262 175.053 338.026 174.547C337.79 174.038 337.672 173.438 337.672 172.744C337.672 172.057 337.79 171.46 338.026 170.955C338.262 170.449 338.59 170.058 339.01 169.783C339.431 169.507 339.917 169.369 340.468 169.369C340.894 169.369 341.23 169.44 341.478 169.582C341.728 169.722 341.918 169.881 342.049 170.06C342.182 170.236 342.286 170.381 342.36 170.494H342.445V167.273H343.451V176H342.479V174.994H342.36C342.286 175.114 342.181 175.264 342.044 175.446C341.908 175.625 341.713 175.786 341.461 175.928C341.208 176.067 340.871 176.136 340.451 176.136ZM340.587 175.233C340.99 175.233 341.331 175.128 341.61 174.918C341.888 174.705 342.1 174.411 342.245 174.036C342.39 173.658 342.462 173.222 342.462 172.727C342.462 172.239 342.391 171.811 342.249 171.445C342.107 171.075 341.897 170.788 341.618 170.584C341.34 170.376 340.996 170.273 340.587 170.273C340.161 170.273 339.806 170.382 339.522 170.601C339.24 170.817 339.029 171.111 338.887 171.483C338.748 171.852 338.678 172.267 338.678 172.727C338.678 173.193 338.749 173.616 338.891 173.997C339.036 174.375 339.249 174.676 339.53 174.901C339.814 175.122 340.167 175.233 340.587 175.233ZM348.176 176.136C347.546 176.136 347.002 175.997 346.544 175.719C346.09 175.438 345.739 175.045 345.492 174.543C345.248 174.037 345.125 173.449 345.125 172.778C345.125 172.108 345.248 171.517 345.492 171.006C345.739 170.491 346.083 170.091 346.523 169.804C346.966 169.514 347.483 169.369 348.074 169.369C348.415 169.369 348.752 169.426 349.084 169.54C349.417 169.653 349.719 169.838 349.992 170.094C350.265 170.347 350.482 170.682 350.644 171.099C350.806 171.517 350.887 172.031 350.887 172.642V173.068H345.841V172.199H349.864C349.864 171.83 349.79 171.5 349.642 171.21C349.498 170.92 349.29 170.692 349.02 170.524C348.753 170.357 348.438 170.273 348.074 170.273C347.674 170.273 347.327 170.372 347.034 170.571C346.745 170.767 346.522 171.023 346.365 171.338C346.209 171.653 346.131 171.991 346.131 172.352V172.932C346.131 173.426 346.216 173.845 346.387 174.189C346.56 174.53 346.8 174.79 347.107 174.969C347.414 175.145 347.77 175.233 348.176 175.233C348.441 175.233 348.679 175.196 348.892 175.122C349.108 175.045 349.294 174.932 349.451 174.781C349.607 174.628 349.728 174.437 349.813 174.21L350.784 174.483C350.682 174.812 350.51 175.102 350.269 175.352C350.027 175.599 349.729 175.793 349.374 175.932C349.019 176.068 348.62 176.136 348.176 176.136ZM357.053 170.92L356.15 171.176C356.093 171.026 356.009 170.879 355.898 170.737C355.79 170.592 355.642 170.473 355.455 170.379C355.267 170.286 355.027 170.239 354.735 170.239C354.334 170.239 354 170.331 353.733 170.516C353.469 170.697 353.337 170.929 353.337 171.21C353.337 171.46 353.428 171.658 353.61 171.803C353.792 171.947 354.076 172.068 354.462 172.165L355.434 172.403C356.019 172.545 356.455 172.763 356.742 173.055C357.029 173.345 357.172 173.719 357.172 174.176C357.172 174.551 357.064 174.886 356.848 175.182C356.635 175.477 356.337 175.71 355.953 175.881C355.57 176.051 355.124 176.136 354.615 176.136C353.948 176.136 353.395 175.991 352.958 175.702C352.52 175.412 352.243 174.989 352.127 174.432L353.081 174.193C353.172 174.545 353.344 174.81 353.597 174.986C353.853 175.162 354.186 175.25 354.598 175.25C355.067 175.25 355.439 175.151 355.715 174.952C355.993 174.75 356.132 174.509 356.132 174.227C356.132 174 356.053 173.81 355.894 173.656C355.735 173.5 355.49 173.384 355.161 173.307L354.07 173.051C353.471 172.909 353.03 172.689 352.749 172.391C352.471 172.089 352.331 171.713 352.331 171.261C352.331 170.892 352.435 170.565 352.642 170.281C352.853 169.997 353.138 169.774 353.499 169.612C353.863 169.45 354.275 169.369 354.735 169.369C355.382 169.369 355.891 169.511 356.26 169.795C356.632 170.08 356.897 170.455 357.053 170.92ZM358.686 176V169.455H359.692V176H358.686ZM359.197 168.364C359.001 168.364 358.832 168.297 358.69 168.163C358.551 168.03 358.482 167.869 358.482 167.682C358.482 167.494 358.551 167.334 358.69 167.2C358.832 167.067 359.001 167 359.197 167C359.393 167 359.561 167.067 359.7 167.2C359.842 167.334 359.913 167.494 359.913 167.682C359.913 167.869 359.842 168.03 359.7 168.163C359.561 168.297 359.393 168.364 359.197 168.364ZM364.176 178.591C363.69 178.591 363.272 178.528 362.923 178.403C362.574 178.281 362.282 178.119 362.049 177.918C361.819 177.719 361.636 177.506 361.5 177.278L362.301 176.716C362.392 176.835 362.507 176.972 362.646 177.125C362.785 177.281 362.975 177.416 363.217 177.53C363.461 177.646 363.781 177.705 364.176 177.705C364.704 177.705 365.14 177.577 365.484 177.321C365.828 177.065 366 176.665 366 176.119V174.79H365.914C365.841 174.909 365.735 175.057 365.599 175.233C365.466 175.406 365.272 175.561 365.02 175.697C364.77 175.831 364.431 175.898 364.005 175.898C363.477 175.898 363.002 175.773 362.582 175.523C362.164 175.273 361.833 174.909 361.589 174.432C361.348 173.955 361.227 173.375 361.227 172.693C361.227 172.023 361.345 171.439 361.581 170.942C361.816 170.442 362.145 170.055 362.565 169.783C362.985 169.507 363.471 169.369 364.022 169.369C364.449 169.369 364.787 169.44 365.037 169.582C365.289 169.722 365.483 169.881 365.616 170.06C365.752 170.236 365.858 170.381 365.931 170.494H366.034V169.455H367.005V176.188C367.005 176.75 366.877 177.207 366.622 177.56C366.369 177.915 366.028 178.175 365.599 178.339C365.173 178.507 364.699 178.591 364.176 178.591ZM364.142 174.994C364.545 174.994 364.886 174.902 365.164 174.717C365.443 174.533 365.654 174.267 365.799 173.92C365.944 173.574 366.017 173.159 366.017 172.676C366.017 172.205 365.946 171.788 365.804 171.428C365.662 171.067 365.451 170.784 365.173 170.58C364.895 170.375 364.551 170.273 364.142 170.273C363.716 170.273 363.36 170.381 363.076 170.597C362.795 170.812 362.583 171.102 362.441 171.466C362.302 171.83 362.233 172.233 362.233 172.676C362.233 173.131 362.304 173.533 362.446 173.882C362.591 174.229 362.804 174.501 363.085 174.7C363.369 174.896 363.721 174.994 364.142 174.994ZM369.852 172.062V176H368.846V169.455H369.818V170.477H369.903C370.056 170.145 370.289 169.878 370.602 169.676C370.914 169.472 371.318 169.369 371.812 169.369C372.255 169.369 372.643 169.46 372.975 169.642C373.308 169.821 373.566 170.094 373.751 170.46C373.936 170.824 374.028 171.284 374.028 171.841V176H373.022V171.909C373.022 171.395 372.889 170.994 372.622 170.707C372.355 170.418 371.988 170.273 371.522 170.273C371.201 170.273 370.914 170.342 370.662 170.482C370.412 170.621 370.214 170.824 370.069 171.091C369.924 171.358 369.852 171.682 369.852 172.062Z" fill="#BBB4AA"/>
</g>
<defs>
<clipPath id="clip0_2001_249">
<rect width="500" height="300" rx="24" fill="white"/>
</clipPath>
<clipPath id="clip1_2001_249">
<rect y="-100" width="500" height="500" rx="2" fill="white"/>
</clipPath>
<clipPath id="clip2_2001_249">
<rect width="16" height="16" fill="white" transform="translate(242 142)"/>
</clipPath>
<clipPath id="clip3_2001_249">
<rect width="16" height="16" fill="white" transform="translate(367 267)"/>
</clipPath>
<clipPath id="clip4_2001_249">
<rect width="16" height="16" fill="white" transform="translate(117 17)"/>
</clipPath>
<clipPath id="clip5_2001_249">
<rect width="16" height="16" fill="white" transform="translate(-8 142)"/>
</clipPath>
<clipPath id="clip6_2001_249">
<rect width="16" height="16" fill="white" transform="translate(492 142)"/>
</clipPath>
</defs>
</svg>
