<svg width="846" height="300" viewBox="0 0 846 300" fill="none" xmlns="http://www.w3.org/2000/svg">
<rect width="846" height="300" rx="24" fill="#39342D"/>
<g clip-path="url(#clip0_2001_249)">
<path d="M296.625 152.333C296.565 152.103 296.445 151.892 296.276 151.724C296.108 151.555 295.897 151.435 295.667 151.375L291.577 150.321C291.507 150.301 291.445 150.259 291.402 150.201C291.358 150.143 291.334 150.073 291.334 150C291.334 149.928 291.358 149.857 291.402 149.799C291.445 149.741 291.507 149.699 291.577 149.679L295.667 148.624C295.897 148.565 296.108 148.444 296.276 148.276C296.445 148.108 296.565 147.897 296.625 147.667L297.679 143.577C297.699 143.507 297.741 143.445 297.799 143.401C297.857 143.357 297.928 143.333 298 143.333C298.073 143.333 298.144 143.357 298.202 143.401C298.26 143.445 298.302 143.507 298.321 143.577L299.375 147.667C299.435 147.897 299.555 148.108 299.724 148.276C299.892 148.445 300.103 148.565 300.333 148.625L304.423 149.679C304.494 149.698 304.556 149.74 304.6 149.798C304.644 149.856 304.668 149.927 304.668 150C304.668 150.073 304.644 150.144 304.6 150.202C304.556 150.26 304.494 150.302 304.423 150.321L300.333 151.375C300.103 151.435 299.892 151.555 299.724 151.724C299.555 151.892 299.435 152.103 299.375 152.333L298.321 156.423C298.301 156.493 298.259 156.555 298.201 156.599C298.143 156.643 298.072 156.667 298 156.667C297.927 156.667 297.856 156.643 297.798 156.599C297.74 156.555 297.698 156.493 297.679 156.423L296.625 152.333Z" stroke="#554E44" stroke-linecap="round" stroke-linejoin="round"/>
<path d="M303.333 144V146.667" stroke="#554E44" stroke-linecap="round" stroke-linejoin="round"/>
<path d="M304.667 145.333H302" stroke="#554E44" stroke-linecap="round" stroke-linejoin="round"/>
<path d="M292.667 153.333V154.667" stroke="#554E44" stroke-linecap="round" stroke-linejoin="round"/>
<path d="M293.333 154H292" stroke="#554E44" stroke-linecap="round" stroke-linejoin="round"/>
</g>
<path d="M170.691 275.991C170.812 275.786 170.876 275.552 170.876 275.314C170.876 275.075 170.812 274.842 170.691 274.636L168.545 270.998C168.51 270.935 168.496 270.862 168.506 270.79C168.516 270.718 168.549 270.652 168.6 270.6C168.652 270.549 168.718 270.516 168.79 270.506C168.862 270.496 168.935 270.51 168.999 270.545L172.637 272.691C172.842 272.812 173.076 272.876 173.314 272.876C173.552 272.876 173.786 272.812 173.991 272.691L177.629 270.545C177.692 270.509 177.766 270.495 177.838 270.505C177.91 270.515 177.977 270.548 178.028 270.6C178.08 270.651 178.113 270.718 178.123 270.79C178.133 270.862 178.119 270.936 178.083 270.999L175.936 274.636C175.815 274.842 175.751 275.075 175.751 275.314C175.751 275.552 175.815 275.786 175.936 275.991L178.083 279.628C178.119 279.692 178.133 279.765 178.123 279.838C178.114 279.91 178.08 279.977 178.029 280.029C177.977 280.08 177.91 280.114 177.838 280.123C177.765 280.133 177.692 280.119 177.629 280.083L173.991 277.936C173.786 277.815 173.552 277.751 173.314 277.751C173.075 277.751 172.842 277.815 172.636 277.936L168.999 280.082C168.935 280.118 168.862 280.132 168.79 280.122C168.718 280.112 168.651 280.079 168.599 280.028C168.548 279.976 168.515 279.909 168.505 279.837C168.495 279.765 168.509 279.692 168.545 279.628L170.691 275.991Z" stroke="#554E44" stroke-linecap="round" stroke-linejoin="round"/>
<g clip-path="url(#clip1_2001_249)">
<path d="M421.625 277.333C421.565 277.103 421.445 276.892 421.276 276.724C421.108 276.555 420.897 276.435 420.667 276.375L416.577 275.321C416.507 275.301 416.445 275.259 416.402 275.201C416.358 275.143 416.334 275.073 416.334 275C416.334 274.928 416.358 274.857 416.402 274.799C416.445 274.741 416.507 274.699 416.577 274.679L420.667 273.624C420.897 273.565 421.108 273.444 421.276 273.276C421.445 273.108 421.565 272.897 421.625 272.667L422.679 268.577C422.699 268.507 422.741 268.445 422.799 268.401C422.857 268.357 422.928 268.333 423 268.333C423.073 268.333 423.144 268.357 423.202 268.401C423.26 268.445 423.302 268.507 423.321 268.577L424.375 272.667C424.435 272.897 424.555 273.108 424.724 273.276C424.892 273.445 425.103 273.565 425.333 273.625L429.423 274.679C429.494 274.698 429.556 274.74 429.6 274.798C429.644 274.856 429.668 274.927 429.668 275C429.668 275.073 429.644 275.144 429.6 275.202C429.556 275.26 429.494 275.302 429.423 275.321L425.333 276.375C425.103 276.435 424.892 276.555 424.724 276.724C424.555 276.892 424.435 277.103 424.375 277.333L423.321 281.423C423.301 281.493 423.259 281.555 423.201 281.599C423.143 281.643 423.072 281.667 423 281.667C422.927 281.667 422.856 281.643 422.798 281.599C422.74 281.555 422.698 281.493 422.679 281.423L421.625 277.333Z" stroke="#554E44" stroke-linecap="round" stroke-linejoin="round"/>
</g>
<g clip-path="url(#clip2_2001_249)">
<path d="M171.625 27.3334C171.565 27.1027 171.445 26.8922 171.276 26.7237C171.108 26.5552 170.897 26.4349 170.667 26.3754L166.577 25.3208C166.507 25.3009 166.445 25.2589 166.402 25.201C166.358 25.1432 166.334 25.0726 166.334 25.0001C166.334 24.9275 166.358 24.857 166.402 24.7991C166.445 24.7413 166.507 24.6992 166.577 24.6794L170.667 23.6241C170.897 23.5646 171.108 23.4445 171.276 23.2761C171.445 23.1078 171.565 22.8973 171.625 22.6668L172.679 18.5768C172.699 18.5067 172.741 18.445 172.799 18.401C172.857 18.357 172.928 18.3333 173 18.3333C173.073 18.3333 173.144 18.357 173.202 18.401C173.26 18.445 173.302 18.5067 173.321 18.5768L174.375 22.6668C174.435 22.8975 174.555 23.108 174.724 23.2765C174.892 23.445 175.103 23.5652 175.333 23.6248L179.423 24.6788C179.494 24.6982 179.556 24.7401 179.6 24.7981C179.644 24.8562 179.668 24.9271 179.668 25.0001C179.668 25.073 179.644 25.144 179.6 25.202C179.556 25.2601 179.494 25.302 179.423 25.3214L175.333 26.3754C175.103 26.4349 174.892 26.5552 174.724 26.7237C174.555 26.8922 174.435 27.1027 174.375 27.3334L173.321 31.4234C173.301 31.4935 173.259 31.5552 173.201 31.5992C173.143 31.6431 173.072 31.6669 173 31.6669C172.927 31.6669 172.856 31.6431 172.798 31.5992C172.74 31.5552 172.698 31.4935 172.679 31.4234L171.625 27.3334Z" stroke="#554E44" stroke-linecap="round" stroke-linejoin="round"/>
</g>
<path d="M420.691 25.9911C420.812 25.7859 420.876 25.552 420.876 25.3137C420.876 25.0755 420.812 24.8415 420.691 24.6363L418.545 20.9985C418.51 20.9351 418.496 20.862 418.506 20.7901C418.516 20.7183 418.549 20.6517 418.6 20.6004C418.652 20.5491 418.718 20.5159 418.79 20.5059C418.862 20.4959 418.935 20.5097 418.999 20.545L422.637 22.6908C422.842 22.8119 423.076 22.8757 423.314 22.8758C423.552 22.8759 423.786 22.8122 423.991 22.6913L427.629 20.545C427.692 20.5093 427.766 20.4954 427.838 20.5053C427.91 20.5152 427.977 20.5484 428.028 20.5998C428.08 20.6512 428.113 20.7181 428.123 20.7902C428.133 20.8622 428.119 20.9356 428.083 20.999L425.936 24.6363C425.815 24.8415 425.751 25.0755 425.751 25.3137C425.751 25.552 425.815 25.7859 425.936 25.9911L428.083 29.6285C428.119 29.6919 428.133 29.7655 428.123 29.8377C428.114 29.91 428.08 29.9771 428.029 30.0287C427.977 30.0803 427.91 30.1136 427.838 30.1233C427.765 30.1331 427.692 30.1189 427.629 30.0829L423.991 27.9361C423.786 27.8151 423.552 27.7512 423.314 27.7512C423.075 27.7512 422.842 27.8151 422.636 27.9361L418.999 30.0824C418.935 30.1181 418.862 30.1321 418.79 30.1222C418.718 30.1123 418.651 30.0791 418.599 30.0276C418.548 29.9762 418.515 29.9094 418.505 29.8373C418.495 29.7652 418.509 29.6919 418.545 29.6285L420.691 25.9911Z" stroke="#554E44" stroke-linecap="round" stroke-linejoin="round"/>
<g clip-path="url(#clip3_2001_249)">
<path d="M46.6247 152.333C46.5651 152.103 46.4449 151.892 46.2764 151.724C46.1079 151.555 45.8974 151.435 45.6667 151.375L41.5767 150.321C41.5069 150.301 41.4455 150.259 41.4017 150.201C41.358 150.143 41.3344 150.073 41.3344 150C41.3344 149.928 41.358 149.857 41.4017 149.799C41.4455 149.741 41.5069 149.699 41.5767 149.679L45.6667 148.624C45.8973 148.565 46.1078 148.444 46.2763 148.276C46.4447 148.108 46.565 147.897 46.6247 147.667L47.6793 143.577C47.6989 143.507 47.7409 143.445 47.7989 143.401C47.8568 143.357 47.9276 143.333 48.0003 143.333C48.0731 143.333 48.1438 143.357 48.2018 143.401C48.2597 143.445 48.3017 143.507 48.3213 143.577L49.3753 147.667C49.4349 147.897 49.5551 148.108 49.7236 148.276C49.8921 148.445 50.1026 148.565 50.3333 148.625L54.4233 149.679C54.4937 149.698 54.5557 149.74 54.5999 149.798C54.6441 149.856 54.668 149.927 54.668 150C54.668 150.073 54.6441 150.144 54.5999 150.202C54.5557 150.26 54.4937 150.302 54.4233 150.321L50.3333 151.375C50.1026 151.435 49.8921 151.555 49.7236 151.724C49.5551 151.892 49.4349 152.103 49.3753 152.333L48.3207 156.423C48.3011 156.493 48.2591 156.555 48.2011 156.599C48.1432 156.643 48.0724 156.667 47.9997 156.667C47.9269 156.667 47.8562 156.643 47.7982 156.599C47.7403 156.555 47.6983 156.493 47.6787 156.423L46.6247 152.333Z" stroke="#554E44" stroke-linecap="round" stroke-linejoin="round"/>
<path d="M53.3334 144V146.667" stroke="#554E44" stroke-linecap="round" stroke-linejoin="round"/>
<path d="M54.6667 145.333H52" stroke="#554E44" stroke-linecap="round" stroke-linejoin="round"/>
<path d="M42.6666 153.333V154.667" stroke="#554E44" stroke-linecap="round" stroke-linejoin="round"/>
<path d="M43.3333 154H42" stroke="#554E44" stroke-linecap="round" stroke-linejoin="round"/>
</g>
<g clip-path="url(#clip4_2001_249)">
<path d="M546.625 152.333C546.565 152.103 546.445 151.892 546.276 151.724C546.108 151.555 545.897 151.435 545.667 151.375L541.577 150.321C541.507 150.301 541.445 150.259 541.402 150.201C541.358 150.143 541.334 150.073 541.334 150C541.334 149.928 541.358 149.857 541.402 149.799C541.445 149.741 541.507 149.699 541.577 149.679L545.667 148.624C545.897 148.565 546.108 148.444 546.276 148.276C546.445 148.108 546.565 147.897 546.625 147.667L547.679 143.577C547.699 143.507 547.741 143.445 547.799 143.401C547.857 143.357 547.928 143.333 548 143.333C548.073 143.333 548.144 143.357 548.202 143.401C548.26 143.445 548.302 143.507 548.321 143.577L549.375 147.667C549.435 147.897 549.555 148.108 549.724 148.276C549.892 148.445 550.103 148.565 550.333 148.625L554.423 149.679C554.494 149.698 554.556 149.74 554.6 149.798C554.644 149.856 554.668 149.927 554.668 150C554.668 150.073 554.644 150.144 554.6 150.202C554.556 150.26 554.494 150.302 554.423 150.321L550.333 151.375C550.103 151.435 549.892 151.555 549.724 151.724C549.555 151.892 549.435 152.103 549.375 152.333L548.321 156.423C548.301 156.493 548.259 156.555 548.201 156.599C548.143 156.643 548.072 156.667 548 156.667C547.927 156.667 547.856 156.643 547.798 156.599C547.74 156.555 547.698 156.493 547.679 156.423L546.625 152.333Z" stroke="#554E44" stroke-linecap="round" stroke-linejoin="round"/>
<path d="M553.333 144V146.667" stroke="#554E44" stroke-linecap="round" stroke-linejoin="round"/>
<path d="M554.667 145.333H552" stroke="#554E44" stroke-linecap="round" stroke-linejoin="round"/>
<path d="M542.667 153.333V154.667" stroke="#554E44" stroke-linecap="round" stroke-linejoin="round"/>
<path d="M543.333 154H542" stroke="#554E44" stroke-linecap="round" stroke-linejoin="round"/>
</g>
<g clip-path="url(#clip5_2001_249)">
<path d="M796.625 152.333C796.565 152.103 796.445 151.892 796.276 151.724C796.108 151.555 795.897 151.435 795.667 151.375L791.577 150.321C791.507 150.301 791.445 150.259 791.402 150.201C791.358 150.143 791.334 150.073 791.334 150C791.334 149.928 791.358 149.857 791.402 149.799C791.445 149.741 791.507 149.699 791.577 149.679L795.667 148.624C795.897 148.565 796.108 148.444 796.276 148.276C796.445 148.108 796.565 147.897 796.625 147.667L797.679 143.577C797.699 143.507 797.741 143.445 797.799 143.401C797.857 143.357 797.927 143.333 798 143.333C798.073 143.333 798.144 143.357 798.202 143.401C798.26 143.445 798.302 143.507 798.321 143.577L799.375 147.667C799.435 147.897 799.555 148.108 799.723 148.276C799.892 148.445 800.102 148.565 800.333 148.625L804.423 149.679C804.494 149.698 804.556 149.74 804.6 149.798C804.644 149.856 804.668 149.927 804.668 150C804.668 150.073 804.644 150.144 804.6 150.202C804.556 150.26 804.494 150.302 804.423 150.321L800.333 151.375C800.102 151.435 799.892 151.555 799.723 151.724C799.555 151.892 799.435 152.103 799.375 152.333L798.321 156.423C798.301 156.493 798.259 156.555 798.201 156.599C798.143 156.643 798.072 156.667 798 156.667C797.927 156.667 797.856 156.643 797.798 156.599C797.74 156.555 797.698 156.493 797.679 156.423L796.625 152.333Z" stroke="#554E44" stroke-linecap="round" stroke-linejoin="round"/>
<path d="M803.333 144V146.667" stroke="#554E44" stroke-linecap="round" stroke-linejoin="round"/>
<path d="M804.667 145.333H802" stroke="#554E44" stroke-linecap="round" stroke-linejoin="round"/>
<path d="M792.667 153.333V154.667" stroke="#554E44" stroke-linecap="round" stroke-linejoin="round"/>
<path d="M793.333 154H792" stroke="#554E44" stroke-linecap="round" stroke-linejoin="round"/>
</g>
<path d="M670.691 275.991C670.812 275.786 670.876 275.552 670.876 275.314C670.876 275.075 670.812 274.842 670.691 274.636L668.545 270.998C668.51 270.935 668.496 270.862 668.506 270.79C668.516 270.718 668.549 270.652 668.6 270.6C668.652 270.549 668.718 270.516 668.79 270.506C668.862 270.496 668.935 270.51 668.998 270.545L672.637 272.691C672.842 272.812 673.076 272.876 673.314 272.876C673.552 272.876 673.786 272.812 673.991 272.691L677.629 270.545C677.692 270.509 677.766 270.495 677.838 270.505C677.91 270.515 677.977 270.548 678.028 270.6C678.079 270.651 678.113 270.718 678.123 270.79C678.132 270.862 678.118 270.936 678.083 270.999L675.936 274.636C675.815 274.842 675.751 275.075 675.751 275.314C675.751 275.552 675.815 275.786 675.936 275.991L678.083 279.628C678.119 279.692 678.133 279.765 678.123 279.838C678.113 279.91 678.08 279.977 678.029 280.029C677.977 280.08 677.91 280.114 677.838 280.123C677.765 280.133 677.692 280.119 677.628 280.083L673.991 277.936C673.786 277.815 673.552 277.751 673.314 277.751C673.075 277.751 672.841 277.815 672.636 277.936L668.998 280.082C668.935 280.118 668.862 280.132 668.79 280.122C668.718 280.112 668.651 280.079 668.599 280.028C668.548 279.976 668.515 279.909 668.505 279.837C668.495 279.765 668.509 279.692 668.544 279.628L670.691 275.991Z" stroke="#554E44" stroke-linecap="round" stroke-linejoin="round"/>
<g clip-path="url(#clip6_2001_249)">
<path d="M671.625 27.3334C671.565 27.1027 671.445 26.8922 671.276 26.7237C671.108 26.5552 670.897 26.4349 670.667 26.3754L666.577 25.3208C666.507 25.3009 666.445 25.2589 666.402 25.201C666.358 25.1432 666.334 25.0726 666.334 25.0001C666.334 24.9275 666.358 24.857 666.402 24.7991C666.445 24.7413 666.507 24.6992 666.577 24.6794L670.667 23.6241C670.897 23.5646 671.108 23.4445 671.276 23.2761C671.445 23.1078 671.565 22.8973 671.625 22.6668L672.679 18.5768C672.699 18.5067 672.741 18.445 672.799 18.401C672.857 18.357 672.927 18.3333 673 18.3333C673.073 18.3333 673.144 18.357 673.202 18.401C673.26 18.445 673.302 18.5067 673.321 18.5768L674.375 22.6668C674.435 22.8975 674.555 23.108 674.723 23.2765C674.892 23.445 675.102 23.5652 675.333 23.6248L679.423 24.6788C679.494 24.6982 679.556 24.7401 679.6 24.7981C679.644 24.8562 679.668 24.9271 679.668 25.0001C679.668 25.073 679.644 25.144 679.6 25.202C679.556 25.2601 679.494 25.302 679.423 25.3214L675.333 26.3754C675.102 26.4349 674.892 26.5552 674.723 26.7237C674.555 26.8922 674.435 27.1027 674.375 27.3334L673.321 31.4234C673.301 31.4935 673.259 31.5552 673.201 31.5992C673.143 31.6431 673.072 31.6669 673 31.6669C672.927 31.6669 672.856 31.6431 672.798 31.5992C672.74 31.5552 672.698 31.4935 672.679 31.4234L671.625 27.3334Z" stroke="#554E44" stroke-linecap="round" stroke-linejoin="round"/>
</g>
<path d="M311.5 134.167C311.5 129.5 314.833 126.167 320.167 126.167C326.833 126.167 326.607 130.167 330.167 132.833C333.727 135.5 336.833 135.5 336.833 140.833C336.833 146.833 333.5 149.5 327.5 149.5C324.167 149.5 324.167 152.833 319.5 152.833C314.833 152.833 310.167 150.167 310.167 145.5C310.167 141.5 312.167 141.5 312.167 138.833C312.167 136.833 311.5 135.5 311.5 134.167Z" fill="white" stroke="#2B2823" stroke-width="3" stroke-linecap="round" stroke-linejoin="round"/>
<path d="M322.833 144.833C325.411 144.833 327.5 142.744 327.5 140.167C327.5 137.589 325.411 135.5 322.833 135.5C320.256 135.5 318.167 137.589 318.167 140.167C318.167 142.744 320.256 144.833 322.833 144.833Z" fill="#FFAF24" stroke="#39342D" stroke-width="2" stroke-linecap="round" stroke-linejoin="round"/>
<path d="M350.829 149V130.091H355.963V137.477H362.758V130.091H367.892V149H362.758V141.614H355.963V149H350.829ZM370.403 149V134.818H375.5V149H370.403ZM372.951 133.341C372.262 133.341 371.671 133.113 371.179 132.658C370.686 132.202 370.44 131.654 370.44 131.014C370.44 130.374 370.686 129.826 371.179 129.371C371.671 128.915 372.262 128.688 372.951 128.688C373.647 128.688 374.238 128.915 374.724 129.371C375.216 129.826 375.463 130.374 375.463 131.014C375.463 131.654 375.216 132.202 374.724 132.658C374.238 133.113 373.647 133.341 372.951 133.341ZM383.045 146.415L382.971 147.449C382.91 148.335 382.762 149.185 382.528 149.997C382.3 150.81 382.057 151.53 381.799 152.158C381.546 152.786 381.346 153.272 381.199 153.616H378.059C378.158 153.272 378.296 152.773 378.475 152.121C378.66 151.474 378.826 150.742 378.973 149.923C379.127 149.111 379.204 148.286 379.204 147.449V146.415H383.045ZM395.14 130.091V149H390.007V130.091H395.14ZM401.857 130.091V132.307C401.857 132.91 401.734 133.513 401.488 134.116C401.248 134.714 400.94 135.271 400.565 135.788C400.195 136.299 399.814 136.726 399.42 137.071L397.315 136C397.573 135.557 397.804 135.043 398.007 134.458C398.21 133.873 398.312 133.156 398.312 132.307V130.091H401.857ZM403.766 149V134.818H408.604V137.514H408.752C409.047 136.628 409.552 135.926 410.266 135.409C410.98 134.892 411.83 134.634 412.815 134.634C413.812 134.634 414.67 134.898 415.391 135.428C416.111 135.951 416.545 136.646 416.692 137.514H416.84C417.08 136.646 417.591 135.951 418.373 135.428C419.155 134.898 420.072 134.634 421.124 134.634C422.485 134.634 423.586 135.071 424.43 135.945C425.279 136.819 425.704 137.982 425.704 139.435V149H420.607V140.727C420.607 140.106 420.45 139.619 420.136 139.268C419.822 138.911 419.401 138.733 418.871 138.733C418.348 138.733 417.933 138.911 417.625 139.268C417.323 139.619 417.172 140.106 417.172 140.727V149H412.297V140.727C412.297 140.106 412.141 139.619 411.827 139.268C411.513 138.911 411.091 138.733 410.562 138.733C410.211 138.733 409.909 138.813 409.657 138.973C409.405 139.133 409.208 139.364 409.066 139.665C408.931 139.961 408.863 140.315 408.863 140.727V149H403.766ZM432.806 134.227V130.091H449.241V134.227H443.553V149H438.494V134.227H432.806ZM453.269 149.222C452.364 149.222 451.564 149.074 450.868 148.778C450.179 148.477 449.637 148.021 449.243 147.412C448.849 146.803 448.652 146.027 448.652 145.085C448.652 144.31 448.785 143.648 449.049 143.1C449.314 142.546 449.683 142.094 450.157 141.743C450.631 141.392 451.182 141.124 451.81 140.94C452.444 140.755 453.127 140.635 453.86 140.58C454.654 140.518 455.291 140.444 455.771 140.358C456.257 140.266 456.608 140.139 456.823 139.979C457.039 139.813 457.147 139.595 457.147 139.324V139.287C457.147 138.918 457.005 138.634 456.722 138.438C456.439 138.241 456.076 138.142 455.632 138.142C455.146 138.142 454.749 138.25 454.441 138.465C454.14 138.674 453.958 138.998 453.897 139.435H449.206C449.268 138.573 449.542 137.779 450.028 137.053C450.52 136.32 451.237 135.735 452.179 135.298C453.121 134.855 454.297 134.634 455.706 134.634C456.722 134.634 457.633 134.754 458.439 134.994C459.246 135.228 459.932 135.557 460.498 135.982C461.064 136.4 461.495 136.893 461.791 137.459C462.092 138.019 462.243 138.628 462.243 139.287V149H457.479V147.006H457.368C457.085 147.535 456.74 147.963 456.334 148.289C455.934 148.615 455.475 148.852 454.958 149C454.447 149.148 453.884 149.222 453.269 149.222ZM454.931 146.009C455.318 146.009 455.682 145.929 456.02 145.768C456.365 145.608 456.645 145.378 456.86 145.076C457.076 144.774 457.184 144.408 457.184 143.977V142.795C457.048 142.851 456.903 142.903 456.75 142.952C456.602 143.002 456.442 143.048 456.269 143.091C456.103 143.134 455.925 143.174 455.734 143.211C455.549 143.248 455.355 143.282 455.152 143.312C454.758 143.374 454.435 143.476 454.183 143.617C453.937 143.753 453.752 143.922 453.629 144.125C453.512 144.322 453.453 144.544 453.453 144.79C453.453 145.184 453.592 145.485 453.869 145.695C454.146 145.904 454.5 146.009 454.931 146.009ZM473.136 134.818V138.511H463.792V134.818H473.136ZM465.602 131.42H470.698V144.439C470.698 144.636 470.732 144.802 470.8 144.938C470.868 145.067 470.972 145.165 471.114 145.233C471.255 145.295 471.437 145.325 471.658 145.325C471.812 145.325 471.991 145.307 472.194 145.27C472.403 145.233 472.557 145.202 472.656 145.178L473.394 148.76C473.167 148.828 472.84 148.911 472.416 149.009C471.997 149.108 471.498 149.172 470.92 149.203C469.75 149.265 468.769 149.145 467.975 148.843C467.18 148.535 466.583 148.052 466.183 147.393C465.783 146.735 465.589 145.91 465.602 144.919V131.42ZM475.215 149V134.818H480.312V149H475.215ZM477.764 133.341C477.074 133.341 476.483 133.113 475.991 132.658C475.499 132.202 475.252 131.654 475.252 131.014C475.252 130.374 475.499 129.826 475.991 129.371C476.483 128.915 477.074 128.688 477.764 128.688C478.459 128.688 479.05 128.915 479.536 129.371C480.029 129.826 480.275 130.374 480.275 131.014C480.275 131.654 480.029 132.202 479.536 132.658C479.05 133.113 478.459 133.341 477.764 133.341ZM486.861 149.222C485.956 149.222 485.156 149.074 484.46 148.778C483.771 148.477 483.229 148.021 482.835 147.412C482.441 146.803 482.244 146.027 482.244 145.085C482.244 144.31 482.376 143.648 482.641 143.1C482.906 142.546 483.275 142.094 483.749 141.743C484.223 141.392 484.774 141.124 485.402 140.94C486.036 140.755 486.719 140.635 487.451 140.58C488.245 140.518 488.883 140.444 489.363 140.358C489.849 140.266 490.2 140.139 490.415 139.979C490.631 139.813 490.738 139.595 490.738 139.324V139.287C490.738 138.918 490.597 138.634 490.314 138.438C490.031 138.241 489.667 138.142 489.224 138.142C488.738 138.142 488.341 138.25 488.033 138.465C487.732 138.674 487.55 138.998 487.488 139.435H482.798C482.86 138.573 483.133 137.779 483.62 137.053C484.112 136.32 484.829 135.735 485.771 135.298C486.713 134.855 487.888 134.634 489.298 134.634C490.314 134.634 491.225 134.754 492.031 134.994C492.837 135.228 493.524 135.557 494.09 135.982C494.656 136.4 495.087 136.893 495.383 137.459C495.684 138.019 495.835 138.628 495.835 139.287V149H491.071V147.006H490.96C490.677 147.535 490.332 147.963 489.926 148.289C489.526 148.615 489.067 148.852 488.55 149C488.039 149.148 487.476 149.222 486.861 149.222ZM488.522 146.009C488.91 146.009 489.273 145.929 489.612 145.768C489.957 145.608 490.237 145.378 490.452 145.076C490.668 144.774 490.775 144.408 490.775 143.977V142.795C490.64 142.851 490.495 142.903 490.341 142.952C490.194 143.002 490.034 143.048 489.861 143.091C489.695 143.134 489.517 143.174 489.326 143.211C489.141 143.248 488.947 143.282 488.744 143.312C488.35 143.374 488.027 143.476 487.775 143.617C487.528 143.753 487.344 143.922 487.221 144.125C487.104 144.322 487.045 144.544 487.045 144.79C487.045 145.184 487.184 145.485 487.461 145.695C487.738 145.904 488.092 146.009 488.522 146.009ZM503.367 141.023V149H498.27V134.818H503.108V137.514H503.256C503.564 136.616 504.105 135.911 504.881 135.4C505.663 134.889 506.574 134.634 507.614 134.634C508.617 134.634 509.488 134.864 510.227 135.326C510.972 135.781 511.547 136.409 511.953 137.21C512.366 138.01 512.569 138.924 512.563 139.952V149H507.466V141.023C507.472 140.321 507.294 139.77 506.931 139.37C506.574 138.97 506.075 138.77 505.435 138.77C505.016 138.77 504.65 138.862 504.336 139.047C504.028 139.225 503.791 139.484 503.625 139.822C503.459 140.155 503.373 140.555 503.367 141.023ZM519.03 149.222C518.126 149.222 517.325 149.074 516.63 148.778C515.94 148.477 515.399 148.021 515.005 147.412C514.611 146.803 514.414 146.027 514.414 145.085C514.414 144.31 514.546 143.648 514.811 143.1C515.076 142.546 515.445 142.094 515.919 141.743C516.393 141.392 516.944 141.124 517.572 140.94C518.206 140.755 518.889 140.635 519.621 140.58C520.415 140.518 521.052 140.444 521.533 140.358C522.019 140.266 522.37 140.139 522.585 139.979C522.801 139.813 522.908 139.595 522.908 139.324V139.287C522.908 138.918 522.767 138.634 522.484 138.438C522.2 138.241 521.837 138.142 521.394 138.142C520.908 138.142 520.511 138.25 520.203 138.465C519.901 138.674 519.72 138.998 519.658 139.435H514.968C515.03 138.573 515.303 137.779 515.79 137.053C516.282 136.32 516.999 135.735 517.941 135.298C518.883 134.855 520.058 134.634 521.468 134.634C522.484 134.634 523.395 134.754 524.201 134.994C525.007 135.228 525.694 135.557 526.26 135.982C526.826 136.4 527.257 136.893 527.552 137.459C527.854 138.019 528.005 138.628 528.005 139.287V149H523.241V147.006H523.13C522.847 147.535 522.502 147.963 522.096 148.289C521.696 148.615 521.237 148.852 520.72 149C520.209 149.148 519.646 149.222 519.03 149.222ZM520.692 146.009C521.08 146.009 521.443 145.929 521.782 145.768C522.127 145.608 522.407 145.378 522.622 145.076C522.838 144.774 522.945 144.408 522.945 143.977V142.795C522.81 142.851 522.665 142.903 522.511 142.952C522.364 143.002 522.204 143.048 522.031 143.091C521.865 143.134 521.686 143.174 521.496 143.211C521.311 143.248 521.117 143.282 520.914 143.312C520.52 143.374 520.197 143.476 519.945 143.617C519.698 143.753 519.514 143.922 519.391 144.125C519.274 144.322 519.215 144.544 519.215 144.79C519.215 145.184 519.354 145.485 519.631 145.695C519.908 145.904 520.262 146.009 520.692 146.009ZM536.349 130.091L535.869 143.091H531.659L531.179 130.091H536.349ZM533.764 149.295C533.05 149.295 532.437 149.046 531.927 148.548C531.422 148.043 531.173 147.43 531.179 146.71C531.173 146.009 531.422 145.408 531.927 144.91C532.437 144.411 533.05 144.162 533.764 144.162C534.441 144.162 535.038 144.411 535.555 144.91C536.078 145.408 536.343 146.009 536.349 146.71C536.343 147.19 536.217 147.627 535.971 148.021C535.731 148.409 535.417 148.72 535.029 148.954C534.641 149.182 534.219 149.295 533.764 149.295Z" fill="#E8E6E3"/>
<path d="M316.658 168.955C316.607 168.523 316.399 168.188 316.036 167.949C315.672 167.71 315.226 167.591 314.697 167.591C314.311 167.591 313.973 167.653 313.683 167.778C313.396 167.903 313.172 168.075 313.01 168.294C312.851 168.513 312.771 168.761 312.771 169.04C312.771 169.273 312.827 169.473 312.938 169.641C313.051 169.805 313.196 169.943 313.372 170.054C313.548 170.162 313.733 170.251 313.926 170.322C314.119 170.391 314.297 170.446 314.459 170.489L315.345 170.727C315.572 170.787 315.825 170.869 316.104 170.974C316.385 171.08 316.653 171.223 316.909 171.405C317.168 171.584 317.381 171.814 317.548 172.095C317.716 172.376 317.8 172.722 317.8 173.131C317.8 173.602 317.676 174.028 317.429 174.409C317.185 174.79 316.827 175.092 316.355 175.317C315.886 175.541 315.317 175.653 314.646 175.653C314.021 175.653 313.48 175.553 313.023 175.351C312.568 175.149 312.21 174.868 311.949 174.507C311.69 174.146 311.544 173.727 311.51 173.25H312.601C312.629 173.58 312.74 173.852 312.933 174.068C313.129 174.281 313.376 174.44 313.675 174.545C313.976 174.648 314.3 174.699 314.646 174.699C315.05 174.699 315.412 174.634 315.733 174.503C316.054 174.369 316.308 174.185 316.496 173.949C316.683 173.71 316.777 173.432 316.777 173.114C316.777 172.824 316.696 172.588 316.534 172.406C316.372 172.224 316.159 172.077 315.895 171.963C315.631 171.849 315.345 171.75 315.038 171.665L313.964 171.358C313.283 171.162 312.743 170.882 312.345 170.518C311.947 170.155 311.749 169.679 311.749 169.091C311.749 168.602 311.881 168.176 312.145 167.812C312.412 167.446 312.77 167.162 313.219 166.96C313.67 166.756 314.175 166.653 314.732 166.653C315.294 166.653 315.794 166.754 316.232 166.956C316.669 167.155 317.016 167.428 317.271 167.774C317.53 168.121 317.666 168.514 317.68 168.955H316.658ZM322.06 175.636C321.469 175.636 320.951 175.496 320.505 175.214C320.061 174.933 319.715 174.54 319.465 174.034C319.218 173.528 319.094 172.937 319.094 172.261C319.094 171.58 319.218 170.984 319.465 170.476C319.715 169.967 320.061 169.572 320.505 169.291C320.951 169.01 321.469 168.869 322.06 168.869C322.651 168.869 323.168 169.01 323.611 169.291C324.057 169.572 324.404 169.967 324.651 170.476C324.901 170.984 325.026 171.58 325.026 172.261C325.026 172.937 324.901 173.528 324.651 174.034C324.404 174.54 324.057 174.933 323.611 175.214C323.168 175.496 322.651 175.636 322.06 175.636ZM322.06 174.733C322.509 174.733 322.878 174.618 323.168 174.388C323.458 174.158 323.672 173.855 323.811 173.48C323.951 173.105 324.02 172.699 324.02 172.261C324.02 171.824 323.951 171.416 323.811 171.038C323.672 170.661 323.458 170.355 323.168 170.122C322.878 169.889 322.509 169.773 322.06 169.773C321.611 169.773 321.242 169.889 320.952 170.122C320.662 170.355 320.448 170.661 320.309 171.038C320.169 171.416 320.1 171.824 320.1 172.261C320.1 172.699 320.169 173.105 320.309 173.48C320.448 173.855 320.662 174.158 320.952 174.388C321.242 174.618 321.611 174.733 322.06 174.733ZM329.476 168.955V169.807H325.947V168.955H329.476ZM327.004 175.5V168.051C327.004 167.676 327.092 167.364 327.268 167.114C327.445 166.864 327.673 166.676 327.955 166.551C328.236 166.426 328.533 166.364 328.845 166.364C329.092 166.364 329.294 166.384 329.45 166.423C329.607 166.463 329.723 166.5 329.8 166.534L329.51 167.403C329.459 167.386 329.388 167.365 329.297 167.339C329.209 167.314 329.092 167.301 328.947 167.301C328.615 167.301 328.375 167.385 328.227 167.553C328.082 167.72 328.01 167.966 328.01 168.29V175.5H327.004ZM333.732 168.955V169.807H330.34V168.955H333.732ZM331.328 167.386H332.334V173.625C332.334 173.909 332.375 174.122 332.458 174.264C332.543 174.403 332.651 174.497 332.782 174.545C332.915 174.591 333.056 174.614 333.203 174.614C333.314 174.614 333.405 174.608 333.476 174.597C333.547 174.582 333.604 174.571 333.647 174.562L333.851 175.466C333.783 175.491 333.688 175.517 333.566 175.543C333.444 175.571 333.289 175.585 333.101 175.585C332.817 175.585 332.539 175.524 332.266 175.402C331.996 175.28 331.772 175.094 331.593 174.844C331.417 174.594 331.328 174.278 331.328 173.898V167.386ZM336.728 175.5L334.733 168.955H335.79L337.205 173.966H337.273L338.671 168.955H339.745L341.125 173.949H341.194L342.608 168.955H343.665L341.671 175.5H340.682L339.25 170.472H339.148L337.716 175.5H336.728ZM346.921 175.653C346.506 175.653 346.13 175.575 345.792 175.419C345.453 175.26 345.185 175.031 344.986 174.733C344.787 174.432 344.688 174.068 344.688 173.642C344.688 173.267 344.762 172.963 344.909 172.73C345.057 172.494 345.255 172.31 345.502 172.176C345.749 172.043 346.022 171.943 346.32 171.878C346.621 171.81 346.924 171.756 347.228 171.716C347.625 171.665 347.948 171.626 348.195 171.601C348.445 171.572 348.627 171.526 348.74 171.46C348.857 171.395 348.915 171.281 348.915 171.119V171.085C348.915 170.665 348.8 170.338 348.57 170.105C348.343 169.872 347.998 169.756 347.534 169.756C347.054 169.756 346.678 169.861 346.405 170.071C346.132 170.281 345.941 170.506 345.83 170.744L344.875 170.403C345.046 170.006 345.273 169.696 345.557 169.474C345.844 169.25 346.157 169.094 346.495 169.006C346.836 168.915 347.171 168.869 347.5 168.869C347.711 168.869 347.952 168.895 348.225 168.946C348.5 168.994 348.766 169.095 349.022 169.249C349.28 169.402 349.495 169.634 349.665 169.943C349.836 170.253 349.921 170.668 349.921 171.188V175.5H348.915V174.614H348.864C348.796 174.756 348.682 174.908 348.523 175.07C348.364 175.232 348.152 175.369 347.888 175.483C347.624 175.597 347.301 175.653 346.921 175.653ZM347.074 174.75C347.472 174.75 347.807 174.672 348.08 174.516C348.355 174.359 348.563 174.158 348.702 173.911C348.844 173.663 348.915 173.403 348.915 173.131V172.21C348.873 172.261 348.779 172.308 348.634 172.351C348.492 172.391 348.327 172.426 348.14 172.457C347.955 172.486 347.775 172.511 347.598 172.534C347.425 172.554 347.284 172.571 347.176 172.585C346.915 172.619 346.671 172.675 346.444 172.751C346.219 172.825 346.037 172.937 345.898 173.088C345.762 173.236 345.694 173.437 345.694 173.693C345.694 174.043 345.823 174.307 346.081 174.486C346.343 174.662 346.674 174.75 347.074 174.75ZM351.756 175.5V168.955H352.728V169.943H352.796C352.915 169.619 353.131 169.357 353.444 169.155C353.756 168.953 354.109 168.852 354.501 168.852C354.575 168.852 354.667 168.854 354.778 168.857C354.888 168.859 354.972 168.864 355.029 168.869V169.892C354.995 169.884 354.917 169.871 354.795 169.854C354.675 169.834 354.549 169.824 354.415 169.824C354.097 169.824 353.813 169.891 353.563 170.024C353.316 170.155 353.12 170.337 352.975 170.57C352.833 170.8 352.762 171.062 352.762 171.358V175.5H351.756ZM358.766 175.636C358.136 175.636 357.592 175.497 357.134 175.219C356.68 174.938 356.329 174.545 356.082 174.043C355.837 173.537 355.715 172.949 355.715 172.278C355.715 171.608 355.837 171.017 356.082 170.506C356.329 169.991 356.673 169.591 357.113 169.304C357.556 169.014 358.073 168.869 358.664 168.869C359.005 168.869 359.342 168.926 359.674 169.04C360.006 169.153 360.309 169.338 360.582 169.594C360.854 169.847 361.072 170.182 361.234 170.599C361.396 171.017 361.477 171.531 361.477 172.142V172.568H356.431V171.699H360.454C360.454 171.33 360.38 171 360.232 170.71C360.087 170.42 359.88 170.192 359.61 170.024C359.343 169.857 359.028 169.773 358.664 169.773C358.263 169.773 357.917 169.872 357.624 170.071C357.335 170.267 357.112 170.523 356.955 170.838C356.799 171.153 356.721 171.491 356.721 171.852V172.432C356.721 172.926 356.806 173.345 356.977 173.689C357.15 174.03 357.39 174.29 357.697 174.469C358.004 174.645 358.36 174.733 358.766 174.733C359.031 174.733 359.269 174.696 359.482 174.622C359.698 174.545 359.884 174.432 360.04 174.281C360.197 174.128 360.317 173.937 360.403 173.71L361.374 173.983C361.272 174.312 361.1 174.602 360.859 174.852C360.617 175.099 360.319 175.293 359.964 175.432C359.609 175.568 359.21 175.636 358.766 175.636ZM366.518 175.5V166.773H371.785V167.71H367.575V170.659H371.512V171.597H367.575V174.562H371.853V175.5H366.518ZM374.559 171.562V175.5H373.553V168.955H374.525V169.977H374.61C374.763 169.645 374.996 169.378 375.309 169.176C375.621 168.972 376.025 168.869 376.519 168.869C376.962 168.869 377.35 168.96 377.683 169.142C378.015 169.321 378.273 169.594 378.458 169.96C378.643 170.324 378.735 170.784 378.735 171.341V175.5H377.729V171.409C377.729 170.895 377.596 170.494 377.329 170.207C377.062 169.918 376.695 169.773 376.229 169.773C375.908 169.773 375.621 169.842 375.369 169.982C375.119 170.121 374.921 170.324 374.776 170.591C374.631 170.858 374.559 171.182 374.559 171.562ZM383.215 178.091C382.729 178.091 382.311 178.028 381.962 177.903C381.613 177.781 381.321 177.619 381.088 177.418C380.858 177.219 380.675 177.006 380.539 176.778L381.34 176.216C381.431 176.335 381.546 176.472 381.685 176.625C381.824 176.781 382.015 176.916 382.256 177.03C382.5 177.146 382.82 177.205 383.215 177.205C383.743 177.205 384.179 177.077 384.523 176.821C384.867 176.565 385.039 176.165 385.039 175.619V174.29H384.953C384.88 174.409 384.775 174.557 384.638 174.733C384.505 174.906 384.311 175.061 384.059 175.197C383.809 175.331 383.471 175.398 383.044 175.398C382.516 175.398 382.042 175.273 381.621 175.023C381.203 174.773 380.873 174.409 380.628 173.932C380.387 173.455 380.266 172.875 380.266 172.193C380.266 171.523 380.384 170.939 380.62 170.442C380.855 169.942 381.184 169.555 381.604 169.283C382.025 169.007 382.51 168.869 383.061 168.869C383.488 168.869 383.826 168.94 384.076 169.082C384.328 169.222 384.522 169.381 384.655 169.56C384.792 169.736 384.897 169.881 384.971 169.994H385.073V168.955H386.044V175.688C386.044 176.25 385.917 176.707 385.661 177.06C385.408 177.415 385.067 177.675 384.638 177.839C384.212 178.007 383.738 178.091 383.215 178.091ZM383.181 174.494C383.584 174.494 383.925 174.402 384.203 174.217C384.482 174.033 384.694 173.767 384.838 173.42C384.983 173.074 385.056 172.659 385.056 172.176C385.056 171.705 384.985 171.288 384.843 170.928C384.701 170.567 384.49 170.284 384.212 170.08C383.934 169.875 383.59 169.773 383.181 169.773C382.755 169.773 382.4 169.881 382.115 170.097C381.834 170.312 381.623 170.602 381.48 170.966C381.341 171.33 381.272 171.733 381.272 172.176C381.272 172.631 381.343 173.033 381.485 173.382C381.63 173.729 381.843 174.001 382.124 174.2C382.408 174.396 382.76 174.494 383.181 174.494ZM387.885 175.5V168.955H388.891V175.5H387.885ZM388.397 167.864C388.201 167.864 388.032 167.797 387.89 167.663C387.75 167.53 387.681 167.369 387.681 167.182C387.681 166.994 387.75 166.834 387.89 166.7C388.032 166.567 388.201 166.5 388.397 166.5C388.593 166.5 388.76 166.567 388.9 166.7C389.042 166.834 389.113 166.994 389.113 167.182C389.113 167.369 389.042 167.53 388.9 167.663C388.76 167.797 388.593 167.864 388.397 167.864ZM391.739 171.562V175.5H390.733V168.955H391.705V169.977H391.79C391.943 169.645 392.176 169.378 392.489 169.176C392.801 168.972 393.205 168.869 393.699 168.869C394.142 168.869 394.53 168.96 394.862 169.142C395.195 169.321 395.453 169.594 395.638 169.96C395.822 170.324 395.915 170.784 395.915 171.341V175.5H394.909V171.409C394.909 170.895 394.776 170.494 394.509 170.207C394.241 169.918 393.875 169.773 393.409 169.773C393.088 169.773 392.801 169.842 392.548 169.982C392.298 170.121 392.101 170.324 391.956 170.591C391.811 170.858 391.739 171.182 391.739 171.562ZM400.497 175.636C399.866 175.636 399.322 175.497 398.865 175.219C398.41 174.938 398.059 174.545 397.812 174.043C397.568 173.537 397.446 172.949 397.446 172.278C397.446 171.608 397.568 171.017 397.812 170.506C398.059 169.991 398.403 169.591 398.843 169.304C399.287 169.014 399.804 168.869 400.395 168.869C400.735 168.869 401.072 168.926 401.404 169.04C401.737 169.153 402.039 169.338 402.312 169.594C402.585 169.847 402.802 170.182 402.964 170.599C403.126 171.017 403.207 171.531 403.207 172.142V172.568H398.162V171.699H402.184C402.184 171.33 402.11 171 401.963 170.71C401.818 170.42 401.61 170.192 401.341 170.024C401.074 169.857 400.758 169.773 400.395 169.773C399.994 169.773 399.647 169.872 399.355 170.071C399.065 170.267 398.842 170.523 398.686 170.838C398.529 171.153 398.451 171.491 398.451 171.852V172.432C398.451 172.926 398.537 173.345 398.707 173.689C398.88 174.03 399.12 174.29 399.427 174.469C399.734 174.645 400.091 174.733 400.497 174.733C400.761 174.733 401 174.696 401.213 174.622C401.429 174.545 401.615 174.432 401.771 174.281C401.927 174.128 402.048 173.937 402.133 173.71L403.105 173.983C403.002 174.312 402.831 174.602 402.589 174.852C402.348 175.099 402.049 175.293 401.694 175.432C401.339 175.568 400.94 175.636 400.497 175.636ZM407.481 175.636C406.85 175.636 406.306 175.497 405.849 175.219C405.395 174.938 405.044 174.545 404.797 174.043C404.552 173.537 404.43 172.949 404.43 172.278C404.43 171.608 404.552 171.017 404.797 170.506C405.044 169.991 405.387 169.591 405.828 169.304C406.271 169.014 406.788 168.869 407.379 168.869C407.72 168.869 408.056 168.926 408.389 169.04C408.721 169.153 409.024 169.338 409.297 169.594C409.569 169.847 409.787 170.182 409.949 170.599C410.11 171.017 410.191 171.531 410.191 172.142V172.568H405.146V171.699H409.169C409.169 171.33 409.095 171 408.947 170.71C408.802 170.42 408.595 170.192 408.325 170.024C408.058 169.857 407.743 169.773 407.379 169.773C406.978 169.773 406.632 169.872 406.339 170.071C406.049 170.267 405.826 170.523 405.67 170.838C405.514 171.153 405.436 171.491 405.436 171.852V172.432C405.436 172.926 405.521 173.345 405.691 173.689C405.865 174.03 406.105 174.29 406.412 174.469C406.718 174.645 407.075 174.733 407.481 174.733C407.745 174.733 407.984 174.696 408.197 174.622C408.413 174.545 408.599 174.432 408.755 174.281C408.912 174.128 409.032 173.937 409.118 173.71L410.089 173.983C409.987 174.312 409.815 174.602 409.574 174.852C409.332 175.099 409.034 175.293 408.679 175.432C408.324 175.568 407.924 175.636 407.481 175.636ZM411.721 175.5V168.955H412.693V169.943H412.761C412.88 169.619 413.096 169.357 413.409 169.155C413.721 168.953 414.074 168.852 414.466 168.852C414.539 168.852 414.632 168.854 414.743 168.857C414.853 168.859 414.937 168.864 414.994 168.869V169.892C414.96 169.884 414.882 169.871 414.76 169.854C414.64 169.834 414.514 169.824 414.38 169.824C414.062 169.824 413.778 169.891 413.528 170.024C413.281 170.155 413.085 170.337 412.94 170.57C412.798 170.8 412.727 171.062 412.727 171.358V175.5H411.721ZM419.697 175.5V166.773H420.703V169.994H420.788C420.862 169.881 420.964 169.736 421.095 169.56C421.229 169.381 421.419 169.222 421.666 169.082C421.916 168.94 422.254 168.869 422.68 168.869C423.232 168.869 423.717 169.007 424.138 169.283C424.558 169.558 424.886 169.949 425.122 170.455C425.358 170.96 425.476 171.557 425.476 172.244C425.476 172.938 425.358 173.538 425.122 174.047C424.886 174.553 424.56 174.945 424.142 175.223C423.724 175.499 423.243 175.636 422.697 175.636C422.277 175.636 421.94 175.567 421.688 175.428C421.435 175.286 421.24 175.125 421.104 174.946C420.967 174.764 420.862 174.614 420.788 174.494H420.669V175.5H419.697ZM420.686 172.227C420.686 172.722 420.759 173.158 420.903 173.536C421.048 173.911 421.26 174.205 421.538 174.418C421.817 174.628 422.158 174.733 422.561 174.733C422.982 174.733 423.332 174.622 423.614 174.401C423.898 174.176 424.111 173.875 424.253 173.497C424.398 173.116 424.47 172.693 424.47 172.227C424.47 171.767 424.399 171.352 424.257 170.983C424.118 170.611 423.906 170.317 423.622 170.101C423.341 169.882 422.987 169.773 422.561 169.773C422.152 169.773 421.808 169.876 421.53 170.084C421.251 170.288 421.041 170.575 420.899 170.945C420.757 171.311 420.686 171.739 420.686 172.227ZM428.94 175.653C428.526 175.653 428.149 175.575 427.811 175.419C427.473 175.26 427.205 175.031 427.006 174.733C426.807 174.432 426.707 174.068 426.707 173.642C426.707 173.267 426.781 172.963 426.929 172.73C427.077 172.494 427.274 172.31 427.521 172.176C427.768 172.043 428.041 171.943 428.339 171.878C428.641 171.81 428.943 171.756 429.247 171.716C429.645 171.665 429.967 171.626 430.214 171.601C430.464 171.572 430.646 171.526 430.76 171.46C430.876 171.395 430.935 171.281 430.935 171.119V171.085C430.935 170.665 430.82 170.338 430.589 170.105C430.362 169.872 430.017 169.756 429.554 169.756C429.074 169.756 428.697 169.861 428.425 170.071C428.152 170.281 427.96 170.506 427.849 170.744L426.895 170.403C427.065 170.006 427.293 169.696 427.577 169.474C427.864 169.25 428.176 169.094 428.514 169.006C428.855 168.915 429.19 168.869 429.52 168.869C429.73 168.869 429.972 168.895 430.244 168.946C430.52 168.994 430.786 169.095 431.041 169.249C431.3 169.402 431.514 169.634 431.685 169.943C431.855 170.253 431.94 170.668 431.94 171.188V175.5H430.935V174.614H430.884C430.815 174.756 430.702 174.908 430.543 175.07C430.384 175.232 430.172 175.369 429.908 175.483C429.643 175.597 429.321 175.653 428.94 175.653ZM429.094 174.75C429.491 174.75 429.827 174.672 430.099 174.516C430.375 174.359 430.582 174.158 430.722 173.911C430.864 173.663 430.935 173.403 430.935 173.131V172.21C430.892 172.261 430.798 172.308 430.653 172.351C430.511 172.391 430.347 172.426 430.159 172.457C429.974 172.486 429.794 172.511 429.618 172.534C429.445 172.554 429.304 172.571 429.196 172.585C428.935 172.619 428.69 172.675 428.463 172.751C428.239 172.825 428.057 172.937 427.918 173.088C427.781 173.236 427.713 173.437 427.713 173.693C427.713 174.043 427.842 174.307 428.101 174.486C428.362 174.662 428.693 174.75 429.094 174.75ZM438.412 170.42L437.509 170.676C437.452 170.526 437.368 170.379 437.257 170.237C437.15 170.092 437.002 169.973 436.814 169.879C436.627 169.786 436.387 169.739 436.094 169.739C435.694 169.739 435.36 169.831 435.093 170.016C434.828 170.197 434.696 170.429 434.696 170.71C434.696 170.96 434.787 171.158 434.969 171.303C435.151 171.447 435.435 171.568 435.821 171.665L436.793 171.903C437.378 172.045 437.814 172.263 438.101 172.555C438.388 172.845 438.532 173.219 438.532 173.676C438.532 174.051 438.424 174.386 438.208 174.682C437.995 174.977 437.696 175.21 437.313 175.381C436.929 175.551 436.483 175.636 435.975 175.636C435.307 175.636 434.755 175.491 434.317 175.202C433.88 174.912 433.603 174.489 433.486 173.932L434.441 173.693C434.532 174.045 434.703 174.31 434.956 174.486C435.212 174.662 435.546 174.75 435.958 174.75C436.426 174.75 436.799 174.651 437.074 174.452C437.353 174.25 437.492 174.009 437.492 173.727C437.492 173.5 437.412 173.31 437.253 173.156C437.094 173 436.85 172.884 436.52 172.807L435.429 172.551C434.83 172.409 434.39 172.189 434.108 171.891C433.83 171.589 433.691 171.213 433.691 170.761C433.691 170.392 433.794 170.065 434.002 169.781C434.212 169.497 434.498 169.274 434.858 169.112C435.222 168.95 435.634 168.869 436.094 168.869C436.742 168.869 437.25 169.011 437.62 169.295C437.992 169.58 438.256 169.955 438.412 170.42ZM442.79 175.636C442.159 175.636 441.615 175.497 441.158 175.219C440.703 174.938 440.352 174.545 440.105 174.043C439.861 173.537 439.739 172.949 439.739 172.278C439.739 171.608 439.861 171.017 440.105 170.506C440.352 169.991 440.696 169.591 441.136 169.304C441.58 169.014 442.097 168.869 442.688 168.869C443.028 168.869 443.365 168.926 443.697 169.04C444.03 169.153 444.332 169.338 444.605 169.594C444.878 169.847 445.095 170.182 445.257 170.599C445.419 171.017 445.5 171.531 445.5 172.142V172.568H440.455V171.699H444.477C444.477 171.33 444.403 171 444.256 170.71C444.111 170.42 443.903 170.192 443.634 170.024C443.366 169.857 443.051 169.773 442.688 169.773C442.287 169.773 441.94 169.872 441.648 170.071C441.358 170.267 441.135 170.523 440.979 170.838C440.822 171.153 440.744 171.491 440.744 171.852V172.432C440.744 172.926 440.83 173.345 441 173.689C441.173 174.03 441.413 174.29 441.72 174.469C442.027 174.645 442.384 174.733 442.79 174.733C443.054 174.733 443.293 174.696 443.506 174.622C443.722 174.545 443.908 174.432 444.064 174.281C444.22 174.128 444.341 173.937 444.426 173.71L445.398 173.983C445.295 174.312 445.124 174.602 444.882 174.852C444.641 175.099 444.342 175.293 443.987 175.432C443.632 175.568 443.233 175.636 442.79 175.636ZM449.501 175.636C448.956 175.636 448.474 175.499 448.057 175.223C447.639 174.945 447.313 174.553 447.077 174.047C446.841 173.538 446.723 172.938 446.723 172.244C446.723 171.557 446.841 170.96 447.077 170.455C447.313 169.949 447.641 169.558 448.061 169.283C448.482 169.007 448.967 168.869 449.518 168.869C449.945 168.869 450.281 168.94 450.528 169.082C450.778 169.222 450.969 169.381 451.099 169.56C451.233 169.736 451.337 169.881 451.411 169.994H451.496V166.773H452.501V175.5H451.53V174.494H451.411C451.337 174.614 451.232 174.764 451.095 174.946C450.959 175.125 450.764 175.286 450.511 175.428C450.259 175.567 449.922 175.636 449.501 175.636ZM449.638 174.733C450.041 174.733 450.382 174.628 450.661 174.418C450.939 174.205 451.151 173.911 451.295 173.536C451.44 173.158 451.513 172.722 451.513 172.227C451.513 171.739 451.442 171.311 451.3 170.945C451.158 170.575 450.947 170.288 450.669 170.084C450.391 169.876 450.047 169.773 449.638 169.773C449.212 169.773 448.857 169.882 448.572 170.101C448.291 170.317 448.08 170.611 447.938 170.983C447.798 171.352 447.729 171.767 447.729 172.227C447.729 172.693 447.8 173.116 447.942 173.497C448.087 173.875 448.3 174.176 448.581 174.401C448.865 174.622 449.217 174.733 449.638 174.733ZM457.858 175.5V168.955H458.864V175.5H457.858ZM458.369 167.864C458.173 167.864 458.004 167.797 457.862 167.663C457.723 167.53 457.653 167.369 457.653 167.182C457.653 166.994 457.723 166.834 457.862 166.7C458.004 166.567 458.173 166.5 458.369 166.5C458.565 166.5 458.733 166.567 458.872 166.7C459.014 166.834 459.085 166.994 459.085 167.182C459.085 167.369 459.014 167.53 458.872 167.663C458.733 167.797 458.565 167.864 458.369 167.864ZM461.711 171.562V175.5H460.706V168.955H461.677V169.977H461.762C461.916 169.645 462.149 169.378 462.461 169.176C462.774 168.972 463.177 168.869 463.672 168.869C464.115 168.869 464.502 168.96 464.835 169.142C465.167 169.321 465.426 169.594 465.61 169.96C465.795 170.324 465.887 170.784 465.887 171.341V175.5H464.882V171.409C464.882 170.895 464.748 170.494 464.481 170.207C464.214 169.918 463.848 169.773 463.382 169.773C463.061 169.773 462.774 169.842 462.521 169.982C462.271 170.121 462.074 170.324 461.929 170.591C461.784 170.858 461.711 171.182 461.711 171.562ZM471.594 175.5H470.487L473.691 166.773H474.782L477.987 175.5H476.879L474.271 168.153H474.202L471.594 175.5ZM472.004 172.091H476.469V173.028H472.004V172.091ZM479.21 175.5V168.955H480.181V169.977H480.266C480.403 169.628 480.623 169.357 480.927 169.163C481.231 168.967 481.596 168.869 482.022 168.869C482.454 168.869 482.813 168.967 483.1 169.163C483.39 169.357 483.616 169.628 483.778 169.977H483.846C484.013 169.639 484.265 169.371 484.6 169.172C484.935 168.97 485.337 168.869 485.806 168.869C486.391 168.869 486.87 169.053 487.242 169.419C487.614 169.783 487.8 170.349 487.8 171.119V175.5H486.795V171.119C486.795 170.636 486.663 170.291 486.398 170.084C486.134 169.876 485.823 169.773 485.465 169.773C485.005 169.773 484.648 169.912 484.396 170.19C484.143 170.466 484.016 170.815 484.016 171.239V175.5H482.994V171.017C482.994 170.645 482.873 170.345 482.631 170.118C482.39 169.888 482.079 169.773 481.698 169.773C481.437 169.773 481.192 169.842 480.965 169.982C480.741 170.121 480.559 170.314 480.42 170.561C480.283 170.805 480.215 171.088 480.215 171.409V175.5H479.21ZM494.276 170.42L493.372 170.676C493.315 170.526 493.232 170.379 493.121 170.237C493.013 170.092 492.865 169.973 492.678 169.879C492.49 169.786 492.25 169.739 491.957 169.739C491.557 169.739 491.223 169.831 490.956 170.016C490.692 170.197 490.56 170.429 490.56 170.71C490.56 170.96 490.651 171.158 490.832 171.303C491.014 171.447 491.298 171.568 491.685 171.665L492.656 171.903C493.241 172.045 493.678 172.263 493.964 172.555C494.251 172.845 494.395 173.219 494.395 173.676C494.395 174.051 494.287 174.386 494.071 174.682C493.858 174.977 493.56 175.21 493.176 175.381C492.793 175.551 492.347 175.636 491.838 175.636C491.17 175.636 490.618 175.491 490.18 175.202C489.743 174.912 489.466 174.489 489.349 173.932L490.304 173.693C490.395 174.045 490.567 174.31 490.82 174.486C491.075 174.662 491.409 174.75 491.821 174.75C492.29 174.75 492.662 174.651 492.938 174.452C493.216 174.25 493.355 174.009 493.355 173.727C493.355 173.5 493.276 173.31 493.116 173.156C492.957 173 492.713 172.884 492.384 172.807L491.293 172.551C490.693 172.409 490.253 172.189 489.972 171.891C489.693 171.589 489.554 171.213 489.554 170.761C489.554 170.392 489.658 170.065 489.865 169.781C490.075 169.497 490.361 169.274 490.722 169.112C491.085 168.95 491.497 168.869 491.957 168.869C492.605 168.869 493.114 169.011 493.483 169.295C493.855 169.58 494.119 169.955 494.276 170.42ZM498.755 168.955V169.807H495.363V168.955H498.755ZM496.352 167.386H497.358V173.625C497.358 173.909 497.399 174.122 497.481 174.264C497.566 174.403 497.674 174.497 497.805 174.545C497.939 174.591 498.079 174.614 498.227 174.614C498.338 174.614 498.429 174.608 498.5 174.597C498.571 174.582 498.627 174.571 498.67 174.562L498.875 175.466C498.806 175.491 498.711 175.517 498.589 175.543C498.467 175.571 498.312 175.585 498.125 175.585C497.841 175.585 497.562 175.524 497.289 175.402C497.02 175.28 496.795 175.094 496.616 174.844C496.44 174.594 496.352 174.278 496.352 173.898V167.386ZM502.942 175.636C502.311 175.636 501.767 175.497 501.31 175.219C500.855 174.938 500.505 174.545 500.257 174.043C500.013 173.537 499.891 172.949 499.891 172.278C499.891 171.608 500.013 171.017 500.257 170.506C500.505 169.991 500.848 169.591 501.289 169.304C501.732 169.014 502.249 168.869 502.84 168.869C503.181 168.869 503.517 168.926 503.85 169.04C504.182 169.153 504.485 169.338 504.757 169.594C505.03 169.847 505.248 170.182 505.409 170.599C505.571 171.017 505.652 171.531 505.652 172.142V172.568H500.607V171.699H504.63C504.63 171.33 504.556 171 504.408 170.71C504.263 170.42 504.056 170.192 503.786 170.024C503.519 169.857 503.203 169.773 502.84 169.773C502.439 169.773 502.093 169.872 501.8 170.071C501.51 170.267 501.287 170.523 501.131 170.838C500.975 171.153 500.897 171.491 500.897 171.852V172.432C500.897 172.926 500.982 173.345 501.152 173.689C501.326 174.03 501.566 174.29 501.873 174.469C502.179 174.645 502.536 174.733 502.942 174.733C503.206 174.733 503.445 174.696 503.658 174.622C503.874 174.545 504.06 174.432 504.216 174.281C504.373 174.128 504.493 173.937 504.578 173.71L505.55 173.983C505.448 174.312 505.276 174.602 505.034 174.852C504.793 175.099 504.495 175.293 504.14 175.432C503.784 175.568 503.385 175.636 502.942 175.636ZM507.182 175.5V168.955H508.154V169.943H508.222C508.341 169.619 508.557 169.357 508.87 169.155C509.182 168.953 509.534 168.852 509.926 168.852C510 168.852 510.093 168.854 510.203 168.857C510.314 168.859 510.398 168.864 510.455 168.869V169.892C510.421 169.884 510.343 169.871 510.221 169.854C510.101 169.834 509.975 169.824 509.841 169.824C509.523 169.824 509.239 169.891 508.989 170.024C508.742 170.155 508.546 170.337 508.401 170.57C508.259 170.8 508.188 171.062 508.188 171.358V175.5H507.182ZM513.919 175.636C513.374 175.636 512.892 175.499 512.475 175.223C512.057 174.945 511.73 174.553 511.495 174.047C511.259 173.538 511.141 172.938 511.141 172.244C511.141 171.557 511.259 170.96 511.495 170.455C511.73 169.949 512.059 169.558 512.479 169.283C512.9 169.007 513.385 168.869 513.936 168.869C514.363 168.869 514.699 168.94 514.946 169.082C515.196 169.222 515.387 169.381 515.517 169.56C515.651 169.736 515.755 169.881 515.828 169.994H515.914V166.773H516.919V175.5H515.948V174.494H515.828C515.755 174.614 515.65 174.764 515.513 174.946C515.377 175.125 515.182 175.286 514.929 175.428C514.676 175.567 514.34 175.636 513.919 175.636ZM514.056 174.733C514.459 174.733 514.8 174.628 515.078 174.418C515.357 174.205 515.569 173.911 515.713 173.536C515.858 173.158 515.931 172.722 515.931 172.227C515.931 171.739 515.86 171.311 515.718 170.945C515.576 170.575 515.365 170.288 515.087 170.084C514.809 169.876 514.465 169.773 514.056 169.773C513.63 169.773 513.275 169.882 512.99 170.101C512.709 170.317 512.498 170.611 512.355 170.983C512.216 171.352 512.147 171.767 512.147 172.227C512.147 172.693 512.218 173.116 512.36 173.497C512.505 173.875 512.718 174.176 512.999 174.401C513.283 174.622 513.635 174.733 514.056 174.733ZM520.827 175.653C520.412 175.653 520.036 175.575 519.698 175.419C519.36 175.26 519.091 175.031 518.892 174.733C518.694 174.432 518.594 174.068 518.594 173.642C518.594 173.267 518.668 172.963 518.816 172.73C518.963 172.494 519.161 172.31 519.408 172.176C519.655 172.043 519.928 171.943 520.226 171.878C520.527 171.81 520.83 171.756 521.134 171.716C521.532 171.665 521.854 171.626 522.101 171.601C522.351 171.572 522.533 171.526 522.647 171.46C522.763 171.395 522.821 171.281 522.821 171.119V171.085C522.821 170.665 522.706 170.338 522.476 170.105C522.249 169.872 521.904 169.756 521.441 169.756C520.961 169.756 520.584 169.861 520.311 170.071C520.039 170.281 519.847 170.506 519.736 170.744L518.782 170.403C518.952 170.006 519.179 169.696 519.463 169.474C519.75 169.25 520.063 169.094 520.401 169.006C520.742 168.915 521.077 168.869 521.407 168.869C521.617 168.869 521.858 168.895 522.131 168.946C522.407 168.994 522.672 169.095 522.928 169.249C523.186 169.402 523.401 169.634 523.571 169.943C523.742 170.253 523.827 170.668 523.827 171.188V175.5H522.821V174.614H522.77C522.702 174.756 522.588 174.908 522.429 175.07C522.27 175.232 522.059 175.369 521.794 175.483C521.53 175.597 521.208 175.653 520.827 175.653ZM520.98 174.75C521.378 174.75 521.713 174.672 521.986 174.516C522.262 174.359 522.469 174.158 522.608 173.911C522.75 173.663 522.821 173.403 522.821 173.131V172.21C522.779 172.261 522.685 172.308 522.54 172.351C522.398 172.391 522.233 172.426 522.046 172.457C521.861 172.486 521.681 172.511 521.505 172.534C521.331 172.554 521.191 172.571 521.083 172.585C520.821 172.619 520.577 172.675 520.35 172.751C520.125 172.825 519.944 172.937 519.804 173.088C519.668 173.236 519.6 173.437 519.6 173.693C519.6 174.043 519.729 174.307 519.988 174.486C520.249 174.662 520.58 174.75 520.98 174.75ZM525.663 175.5V168.955H526.634V169.977H526.719C526.856 169.628 527.076 169.357 527.38 169.163C527.684 168.967 528.049 168.869 528.475 168.869C528.907 168.869 529.266 168.967 529.553 169.163C529.843 169.357 530.069 169.628 530.231 169.977H530.299C530.467 169.639 530.718 169.371 531.053 169.172C531.388 168.97 531.79 168.869 532.259 168.869C532.844 168.869 533.323 169.053 533.695 169.419C534.067 169.783 534.254 170.349 534.254 171.119V175.5H533.248V171.119C533.248 170.636 533.116 170.291 532.852 170.084C532.587 169.876 532.276 169.773 531.918 169.773C531.458 169.773 531.102 169.912 530.849 170.19C530.596 170.466 530.469 170.815 530.469 171.239V175.5H529.447V171.017C529.447 170.645 529.326 170.345 529.085 170.118C528.843 169.888 528.532 169.773 528.151 169.773C527.89 169.773 527.646 169.842 527.418 169.982C527.194 170.121 527.012 170.314 526.873 170.561C526.737 170.805 526.668 171.088 526.668 171.409V175.5H525.663Z" fill="#A59B8D"/>
<defs>
<clipPath id="clip0_2001_249">
<rect width="16" height="16" fill="white" transform="translate(290 142)"/>
</clipPath>
<clipPath id="clip1_2001_249">
<rect width="16" height="16" fill="white" transform="translate(415 267)"/>
</clipPath>
<clipPath id="clip2_2001_249">
<rect width="16" height="16" fill="white" transform="translate(165 17)"/>
</clipPath>
<clipPath id="clip3_2001_249">
<rect width="16" height="16" fill="white" transform="translate(40 142)"/>
</clipPath>
<clipPath id="clip4_2001_249">
<rect width="16" height="16" fill="white" transform="translate(540 142)"/>
</clipPath>
<clipPath id="clip5_2001_249">
<rect width="16" height="16" fill="white" transform="translate(790 142)"/>
</clipPath>
<clipPath id="clip6_2001_249">
<rect width="16" height="16" fill="white" transform="translate(665 17)"/>
</clipPath>
</defs>
</svg>
