<svg width="846" height="300" viewBox="0 0 846 300" fill="none" xmlns="http://www.w3.org/2000/svg">
<rect width="846" height="300" rx="24" fill="#FFF9F0"/>
<path d="M311.834 134.167C311.834 129.5 315.167 126.167 320.5 126.167C327.167 126.167 326.94 130.167 330.5 132.833C334.06 135.5 337.167 135.5 337.167 140.833C337.167 146.833 333.834 149.5 327.834 149.5C324.5 149.5 324.5 152.833 319.834 152.833C315.167 152.833 310.5 150.167 310.5 145.5C310.5 141.5 312.5 141.5 312.5 138.833C312.5 136.833 311.834 135.5 311.834 134.167Z" fill="white" stroke="#39342D" stroke-width="3" stroke-linecap="round" stroke-linejoin="round"/>
<path d="M323.167 144.833C325.744 144.833 327.834 142.744 327.834 140.167C327.834 137.589 325.744 135.5 323.167 135.5C320.59 135.5 318.5 137.589 318.5 140.167C318.5 142.744 320.59 144.833 323.167 144.833Z" fill="#FFAF24" stroke="#39342D" stroke-width="2" stroke-linecap="round" stroke-linejoin="round"/>
<path d="M351.163 149V130.091H356.296V137.477H363.092V130.091H368.225V149H363.092V141.614H356.296V149H351.163ZM370.737 149V134.818H375.833V149H370.737ZM373.285 133.341C372.596 133.341 372.005 133.113 371.512 132.658C371.02 132.202 370.774 131.654 370.774 131.014C370.774 130.374 371.02 129.826 371.512 129.371C372.005 128.915 372.596 128.688 373.285 128.688C373.981 128.688 374.571 128.915 375.058 129.371C375.55 129.826 375.796 130.374 375.796 131.014C375.796 131.654 375.55 132.202 375.058 132.658C374.571 133.113 373.981 133.341 373.285 133.341ZM383.379 146.415L383.305 147.449C383.244 148.335 383.096 149.185 382.862 149.997C382.634 150.81 382.391 151.53 382.132 152.158C381.88 152.786 381.68 153.272 381.532 153.616H378.393C378.492 153.272 378.63 152.773 378.809 152.121C378.993 151.474 379.159 150.742 379.307 149.923C379.461 149.111 379.538 148.286 379.538 147.449V146.415H383.379ZM395.474 130.091V149H390.341V130.091H395.474ZM402.191 130.091V132.307C402.191 132.91 402.068 133.513 401.822 134.116C401.582 134.714 401.274 135.271 400.898 135.788C400.529 136.299 400.148 136.726 399.754 137.071L397.648 136C397.907 135.557 398.138 135.043 398.341 134.458C398.544 133.873 398.646 133.156 398.646 132.307V130.091H402.191ZM404.1 149V134.818H408.938V137.514H409.086C409.381 136.628 409.886 135.926 410.6 135.409C411.314 134.892 412.163 134.634 413.148 134.634C414.145 134.634 415.004 134.898 415.724 135.428C416.444 135.951 416.878 136.646 417.026 137.514H417.174C417.414 136.646 417.925 135.951 418.707 135.428C419.488 134.898 420.405 134.634 421.458 134.634C422.818 134.634 423.92 135.071 424.763 135.945C425.613 136.819 426.037 137.982 426.037 139.435V149H420.941V140.727C420.941 140.106 420.784 139.619 420.47 139.268C420.156 138.911 419.734 138.733 419.205 138.733C418.682 138.733 418.266 138.911 417.959 139.268C417.657 139.619 417.506 140.106 417.506 140.727V149H412.631V140.727C412.631 140.106 412.474 139.619 412.16 139.268C411.846 138.911 411.425 138.733 410.895 138.733C410.545 138.733 410.243 138.813 409.991 138.973C409.738 139.133 409.541 139.364 409.4 139.665C409.264 139.961 409.197 140.315 409.197 140.727V149H404.1ZM433.14 134.227V130.091H449.575V134.227H443.887V149H438.827V134.227H433.14ZM453.602 149.222C452.698 149.222 451.897 149.074 451.202 148.778C450.513 148.477 449.971 148.021 449.577 147.412C449.183 146.803 448.986 146.027 448.986 145.085C448.986 144.31 449.118 143.648 449.383 143.1C449.648 142.546 450.017 142.094 450.491 141.743C450.965 141.392 451.516 141.124 452.144 140.94C452.778 140.755 453.461 140.635 454.193 140.58C454.987 140.518 455.624 140.444 456.105 140.358C456.591 140.266 456.942 140.139 457.157 139.979C457.373 139.813 457.48 139.595 457.48 139.324V139.287C457.48 138.918 457.339 138.634 457.056 138.438C456.772 138.241 456.409 138.142 455.966 138.142C455.48 138.142 455.083 138.25 454.775 138.465C454.473 138.674 454.292 138.998 454.23 139.435H449.54C449.602 138.573 449.875 137.779 450.362 137.053C450.854 136.32 451.571 135.735 452.513 135.298C453.455 134.855 454.63 134.634 456.04 134.634C457.056 134.634 457.967 134.754 458.773 134.994C459.579 135.228 460.266 135.557 460.832 135.982C461.398 136.4 461.829 136.893 462.124 137.459C462.426 138.019 462.577 138.628 462.577 139.287V149H457.813V147.006H457.702C457.419 147.535 457.074 147.963 456.668 148.289C456.268 148.615 455.809 148.852 455.292 149C454.781 149.148 454.218 149.222 453.602 149.222ZM455.264 146.009C455.652 146.009 456.015 145.929 456.354 145.768C456.699 145.608 456.979 145.378 457.194 145.076C457.41 144.774 457.517 144.408 457.517 143.977V142.795C457.382 142.851 457.237 142.903 457.083 142.952C456.936 143.002 456.776 143.048 456.603 143.091C456.437 143.134 456.258 143.174 456.068 143.211C455.883 143.248 455.689 143.282 455.486 143.312C455.092 143.374 454.769 143.476 454.517 143.617C454.27 143.753 454.086 143.922 453.963 144.125C453.846 144.322 453.787 144.544 453.787 144.79C453.787 145.184 453.926 145.485 454.203 145.695C454.48 145.904 454.834 146.009 455.264 146.009ZM473.469 134.818V138.511H464.126V134.818H473.469ZM465.935 131.42H471.032V144.439C471.032 144.636 471.066 144.802 471.134 144.938C471.201 145.067 471.306 145.165 471.447 145.233C471.589 145.295 471.771 145.325 471.992 145.325C472.146 145.325 472.325 145.307 472.528 145.27C472.737 145.233 472.891 145.202 472.989 145.178L473.728 148.76C473.5 148.828 473.174 148.911 472.749 149.009C472.331 149.108 471.832 149.172 471.254 149.203C470.084 149.265 469.102 149.145 468.308 148.843C467.514 148.535 466.917 148.052 466.517 147.393C466.117 146.735 465.923 145.91 465.935 144.919V131.42ZM475.549 149V134.818H480.646V149H475.549ZM478.098 133.341C477.408 133.341 476.817 133.113 476.325 132.658C475.832 132.202 475.586 131.654 475.586 131.014C475.586 130.374 475.832 129.826 476.325 129.371C476.817 128.915 477.408 128.688 478.098 128.688C478.793 128.688 479.384 128.915 479.87 129.371C480.363 129.826 480.609 130.374 480.609 131.014C480.609 131.654 480.363 132.202 479.87 132.658C479.384 133.113 478.793 133.341 478.098 133.341ZM487.194 149.222C486.289 149.222 485.489 149.074 484.794 148.778C484.104 148.477 483.563 148.021 483.169 147.412C482.775 146.803 482.578 146.027 482.578 145.085C482.578 144.31 482.71 143.648 482.975 143.1C483.239 142.546 483.609 142.094 484.083 141.743C484.557 141.392 485.108 141.124 485.735 140.94C486.369 140.755 487.053 140.635 487.785 140.58C488.579 140.518 489.216 140.444 489.696 140.358C490.183 140.266 490.534 140.139 490.749 139.979C490.964 139.813 491.072 139.595 491.072 139.324V139.287C491.072 138.918 490.931 138.634 490.647 138.438C490.364 138.241 490.001 138.142 489.558 138.142C489.072 138.142 488.675 138.25 488.367 138.465C488.065 138.674 487.884 138.998 487.822 139.435H483.132C483.193 138.573 483.467 137.779 483.954 137.053C484.446 136.32 485.163 135.735 486.105 135.298C487.047 134.855 488.222 134.634 489.632 134.634C490.647 134.634 491.558 134.754 492.365 134.994C493.171 135.228 493.857 135.557 494.424 135.982C494.99 136.4 495.421 136.893 495.716 137.459C496.018 138.019 496.169 138.628 496.169 139.287V149H491.404V147.006H491.294C491.011 147.535 490.666 147.963 490.26 148.289C489.86 148.615 489.401 148.852 488.884 149C488.373 149.148 487.81 149.222 487.194 149.222ZM488.856 146.009C489.244 146.009 489.607 145.929 489.946 145.768C490.29 145.608 490.57 145.378 490.786 145.076C491.001 144.774 491.109 144.408 491.109 143.977V142.795C490.974 142.851 490.829 142.903 490.675 142.952C490.527 143.002 490.367 143.048 490.195 143.091C490.029 143.134 489.85 143.174 489.659 143.211C489.475 143.248 489.281 143.282 489.078 143.312C488.684 143.374 488.361 143.476 488.108 143.617C487.862 143.753 487.677 143.922 487.554 144.125C487.437 144.322 487.379 144.544 487.379 144.79C487.379 145.184 487.517 145.485 487.794 145.695C488.071 145.904 488.425 146.009 488.856 146.009ZM503.7 141.023V149H498.604V134.818H503.442V137.514H503.59C503.897 136.616 504.439 135.911 505.215 135.4C505.996 134.889 506.907 134.634 507.948 134.634C508.951 134.634 509.822 134.864 510.561 135.326C511.305 135.781 511.881 136.409 512.287 137.21C512.7 138.01 512.903 138.924 512.897 139.952V149H507.8V141.023C507.806 140.321 507.628 139.77 507.264 139.37C506.907 138.97 506.409 138.77 505.769 138.77C505.35 138.77 504.984 138.862 504.67 139.047C504.362 139.225 504.125 139.484 503.959 139.822C503.793 140.155 503.707 140.555 503.7 141.023ZM519.364 149.222C518.459 149.222 517.659 149.074 516.964 148.778C516.274 148.477 515.733 148.021 515.339 147.412C514.945 146.803 514.748 146.027 514.748 145.085C514.748 144.31 514.88 143.648 515.145 143.1C515.409 142.546 515.779 142.094 516.253 141.743C516.727 141.392 517.278 141.124 517.905 140.94C518.539 140.755 519.223 140.635 519.955 140.58C520.749 140.518 521.386 140.444 521.866 140.358C522.353 140.266 522.703 140.139 522.919 139.979C523.134 139.813 523.242 139.595 523.242 139.324V139.287C523.242 138.918 523.1 138.634 522.817 138.438C522.534 138.241 522.171 138.142 521.728 138.142C521.242 138.142 520.845 138.25 520.537 138.465C520.235 138.674 520.054 138.998 519.992 139.435H515.302C515.363 138.573 515.637 137.779 516.123 137.053C516.616 136.32 517.333 135.735 518.275 135.298C519.216 134.855 520.392 134.634 521.802 134.634C522.817 134.634 523.728 134.754 524.535 134.994C525.341 135.228 526.027 135.557 526.594 135.982C527.16 136.4 527.591 136.893 527.886 137.459C528.188 138.019 528.339 138.628 528.339 139.287V149H523.574V147.006H523.464C523.18 147.535 522.836 147.963 522.43 148.289C522.029 148.615 521.571 148.852 521.054 149C520.543 149.148 519.98 149.222 519.364 149.222ZM521.026 146.009C521.414 146.009 521.777 145.929 522.116 145.768C522.46 145.608 522.74 145.378 522.956 145.076C523.171 144.774 523.279 144.408 523.279 143.977V142.795C523.144 142.851 522.999 142.903 522.845 142.952C522.697 143.002 522.537 143.048 522.365 143.091C522.199 143.134 522.02 143.174 521.829 143.211C521.645 143.248 521.451 143.282 521.248 143.312C520.854 143.374 520.531 143.476 520.278 143.617C520.032 143.753 519.847 143.922 519.724 144.125C519.607 144.322 519.549 144.544 519.549 144.79C519.549 145.184 519.687 145.485 519.964 145.695C520.241 145.904 520.595 146.009 521.026 146.009ZM536.683 130.091L536.203 143.091H531.993L531.512 130.091H536.683ZM534.098 149.295C533.384 149.295 532.771 149.046 532.26 148.548C531.756 148.043 531.506 147.43 531.512 146.71C531.506 146.009 531.756 145.408 532.26 144.91C532.771 144.411 533.384 144.162 534.098 144.162C534.775 144.162 535.372 144.411 535.889 144.91C536.412 145.408 536.677 146.009 536.683 146.71C536.677 147.19 536.551 147.627 536.304 148.021C536.064 148.409 535.75 148.72 535.363 148.954C534.975 149.182 534.553 149.295 534.098 149.295Z" fill="#39342D"/>
<path d="M316.991 168.955C316.94 168.523 316.733 168.188 316.369 167.949C316.006 167.71 315.56 167.591 315.031 167.591C314.645 167.591 314.307 167.653 314.017 167.778C313.73 167.903 313.506 168.075 313.344 168.294C313.185 168.513 313.105 168.761 313.105 169.04C313.105 169.273 313.16 169.473 313.271 169.641C313.385 169.805 313.53 169.943 313.706 170.054C313.882 170.162 314.067 170.251 314.26 170.322C314.453 170.391 314.631 170.446 314.793 170.489L315.679 170.727C315.906 170.787 316.159 170.869 316.437 170.974C316.719 171.08 316.987 171.223 317.243 171.405C317.501 171.584 317.714 171.814 317.882 172.095C318.05 172.376 318.133 172.722 318.133 173.131C318.133 173.602 318.01 174.028 317.763 174.409C317.518 174.79 317.16 175.092 316.689 175.317C316.22 175.541 315.651 175.653 314.98 175.653C314.355 175.653 313.814 175.553 313.356 175.351C312.902 175.149 312.544 174.868 312.283 174.507C312.024 174.146 311.878 173.727 311.844 173.25H312.935C312.963 173.58 313.074 173.852 313.267 174.068C313.463 174.281 313.71 174.44 314.008 174.545C314.31 174.648 314.633 174.699 314.98 174.699C315.383 174.699 315.746 174.634 316.067 174.503C316.388 174.369 316.642 174.185 316.829 173.949C317.017 173.71 317.111 173.432 317.111 173.114C317.111 172.824 317.03 172.588 316.868 172.406C316.706 172.224 316.493 172.077 316.229 171.963C315.964 171.849 315.679 171.75 315.372 171.665L314.298 171.358C313.616 171.162 313.077 170.882 312.679 170.518C312.281 170.155 312.082 169.679 312.082 169.091C312.082 168.602 312.214 168.176 312.479 167.812C312.746 167.446 313.104 167.162 313.552 166.96C314.004 166.756 314.508 166.653 315.065 166.653C315.628 166.653 316.128 166.754 316.565 166.956C317.003 167.155 317.349 167.428 317.605 167.774C317.864 168.121 318 168.514 318.014 168.955H316.991ZM322.394 175.636C321.803 175.636 321.284 175.496 320.838 175.214C320.395 174.933 320.049 174.54 319.799 174.034C319.551 173.528 319.428 172.937 319.428 172.261C319.428 171.58 319.551 170.984 319.799 170.476C320.049 169.967 320.395 169.572 320.838 169.291C321.284 169.01 321.803 168.869 322.394 168.869C322.985 168.869 323.502 169.01 323.945 169.291C324.391 169.572 324.738 169.967 324.985 170.476C325.235 170.984 325.36 171.58 325.36 172.261C325.36 172.937 325.235 173.528 324.985 174.034C324.738 174.54 324.391 174.933 323.945 175.214C323.502 175.496 322.985 175.636 322.394 175.636ZM322.394 174.733C322.843 174.733 323.212 174.618 323.502 174.388C323.791 174.158 324.006 173.855 324.145 173.48C324.284 173.105 324.354 172.699 324.354 172.261C324.354 171.824 324.284 171.416 324.145 171.038C324.006 170.661 323.791 170.355 323.502 170.122C323.212 169.889 322.843 169.773 322.394 169.773C321.945 169.773 321.576 169.889 321.286 170.122C320.996 170.355 320.782 170.661 320.642 171.038C320.503 171.416 320.434 171.824 320.434 172.261C320.434 172.699 320.503 173.105 320.642 173.48C320.782 173.855 320.996 174.158 321.286 174.388C321.576 174.618 321.945 174.733 322.394 174.733ZM329.81 168.955V169.807H326.281V168.955H329.81ZM327.338 175.5V168.051C327.338 167.676 327.426 167.364 327.602 167.114C327.778 166.864 328.007 166.676 328.288 166.551C328.57 166.426 328.866 166.364 329.179 166.364C329.426 166.364 329.628 166.384 329.784 166.423C329.94 166.463 330.057 166.5 330.133 166.534L329.844 167.403C329.793 167.386 329.722 167.365 329.631 167.339C329.543 167.314 329.426 167.301 329.281 167.301C328.949 167.301 328.709 167.385 328.561 167.553C328.416 167.72 328.344 167.966 328.344 168.29V175.5H327.338ZM334.066 168.955V169.807H330.674V168.955H334.066ZM331.662 167.386H332.668V173.625C332.668 173.909 332.709 174.122 332.791 174.264C332.877 174.403 332.985 174.497 333.115 174.545C333.249 174.591 333.389 174.614 333.537 174.614C333.648 174.614 333.739 174.608 333.81 174.597C333.881 174.582 333.938 174.571 333.98 174.562L334.185 175.466C334.117 175.491 334.022 175.517 333.899 175.543C333.777 175.571 333.622 175.585 333.435 175.585C333.151 175.585 332.872 175.524 332.6 175.402C332.33 175.28 332.105 175.094 331.926 174.844C331.75 174.594 331.662 174.278 331.662 173.898V167.386ZM337.061 175.5L335.067 168.955H336.124L337.539 173.966H337.607L339.005 168.955H340.078L341.459 173.949H341.527L342.942 168.955H343.999L342.005 175.5H341.016L339.584 170.472H339.482L338.05 175.5H337.061ZM347.255 175.653C346.84 175.653 346.463 175.575 346.125 175.419C345.787 175.26 345.519 175.031 345.32 174.733C345.121 174.432 345.022 174.068 345.022 173.642C345.022 173.267 345.095 172.963 345.243 172.73C345.391 172.494 345.588 172.31 345.836 172.176C346.083 172.043 346.355 171.943 346.654 171.878C346.955 171.81 347.257 171.756 347.561 171.716C347.959 171.665 348.282 171.626 348.529 171.601C348.779 171.572 348.961 171.526 349.074 171.46C349.191 171.395 349.249 171.281 349.249 171.119V171.085C349.249 170.665 349.134 170.338 348.904 170.105C348.676 169.872 348.331 169.756 347.868 169.756C347.388 169.756 347.012 169.861 346.739 170.071C346.466 170.281 346.274 170.506 346.164 170.744L345.209 170.403C345.38 170.006 345.607 169.696 345.891 169.474C346.178 169.25 346.49 169.094 346.828 169.006C347.169 168.915 347.505 168.869 347.834 168.869C348.044 168.869 348.286 168.895 348.559 168.946C348.834 168.994 349.1 169.095 349.355 169.249C349.614 169.402 349.828 169.634 349.999 169.943C350.169 170.253 350.255 170.668 350.255 171.188V175.5H349.249V174.614H349.198C349.13 174.756 349.016 174.908 348.857 175.07C348.698 175.232 348.486 175.369 348.222 175.483C347.958 175.597 347.635 175.653 347.255 175.653ZM347.408 174.75C347.806 174.75 348.141 174.672 348.414 174.516C348.689 174.359 348.897 174.158 349.036 173.911C349.178 173.663 349.249 173.403 349.249 173.131V172.21C349.206 172.261 349.113 172.308 348.968 172.351C348.826 172.391 348.661 172.426 348.473 172.457C348.289 172.486 348.108 172.511 347.932 172.534C347.759 172.554 347.618 172.571 347.51 172.585C347.249 172.619 347.005 172.675 346.777 172.751C346.553 172.825 346.371 172.937 346.232 173.088C346.095 173.236 346.027 173.437 346.027 173.693C346.027 174.043 346.157 174.307 346.415 174.486C346.676 174.662 347.007 174.75 347.408 174.75ZM352.09 175.5V168.955H353.062V169.943H353.13C353.249 169.619 353.465 169.357 353.778 169.155C354.09 168.953 354.442 168.852 354.834 168.852C354.908 168.852 355.001 168.854 355.111 168.857C355.222 168.859 355.306 168.864 355.363 168.869V169.892C355.329 169.884 355.251 169.871 355.128 169.854C355.009 169.834 354.883 169.824 354.749 169.824C354.431 169.824 354.147 169.891 353.897 170.024C353.65 170.155 353.454 170.337 353.309 170.57C353.167 170.8 353.096 171.062 353.096 171.358V175.5H352.09ZM359.1 175.636C358.469 175.636 357.925 175.497 357.468 175.219C357.013 174.938 356.663 174.545 356.415 174.043C356.171 173.537 356.049 172.949 356.049 172.278C356.049 171.608 356.171 171.017 356.415 170.506C356.663 169.991 357.006 169.591 357.447 169.304C357.89 169.014 358.407 168.869 358.998 168.869C359.339 168.869 359.675 168.926 360.008 169.04C360.34 169.153 360.643 169.338 360.915 169.594C361.188 169.847 361.405 170.182 361.567 170.599C361.729 171.017 361.81 171.531 361.81 172.142V172.568H356.765V171.699H360.788C360.788 171.33 360.714 171 360.566 170.71C360.421 170.42 360.214 170.192 359.944 170.024C359.677 169.857 359.361 169.773 358.998 169.773C358.597 169.773 358.251 169.872 357.958 170.071C357.668 170.267 357.445 170.523 357.289 170.838C357.133 171.153 357.055 171.491 357.055 171.852V172.432C357.055 172.926 357.14 173.345 357.31 173.689C357.484 174.03 357.724 174.29 358.03 174.469C358.337 174.645 358.694 174.733 359.1 174.733C359.364 174.733 359.603 174.696 359.816 174.622C360.032 174.545 360.218 174.432 360.374 174.281C360.53 174.128 360.651 173.937 360.736 173.71L361.708 173.983C361.606 174.312 361.434 174.602 361.192 174.852C360.951 175.099 360.653 175.293 360.298 175.432C359.942 175.568 359.543 175.636 359.1 175.636ZM366.851 175.5V166.773H372.119V167.71H367.908V170.659H371.846V171.597H367.908V174.562H372.187V175.5H366.851ZM374.893 171.562V175.5H373.887V168.955H374.859V169.977H374.944C375.097 169.645 375.33 169.378 375.643 169.176C375.955 168.972 376.359 168.869 376.853 168.869C377.296 168.869 377.684 168.96 378.016 169.142C378.349 169.321 378.607 169.594 378.792 169.96C378.976 170.324 379.069 170.784 379.069 171.341V175.5H378.063V171.409C378.063 170.895 377.93 170.494 377.663 170.207C377.396 169.918 377.029 169.773 376.563 169.773C376.242 169.773 375.955 169.842 375.702 169.982C375.452 170.121 375.255 170.324 375.11 170.591C374.965 170.858 374.893 171.182 374.893 171.562ZM383.549 178.091C383.063 178.091 382.645 178.028 382.296 177.903C381.946 177.781 381.655 177.619 381.422 177.418C381.192 177.219 381.009 177.006 380.872 176.778L381.674 176.216C381.764 176.335 381.88 176.472 382.019 176.625C382.158 176.781 382.348 176.916 382.59 177.03C382.834 177.146 383.154 177.205 383.549 177.205C384.077 177.205 384.513 177.077 384.857 176.821C385.201 176.565 385.372 176.165 385.372 175.619V174.29H385.287C385.213 174.409 385.108 174.557 384.972 174.733C384.838 174.906 384.645 175.061 384.392 175.197C384.142 175.331 383.804 175.398 383.378 175.398C382.85 175.398 382.375 175.273 381.955 175.023C381.537 174.773 381.206 174.409 380.962 173.932C380.72 173.455 380.6 172.875 380.6 172.193C380.6 171.523 380.718 170.939 380.953 170.442C381.189 169.942 381.517 169.555 381.938 169.283C382.358 169.007 382.844 168.869 383.395 168.869C383.821 168.869 384.159 168.94 384.409 169.082C384.662 169.222 384.855 169.381 384.989 169.56C385.125 169.736 385.23 169.881 385.304 169.994H385.407V168.955H386.378V175.688C386.378 176.25 386.25 176.707 385.995 177.06C385.742 177.415 385.401 177.675 384.972 177.839C384.546 178.007 384.071 178.091 383.549 178.091ZM383.514 174.494C383.918 174.494 384.259 174.402 384.537 174.217C384.816 174.033 385.027 173.767 385.172 173.42C385.317 173.074 385.389 172.659 385.389 172.176C385.389 171.705 385.318 171.288 385.176 170.928C385.034 170.567 384.824 170.284 384.546 170.08C384.267 169.875 383.924 169.773 383.514 169.773C383.088 169.773 382.733 169.881 382.449 170.097C382.168 170.312 381.956 170.602 381.814 170.966C381.675 171.33 381.605 171.733 381.605 172.176C381.605 172.631 381.676 173.033 381.818 173.382C381.963 173.729 382.176 174.001 382.458 174.2C382.742 174.396 383.094 174.494 383.514 174.494ZM388.219 175.5V168.955H389.225V175.5H388.219ZM388.73 167.864C388.534 167.864 388.365 167.797 388.223 167.663C388.084 167.53 388.014 167.369 388.014 167.182C388.014 166.994 388.084 166.834 388.223 166.7C388.365 166.567 388.534 166.5 388.73 166.5C388.926 166.5 389.094 166.567 389.233 166.7C389.375 166.834 389.446 166.994 389.446 167.182C389.446 167.369 389.375 167.53 389.233 167.663C389.094 167.797 388.926 167.864 388.73 167.864ZM392.072 171.562V175.5H391.067V168.955H392.038V169.977H392.124C392.277 169.645 392.51 169.378 392.822 169.176C393.135 168.972 393.538 168.869 394.033 168.869C394.476 168.869 394.864 168.96 395.196 169.142C395.528 169.321 395.787 169.594 395.972 169.96C396.156 170.324 396.249 170.784 396.249 171.341V175.5H395.243V171.409C395.243 170.895 395.109 170.494 394.842 170.207C394.575 169.918 394.209 169.773 393.743 169.773C393.422 169.773 393.135 169.842 392.882 169.982C392.632 170.121 392.435 170.324 392.29 170.591C392.145 170.858 392.072 171.182 392.072 171.562ZM400.831 175.636C400.2 175.636 399.656 175.497 399.198 175.219C398.744 174.938 398.393 174.545 398.146 174.043C397.902 173.537 397.779 172.949 397.779 172.278C397.779 171.608 397.902 171.017 398.146 170.506C398.393 169.991 398.737 169.591 399.177 169.304C399.62 169.014 400.137 168.869 400.728 168.869C401.069 168.869 401.406 168.926 401.738 169.04C402.071 169.153 402.373 169.338 402.646 169.594C402.919 169.847 403.136 170.182 403.298 170.599C403.46 171.017 403.541 171.531 403.541 172.142V172.568H398.495V171.699H402.518C402.518 171.33 402.444 171 402.296 170.71C402.152 170.42 401.944 170.192 401.674 170.024C401.407 169.857 401.092 169.773 400.728 169.773C400.328 169.773 399.981 169.872 399.688 170.071C399.399 170.267 399.176 170.523 399.019 170.838C398.863 171.153 398.785 171.491 398.785 171.852V172.432C398.785 172.926 398.87 173.345 399.041 173.689C399.214 174.03 399.454 174.29 399.761 174.469C400.068 174.645 400.424 174.733 400.831 174.733C401.095 174.733 401.333 174.696 401.546 174.622C401.762 174.545 401.948 174.432 402.105 174.281C402.261 174.128 402.382 173.937 402.467 173.71L403.438 173.983C403.336 174.312 403.164 174.602 402.923 174.852C402.681 175.099 402.383 175.293 402.028 175.432C401.673 175.568 401.274 175.636 400.831 175.636ZM407.815 175.636C407.184 175.636 406.64 175.497 406.183 175.219C405.728 174.938 405.377 174.545 405.13 174.043C404.886 173.537 404.764 172.949 404.764 172.278C404.764 171.608 404.886 171.017 405.13 170.506C405.377 169.991 405.721 169.591 406.162 169.304C406.605 169.014 407.122 168.869 407.713 168.869C408.054 168.869 408.39 168.926 408.723 169.04C409.055 169.153 409.358 169.338 409.63 169.594C409.903 169.847 410.12 170.182 410.282 170.599C410.444 171.017 410.525 171.531 410.525 172.142V172.568H405.48V171.699H409.502C409.502 171.33 409.429 171 409.281 170.71C409.136 170.42 408.929 170.192 408.659 170.024C408.392 169.857 408.076 169.773 407.713 169.773C407.312 169.773 406.965 169.872 406.673 170.071C406.383 170.267 406.16 170.523 406.004 170.838C405.848 171.153 405.769 171.491 405.769 171.852V172.432C405.769 172.926 405.855 173.345 406.025 173.689C406.198 174.03 406.438 174.29 406.745 174.469C407.052 174.645 407.409 174.733 407.815 174.733C408.079 174.733 408.318 174.696 408.531 174.622C408.747 174.545 408.933 174.432 409.089 174.281C409.245 174.128 409.366 173.937 409.451 173.71L410.423 173.983C410.321 174.312 410.149 174.602 409.907 174.852C409.666 175.099 409.367 175.293 409.012 175.432C408.657 175.568 408.258 175.636 407.815 175.636ZM412.055 175.5V168.955H413.027V169.943H413.095C413.214 169.619 413.43 169.357 413.742 169.155C414.055 168.953 414.407 168.852 414.799 168.852C414.873 168.852 414.965 168.854 415.076 168.857C415.187 168.859 415.271 168.864 415.328 168.869V169.892C415.294 169.884 415.215 169.871 415.093 169.854C414.974 169.834 414.848 169.824 414.714 169.824C414.396 169.824 414.112 169.891 413.862 170.024C413.615 170.155 413.419 170.337 413.274 170.57C413.132 170.8 413.061 171.062 413.061 171.358V175.5H412.055ZM420.031 175.5V166.773H421.037V169.994H421.122C421.196 169.881 421.298 169.736 421.429 169.56C421.562 169.381 421.753 169.222 422 169.082C422.25 168.94 422.588 168.869 423.014 168.869C423.565 168.869 424.051 169.007 424.472 169.283C424.892 169.558 425.22 169.949 425.456 170.455C425.692 170.96 425.81 171.557 425.81 172.244C425.81 172.938 425.692 173.538 425.456 174.047C425.22 174.553 424.893 174.945 424.476 175.223C424.058 175.499 423.577 175.636 423.031 175.636C422.611 175.636 422.274 175.567 422.021 175.428C421.768 175.286 421.574 175.125 421.437 174.946C421.301 174.764 421.196 174.614 421.122 174.494H421.003V175.5H420.031ZM421.02 172.227C421.02 172.722 421.092 173.158 421.237 173.536C421.382 173.911 421.594 174.205 421.872 174.418C422.151 174.628 422.491 174.733 422.895 174.733C423.315 174.733 423.666 174.622 423.947 174.401C424.231 174.176 424.445 173.875 424.587 173.497C424.731 173.116 424.804 172.693 424.804 172.227C424.804 171.767 424.733 171.352 424.591 170.983C424.452 170.611 424.24 170.317 423.956 170.101C423.675 169.882 423.321 169.773 422.895 169.773C422.486 169.773 422.142 169.876 421.864 170.084C421.585 170.288 421.375 170.575 421.233 170.945C421.091 171.311 421.02 171.739 421.02 172.227ZM429.274 175.653C428.859 175.653 428.483 175.575 428.145 175.419C427.807 175.26 427.538 175.031 427.339 174.733C427.141 174.432 427.041 174.068 427.041 173.642C427.041 173.267 427.115 172.963 427.263 172.73C427.41 172.494 427.608 172.31 427.855 172.176C428.102 172.043 428.375 171.943 428.673 171.878C428.974 171.81 429.277 171.756 429.581 171.716C429.979 171.665 430.301 171.626 430.548 171.601C430.798 171.572 430.98 171.526 431.094 171.46C431.21 171.395 431.268 171.281 431.268 171.119V171.085C431.268 170.665 431.153 170.338 430.923 170.105C430.696 169.872 430.351 169.756 429.888 169.756C429.408 169.756 429.031 169.861 428.758 170.071C428.486 170.281 428.294 170.506 428.183 170.744L427.229 170.403C427.399 170.006 427.626 169.696 427.91 169.474C428.197 169.25 428.51 169.094 428.848 169.006C429.189 168.915 429.524 168.869 429.854 168.869C430.064 168.869 430.305 168.895 430.578 168.946C430.854 168.994 431.119 169.095 431.375 169.249C431.633 169.402 431.848 169.634 432.018 169.943C432.189 170.253 432.274 170.668 432.274 171.188V175.5H431.268V174.614H431.217C431.149 174.756 431.035 174.908 430.876 175.07C430.717 175.232 430.506 175.369 430.241 175.483C429.977 175.597 429.655 175.653 429.274 175.653ZM429.427 174.75C429.825 174.75 430.16 174.672 430.433 174.516C430.709 174.359 430.916 174.158 431.055 173.911C431.197 173.663 431.268 173.403 431.268 173.131V172.21C431.226 172.261 431.132 172.308 430.987 172.351C430.845 172.391 430.68 172.426 430.493 172.457C430.308 172.486 430.128 172.511 429.952 172.534C429.778 172.554 429.638 172.571 429.53 172.585C429.268 172.619 429.024 172.675 428.797 172.751C428.572 172.825 428.391 172.937 428.251 173.088C428.115 173.236 428.047 173.437 428.047 173.693C428.047 174.043 428.176 174.307 428.435 174.486C428.696 174.662 429.027 174.75 429.427 174.75ZM438.746 170.42L437.843 170.676C437.786 170.526 437.702 170.379 437.591 170.237C437.483 170.092 437.336 169.973 437.148 169.879C436.961 169.786 436.72 169.739 436.428 169.739C436.027 169.739 435.693 169.831 435.426 170.016C435.162 170.197 435.03 170.429 435.03 170.71C435.03 170.96 435.121 171.158 435.303 171.303C435.485 171.447 435.769 171.568 436.155 171.665L437.127 171.903C437.712 172.045 438.148 172.263 438.435 172.555C438.722 172.845 438.865 173.219 438.865 173.676C438.865 174.051 438.757 174.386 438.541 174.682C438.328 174.977 438.03 175.21 437.647 175.381C437.263 175.551 436.817 175.636 436.309 175.636C435.641 175.636 435.088 175.491 434.651 175.202C434.213 174.912 433.936 174.489 433.82 173.932L434.774 173.693C434.865 174.045 435.037 174.31 435.29 174.486C435.546 174.662 435.88 174.75 436.291 174.75C436.76 174.75 437.132 174.651 437.408 174.452C437.686 174.25 437.826 174.009 437.826 173.727C437.826 173.5 437.746 173.31 437.587 173.156C437.428 173 437.184 172.884 436.854 172.807L435.763 172.551C435.164 172.409 434.723 172.189 434.442 171.891C434.164 171.589 434.024 171.213 434.024 170.761C434.024 170.392 434.128 170.065 434.336 169.781C434.546 169.497 434.831 169.274 435.192 169.112C435.556 168.95 435.968 168.869 436.428 168.869C437.076 168.869 437.584 169.011 437.953 169.295C438.326 169.58 438.59 169.955 438.746 170.42ZM443.124 175.636C442.493 175.636 441.949 175.497 441.491 175.219C441.037 174.938 440.686 174.545 440.439 174.043C440.195 173.537 440.072 172.949 440.072 172.278C440.072 171.608 440.195 171.017 440.439 170.506C440.686 169.991 441.03 169.591 441.47 169.304C441.913 169.014 442.43 168.869 443.021 168.869C443.362 168.869 443.699 168.926 444.031 169.04C444.364 169.153 444.666 169.338 444.939 169.594C445.212 169.847 445.429 170.182 445.591 170.599C445.753 171.017 445.834 171.531 445.834 172.142V172.568H440.788V171.699H444.811C444.811 171.33 444.737 171 444.589 170.71C444.445 170.42 444.237 170.192 443.967 170.024C443.7 169.857 443.385 169.773 443.021 169.773C442.621 169.773 442.274 169.872 441.981 170.071C441.692 170.267 441.469 170.523 441.312 170.838C441.156 171.153 441.078 171.491 441.078 171.852V172.432C441.078 172.926 441.163 173.345 441.334 173.689C441.507 174.03 441.747 174.29 442.054 174.469C442.361 174.645 442.717 174.733 443.124 174.733C443.388 174.733 443.626 174.696 443.839 174.622C444.055 174.545 444.241 174.432 444.398 174.281C444.554 174.128 444.675 173.937 444.76 173.71L445.731 173.983C445.629 174.312 445.457 174.602 445.216 174.852C444.974 175.099 444.676 175.293 444.321 175.432C443.966 175.568 443.567 175.636 443.124 175.636ZM449.835 175.636C449.29 175.636 448.808 175.499 448.391 175.223C447.973 174.945 447.646 174.553 447.41 174.047C447.175 173.538 447.057 172.938 447.057 172.244C447.057 171.557 447.175 170.96 447.41 170.455C447.646 169.949 447.974 169.558 448.395 169.283C448.815 169.007 449.301 168.869 449.852 168.869C450.278 168.869 450.615 168.94 450.862 169.082C451.112 169.222 451.302 169.381 451.433 169.56C451.567 169.736 451.67 169.881 451.744 169.994H451.829V166.773H452.835V175.5H451.864V174.494H451.744C451.67 174.614 451.565 174.764 451.429 174.946C451.293 175.125 451.098 175.286 450.845 175.428C450.592 175.567 450.256 175.636 449.835 175.636ZM449.972 174.733C450.375 174.733 450.716 174.628 450.994 174.418C451.273 174.205 451.484 173.911 451.629 173.536C451.774 173.158 451.847 172.722 451.847 172.227C451.847 171.739 451.776 171.311 451.633 170.945C451.491 170.575 451.281 170.288 451.003 170.084C450.724 169.876 450.381 169.773 449.972 169.773C449.545 169.773 449.19 169.882 448.906 170.101C448.625 170.317 448.413 170.611 448.271 170.983C448.132 171.352 448.062 171.767 448.062 172.227C448.062 172.693 448.133 173.116 448.276 173.497C448.42 173.875 448.633 174.176 448.915 174.401C449.199 174.622 449.551 174.733 449.972 174.733ZM458.192 175.5V168.955H459.197V175.5H458.192ZM458.703 167.864C458.507 167.864 458.338 167.797 458.196 167.663C458.057 167.53 457.987 167.369 457.987 167.182C457.987 166.994 458.057 166.834 458.196 166.7C458.338 166.567 458.507 166.5 458.703 166.5C458.899 166.5 459.067 166.567 459.206 166.7C459.348 166.834 459.419 166.994 459.419 167.182C459.419 167.369 459.348 167.53 459.206 167.663C459.067 167.797 458.899 167.864 458.703 167.864ZM462.045 171.562V175.5H461.039V168.955H462.011V169.977H462.096C462.25 169.645 462.483 169.378 462.795 169.176C463.108 168.972 463.511 168.869 464.005 168.869C464.448 168.869 464.836 168.96 465.169 169.142C465.501 169.321 465.76 169.594 465.944 169.96C466.129 170.324 466.221 170.784 466.221 171.341V175.5H465.215V171.409C465.215 170.895 465.082 170.494 464.815 170.207C464.548 169.918 464.181 169.773 463.715 169.773C463.394 169.773 463.108 169.842 462.855 169.982C462.605 170.121 462.407 170.324 462.262 170.591C462.117 170.858 462.045 171.182 462.045 171.562ZM471.928 175.5H470.82L474.025 166.773H475.116L478.32 175.5H477.212L474.604 168.153H474.536L471.928 175.5ZM472.337 172.091H476.803V173.028H472.337V172.091ZM479.543 175.5V168.955H480.515V169.977H480.6C480.736 169.628 480.957 169.357 481.261 169.163C481.565 168.967 481.93 168.869 482.356 168.869C482.788 168.869 483.147 168.967 483.434 169.163C483.724 169.357 483.95 169.628 484.111 169.977H484.18C484.347 169.639 484.599 169.371 484.934 169.172C485.269 168.97 485.671 168.869 486.14 168.869C486.725 168.869 487.204 169.053 487.576 169.419C487.948 169.783 488.134 170.349 488.134 171.119V175.5H487.128V171.119C487.128 170.636 486.996 170.291 486.732 170.084C486.468 169.876 486.157 169.773 485.799 169.773C485.339 169.773 484.982 169.912 484.729 170.19C484.476 170.466 484.35 170.815 484.35 171.239V175.5H483.327V171.017C483.327 170.645 483.207 170.345 482.965 170.118C482.724 169.888 482.413 169.773 482.032 169.773C481.771 169.773 481.526 169.842 481.299 169.982C481.075 170.121 480.893 170.314 480.753 170.561C480.617 170.805 480.549 171.088 480.549 171.409V175.5H479.543ZM494.609 170.42L493.706 170.676C493.649 170.526 493.565 170.379 493.454 170.237C493.347 170.092 493.199 169.973 493.011 169.879C492.824 169.786 492.584 169.739 492.291 169.739C491.891 169.739 491.557 169.831 491.29 170.016C491.026 170.197 490.893 170.429 490.893 170.71C490.893 170.96 490.984 171.158 491.166 171.303C491.348 171.447 491.632 171.568 492.018 171.665L492.99 171.903C493.575 172.045 494.011 172.263 494.298 172.555C494.585 172.845 494.729 173.219 494.729 173.676C494.729 174.051 494.621 174.386 494.405 174.682C494.192 174.977 493.893 175.21 493.51 175.381C493.126 175.551 492.68 175.636 492.172 175.636C491.504 175.636 490.952 175.491 490.514 175.202C490.077 174.912 489.8 174.489 489.683 173.932L490.638 173.693C490.729 174.045 490.901 174.31 491.153 174.486C491.409 174.662 491.743 174.75 492.155 174.75C492.624 174.75 492.996 174.651 493.271 174.452C493.55 174.25 493.689 174.009 493.689 173.727C493.689 173.5 493.609 173.31 493.45 173.156C493.291 173 493.047 172.884 492.717 172.807L491.626 172.551C491.027 172.409 490.587 172.189 490.305 171.891C490.027 171.589 489.888 171.213 489.888 170.761C489.888 170.392 489.991 170.065 490.199 169.781C490.409 169.497 490.695 169.274 491.055 169.112C491.419 168.95 491.831 168.869 492.291 168.869C492.939 168.869 493.447 169.011 493.817 169.295C494.189 169.58 494.453 169.955 494.609 170.42ZM499.089 168.955V169.807H495.697V168.955H499.089ZM496.686 167.386H497.691V173.625C497.691 173.909 497.733 174.122 497.815 174.264C497.9 174.403 498.008 174.497 498.139 174.545C498.272 174.591 498.413 174.614 498.561 174.614C498.671 174.614 498.762 174.608 498.833 174.597C498.904 174.582 498.961 174.571 499.004 174.562L499.208 175.466C499.14 175.491 499.045 175.517 498.923 175.543C498.801 175.571 498.646 175.585 498.458 175.585C498.174 175.585 497.896 175.524 497.623 175.402C497.353 175.28 497.129 175.094 496.95 174.844C496.774 174.594 496.686 174.278 496.686 173.898V167.386ZM503.276 175.636C502.645 175.636 502.101 175.497 501.644 175.219C501.189 174.938 500.838 174.545 500.591 174.043C500.347 173.537 500.225 172.949 500.225 172.278C500.225 171.608 500.347 171.017 500.591 170.506C500.838 169.991 501.182 169.591 501.622 169.304C502.066 169.014 502.583 168.869 503.174 168.869C503.514 168.869 503.851 168.926 504.184 169.04C504.516 169.153 504.818 169.338 505.091 169.594C505.364 169.847 505.581 170.182 505.743 170.599C505.905 171.017 505.986 171.531 505.986 172.142V172.568H500.941V171.699H504.963C504.963 171.33 504.889 171 504.742 170.71C504.597 170.42 504.389 170.192 504.12 170.024C503.853 169.857 503.537 169.773 503.174 169.773C502.773 169.773 502.426 169.872 502.134 170.071C501.844 170.267 501.621 170.523 501.465 170.838C501.309 171.153 501.23 171.491 501.23 171.852V172.432C501.23 172.926 501.316 173.345 501.486 173.689C501.659 174.03 501.899 174.29 502.206 174.469C502.513 174.645 502.87 174.733 503.276 174.733C503.54 174.733 503.779 174.696 503.992 174.622C504.208 174.545 504.394 174.432 504.55 174.281C504.706 174.128 504.827 173.937 504.912 173.71L505.884 173.983C505.782 174.312 505.61 174.602 505.368 174.852C505.127 175.099 504.828 175.293 504.473 175.432C504.118 175.568 503.719 175.636 503.276 175.636ZM507.516 175.5V168.955H508.488V169.943H508.556C508.675 169.619 508.891 169.357 509.203 169.155C509.516 168.953 509.868 168.852 510.26 168.852C510.334 168.852 510.426 168.854 510.537 168.857C510.648 168.859 510.732 168.864 510.789 168.869V169.892C510.755 169.884 510.676 169.871 510.554 169.854C510.435 169.834 510.309 169.824 510.175 169.824C509.857 169.824 509.573 169.891 509.323 170.024C509.076 170.155 508.88 170.337 508.735 170.57C508.593 170.8 508.522 171.062 508.522 171.358V175.5H507.516ZM514.253 175.636C513.708 175.636 513.226 175.499 512.809 175.223C512.391 174.945 512.064 174.553 511.828 174.047C511.593 173.538 511.475 172.938 511.475 172.244C511.475 171.557 511.593 170.96 511.828 170.455C512.064 169.949 512.392 169.558 512.813 169.283C513.233 169.007 513.719 168.869 514.27 168.869C514.696 168.869 515.033 168.94 515.28 169.082C515.53 169.222 515.72 169.381 515.851 169.56C515.985 169.736 516.088 169.881 516.162 169.994H516.247V166.773H517.253V175.5H516.282V174.494H516.162C516.088 174.614 515.983 174.764 515.847 174.946C515.711 175.125 515.516 175.286 515.263 175.428C515.01 175.567 514.674 175.636 514.253 175.636ZM514.389 174.733C514.793 174.733 515.134 174.628 515.412 174.418C515.691 174.205 515.902 173.911 516.047 173.536C516.192 173.158 516.264 172.722 516.264 172.227C516.264 171.739 516.193 171.311 516.051 170.945C515.909 170.575 515.699 170.288 515.421 170.084C515.142 169.876 514.799 169.773 514.389 169.773C513.963 169.773 513.608 169.882 513.324 170.101C513.043 170.317 512.831 170.611 512.689 170.983C512.55 171.352 512.48 171.767 512.48 172.227C512.48 172.693 512.551 173.116 512.693 173.497C512.838 173.875 513.051 174.176 513.333 174.401C513.617 174.622 513.969 174.733 514.389 174.733ZM521.161 175.653C520.746 175.653 520.37 175.575 520.032 175.419C519.693 175.26 519.425 175.031 519.226 174.733C519.027 174.432 518.928 174.068 518.928 173.642C518.928 173.267 519.002 172.963 519.149 172.73C519.297 172.494 519.495 172.31 519.742 172.176C519.989 172.043 520.262 171.943 520.56 171.878C520.861 171.81 521.164 171.756 521.468 171.716C521.865 171.665 522.188 171.626 522.435 171.601C522.685 171.572 522.867 171.526 522.98 171.46C523.097 171.395 523.155 171.281 523.155 171.119V171.085C523.155 170.665 523.04 170.338 522.81 170.105C522.583 169.872 522.238 169.756 521.774 169.756C521.294 169.756 520.918 169.861 520.645 170.071C520.372 170.281 520.181 170.506 520.07 170.744L519.115 170.403C519.286 170.006 519.513 169.696 519.797 169.474C520.084 169.25 520.397 169.094 520.735 169.006C521.076 168.915 521.411 168.869 521.74 168.869C521.951 168.869 522.192 168.895 522.465 168.946C522.74 168.994 523.006 169.095 523.262 169.249C523.52 169.402 523.735 169.634 523.905 169.943C524.076 170.253 524.161 170.668 524.161 171.188V175.5H523.155V174.614H523.104C523.036 174.756 522.922 174.908 522.763 175.07C522.604 175.232 522.392 175.369 522.128 175.483C521.864 175.597 521.541 175.653 521.161 175.653ZM521.314 174.75C521.712 174.75 522.047 174.672 522.32 174.516C522.595 174.359 522.803 174.158 522.942 173.911C523.084 173.663 523.155 173.403 523.155 173.131V172.21C523.113 172.261 523.019 172.308 522.874 172.351C522.732 172.391 522.567 172.426 522.38 172.457C522.195 172.486 522.014 172.511 521.838 172.534C521.665 172.554 521.524 172.571 521.416 172.585C521.155 172.619 520.911 172.675 520.684 172.751C520.459 172.825 520.277 172.937 520.138 173.088C520.002 173.236 519.934 173.437 519.934 173.693C519.934 174.043 520.063 174.307 520.321 174.486C520.583 174.662 520.914 174.75 521.314 174.75ZM525.996 175.5V168.955H526.968V169.977H527.053C527.19 169.628 527.41 169.357 527.714 169.163C528.018 168.967 528.383 168.869 528.809 168.869C529.241 168.869 529.6 168.967 529.887 169.163C530.177 169.357 530.403 169.628 530.565 169.977H530.633C530.8 169.639 531.052 169.371 531.387 169.172C531.722 168.97 532.124 168.869 532.593 168.869C533.178 168.869 533.657 169.053 534.029 169.419C534.401 169.783 534.587 170.349 534.587 171.119V175.5H533.582V171.119C533.582 170.636 533.45 170.291 533.185 170.084C532.921 169.876 532.61 169.773 532.252 169.773C531.792 169.773 531.435 169.912 531.182 170.19C530.93 170.466 530.803 170.815 530.803 171.239V175.5H529.78V171.017C529.78 170.645 529.66 170.345 529.418 170.118C529.177 169.888 528.866 169.773 528.485 169.773C528.224 169.773 527.979 169.842 527.752 169.982C527.528 170.121 527.346 170.314 527.207 170.561C527.07 170.805 527.002 171.088 527.002 171.409V175.5H525.996Z" fill="#554E44"/>
<g clip-path="url(#clip0_2001_30)">
<path d="M296.625 152.333C296.565 152.103 296.445 151.892 296.276 151.724C296.108 151.555 295.897 151.435 295.667 151.375L291.577 150.321C291.507 150.301 291.445 150.259 291.402 150.201C291.358 150.143 291.334 150.073 291.334 150C291.334 149.928 291.358 149.857 291.402 149.799C291.445 149.741 291.507 149.699 291.577 149.679L295.667 148.624C295.897 148.565 296.108 148.444 296.276 148.276C296.445 148.108 296.565 147.897 296.625 147.667L297.679 143.577C297.699 143.507 297.741 143.445 297.799 143.401C297.857 143.357 297.928 143.333 298 143.333C298.073 143.333 298.144 143.357 298.202 143.401C298.26 143.445 298.302 143.507 298.321 143.577L299.375 147.667C299.435 147.897 299.555 148.108 299.724 148.276C299.892 148.445 300.103 148.565 300.333 148.625L304.423 149.679C304.494 149.698 304.556 149.74 304.6 149.798C304.644 149.856 304.668 149.927 304.668 150C304.668 150.073 304.644 150.144 304.6 150.202C304.556 150.26 304.494 150.302 304.423 150.321L300.333 151.375C300.103 151.435 299.892 151.555 299.724 151.724C299.555 151.892 299.435 152.103 299.375 152.333L298.321 156.423C298.301 156.493 298.259 156.555 298.201 156.599C298.143 156.643 298.072 156.667 298 156.667C297.927 156.667 297.856 156.643 297.798 156.599C297.74 156.555 297.698 156.493 297.679 156.423L296.625 152.333Z" stroke="#FFD48A" stroke-linecap="round" stroke-linejoin="round"/>
<path d="M303.333 144V146.667" stroke="#FFD48A" stroke-linecap="round" stroke-linejoin="round"/>
<path d="M304.667 145.333H302" stroke="#FFD48A" stroke-linecap="round" stroke-linejoin="round"/>
<path d="M292.667 153.333V154.667" stroke="#FFD48A" stroke-linecap="round" stroke-linejoin="round"/>
<path d="M293.333 154H292" stroke="#FFD48A" stroke-linecap="round" stroke-linejoin="round"/>
</g>
<path d="M170.691 275.991C170.812 275.786 170.876 275.552 170.876 275.314C170.876 275.075 170.812 274.842 170.691 274.636L168.545 270.998C168.51 270.935 168.496 270.862 168.506 270.79C168.516 270.718 168.549 270.652 168.6 270.6C168.652 270.549 168.718 270.516 168.79 270.506C168.862 270.496 168.935 270.51 168.999 270.545L172.637 272.691C172.842 272.812 173.076 272.876 173.314 272.876C173.552 272.876 173.786 272.812 173.991 272.691L177.629 270.545C177.692 270.509 177.766 270.495 177.838 270.505C177.91 270.515 177.977 270.548 178.028 270.6C178.08 270.651 178.113 270.718 178.123 270.79C178.133 270.862 178.119 270.936 178.083 270.999L175.936 274.636C175.815 274.842 175.751 275.075 175.751 275.314C175.751 275.552 175.815 275.786 175.936 275.991L178.083 279.628C178.119 279.692 178.133 279.765 178.123 279.838C178.114 279.91 178.08 279.977 178.029 280.029C177.977 280.08 177.91 280.114 177.838 280.123C177.765 280.133 177.692 280.119 177.629 280.083L173.991 277.936C173.786 277.815 173.552 277.751 173.314 277.751C173.075 277.751 172.842 277.815 172.636 277.936L168.999 280.082C168.935 280.118 168.862 280.132 168.79 280.122C168.718 280.112 168.651 280.079 168.599 280.028C168.548 279.976 168.515 279.909 168.505 279.837C168.495 279.765 168.509 279.692 168.545 279.628L170.691 275.991Z" stroke="#FFD48A" stroke-linecap="round" stroke-linejoin="round"/>
<g clip-path="url(#clip1_2001_30)">
<path d="M421.625 277.333C421.565 277.103 421.445 276.892 421.276 276.724C421.108 276.555 420.897 276.435 420.667 276.375L416.577 275.321C416.507 275.301 416.445 275.259 416.402 275.201C416.358 275.143 416.334 275.073 416.334 275C416.334 274.928 416.358 274.857 416.402 274.799C416.445 274.741 416.507 274.699 416.577 274.679L420.667 273.624C420.897 273.565 421.108 273.444 421.276 273.276C421.445 273.108 421.565 272.897 421.625 272.667L422.679 268.577C422.699 268.507 422.741 268.445 422.799 268.401C422.857 268.357 422.928 268.333 423 268.333C423.073 268.333 423.144 268.357 423.202 268.401C423.26 268.445 423.302 268.507 423.321 268.577L424.375 272.667C424.435 272.897 424.555 273.108 424.724 273.276C424.892 273.445 425.103 273.565 425.333 273.625L429.423 274.679C429.494 274.698 429.556 274.74 429.6 274.798C429.644 274.856 429.668 274.927 429.668 275C429.668 275.073 429.644 275.144 429.6 275.202C429.556 275.26 429.494 275.302 429.423 275.321L425.333 276.375C425.103 276.435 424.892 276.555 424.724 276.724C424.555 276.892 424.435 277.103 424.375 277.333L423.321 281.423C423.301 281.493 423.259 281.555 423.201 281.599C423.143 281.643 423.072 281.667 423 281.667C422.927 281.667 422.856 281.643 422.798 281.599C422.74 281.555 422.698 281.493 422.679 281.423L421.625 277.333Z" stroke="#FFD48A" stroke-linecap="round" stroke-linejoin="round"/>
</g>
<g clip-path="url(#clip2_2001_30)">
<path d="M171.625 27.3334C171.565 27.1027 171.445 26.8922 171.276 26.7237C171.108 26.5552 170.897 26.4349 170.667 26.3754L166.577 25.3208C166.507 25.3009 166.445 25.2589 166.402 25.201C166.358 25.1432 166.334 25.0726 166.334 25.0001C166.334 24.9275 166.358 24.857 166.402 24.7991C166.445 24.7413 166.507 24.6992 166.577 24.6794L170.667 23.6241C170.897 23.5646 171.108 23.4445 171.276 23.2761C171.445 23.1078 171.565 22.8973 171.625 22.6668L172.679 18.5768C172.699 18.5067 172.741 18.445 172.799 18.401C172.857 18.357 172.928 18.3333 173 18.3333C173.073 18.3333 173.144 18.357 173.202 18.401C173.26 18.445 173.302 18.5067 173.321 18.5768L174.375 22.6668C174.435 22.8975 174.555 23.108 174.724 23.2765C174.892 23.445 175.103 23.5652 175.333 23.6248L179.423 24.6788C179.494 24.6982 179.556 24.7401 179.6 24.7981C179.644 24.8562 179.668 24.9271 179.668 25.0001C179.668 25.073 179.644 25.144 179.6 25.202C179.556 25.2601 179.494 25.302 179.423 25.3214L175.333 26.3754C175.103 26.4349 174.892 26.5552 174.724 26.7237C174.555 26.8922 174.435 27.1027 174.375 27.3334L173.321 31.4234C173.301 31.4935 173.259 31.5552 173.201 31.5992C173.143 31.6431 173.072 31.6669 173 31.6669C172.927 31.6669 172.856 31.6431 172.798 31.5992C172.74 31.5552 172.698 31.4935 172.679 31.4234L171.625 27.3334Z" stroke="#FFD48A" stroke-linecap="round" stroke-linejoin="round"/>
</g>
<path d="M420.691 25.9911C420.812 25.7859 420.876 25.552 420.876 25.3137C420.876 25.0755 420.812 24.8415 420.691 24.6363L418.545 20.9985C418.51 20.9351 418.496 20.862 418.506 20.7901C418.516 20.7183 418.549 20.6517 418.6 20.6004C418.652 20.5491 418.718 20.5159 418.79 20.5059C418.862 20.4959 418.935 20.5097 418.999 20.545L422.637 22.6908C422.842 22.8119 423.076 22.8757 423.314 22.8758C423.552 22.8759 423.786 22.8122 423.991 22.6913L427.629 20.545C427.692 20.5093 427.766 20.4954 427.838 20.5053C427.91 20.5152 427.977 20.5484 428.028 20.5998C428.08 20.6512 428.113 20.7181 428.123 20.7902C428.133 20.8622 428.119 20.9356 428.083 20.999L425.936 24.6363C425.815 24.8415 425.751 25.0755 425.751 25.3137C425.751 25.552 425.815 25.7859 425.936 25.9911L428.083 29.6285C428.119 29.6919 428.133 29.7655 428.123 29.8377C428.114 29.91 428.08 29.9771 428.029 30.0287C427.977 30.0803 427.91 30.1136 427.838 30.1233C427.765 30.1331 427.692 30.1189 427.629 30.0829L423.991 27.9361C423.786 27.8151 423.552 27.7512 423.314 27.7512C423.075 27.7512 422.842 27.8151 422.636 27.9361L418.999 30.0824C418.935 30.1181 418.862 30.1321 418.79 30.1222C418.718 30.1123 418.651 30.0791 418.599 30.0276C418.548 29.9762 418.515 29.9094 418.505 29.8373C418.495 29.7652 418.509 29.6919 418.545 29.6285L420.691 25.9911Z" stroke="#FFD48A" stroke-linecap="round" stroke-linejoin="round"/>
<g clip-path="url(#clip3_2001_30)">
<path d="M46.6247 152.333C46.5651 152.103 46.4449 151.892 46.2764 151.724C46.1079 151.555 45.8974 151.435 45.6667 151.375L41.5767 150.321C41.5069 150.301 41.4455 150.259 41.4017 150.201C41.358 150.143 41.3344 150.073 41.3344 150C41.3344 149.928 41.358 149.857 41.4017 149.799C41.4455 149.741 41.5069 149.699 41.5767 149.679L45.6667 148.624C45.8973 148.565 46.1078 148.444 46.2763 148.276C46.4447 148.108 46.565 147.897 46.6247 147.667L47.6793 143.577C47.6989 143.507 47.7409 143.445 47.7989 143.401C47.8568 143.357 47.9276 143.333 48.0003 143.333C48.0731 143.333 48.1438 143.357 48.2018 143.401C48.2597 143.445 48.3017 143.507 48.3213 143.577L49.3753 147.667C49.4349 147.897 49.5551 148.108 49.7236 148.276C49.8921 148.445 50.1026 148.565 50.3333 148.625L54.4233 149.679C54.4937 149.698 54.5557 149.74 54.5999 149.798C54.6441 149.856 54.668 149.927 54.668 150C54.668 150.073 54.6441 150.144 54.5999 150.202C54.5557 150.26 54.4937 150.302 54.4233 150.321L50.3333 151.375C50.1026 151.435 49.8921 151.555 49.7236 151.724C49.5551 151.892 49.4349 152.103 49.3753 152.333L48.3207 156.423C48.3011 156.493 48.2591 156.555 48.2011 156.599C48.1432 156.643 48.0724 156.667 47.9997 156.667C47.9269 156.667 47.8562 156.643 47.7982 156.599C47.7403 156.555 47.6983 156.493 47.6787 156.423L46.6247 152.333Z" stroke="#FFD48A" stroke-linecap="round" stroke-linejoin="round"/>
<path d="M53.3334 144V146.667" stroke="#FFD48A" stroke-linecap="round" stroke-linejoin="round"/>
<path d="M54.6667 145.333H52" stroke="#FFD48A" stroke-linecap="round" stroke-linejoin="round"/>
<path d="M42.6666 153.333V154.667" stroke="#FFD48A" stroke-linecap="round" stroke-linejoin="round"/>
<path d="M43.3333 154H42" stroke="#FFD48A" stroke-linecap="round" stroke-linejoin="round"/>
</g>
<g clip-path="url(#clip4_2001_30)">
<path d="M546.625 152.333C546.565 152.103 546.445 151.892 546.276 151.724C546.108 151.555 545.897 151.435 545.667 151.375L541.577 150.321C541.507 150.301 541.445 150.259 541.402 150.201C541.358 150.143 541.334 150.073 541.334 150C541.334 149.928 541.358 149.857 541.402 149.799C541.445 149.741 541.507 149.699 541.577 149.679L545.667 148.624C545.897 148.565 546.108 148.444 546.276 148.276C546.445 148.108 546.565 147.897 546.625 147.667L547.679 143.577C547.699 143.507 547.741 143.445 547.799 143.401C547.857 143.357 547.928 143.333 548 143.333C548.073 143.333 548.144 143.357 548.202 143.401C548.26 143.445 548.302 143.507 548.321 143.577L549.375 147.667C549.435 147.897 549.555 148.108 549.724 148.276C549.892 148.445 550.103 148.565 550.333 148.625L554.423 149.679C554.494 149.698 554.556 149.74 554.6 149.798C554.644 149.856 554.668 149.927 554.668 150C554.668 150.073 554.644 150.144 554.6 150.202C554.556 150.26 554.494 150.302 554.423 150.321L550.333 151.375C550.103 151.435 549.892 151.555 549.724 151.724C549.555 151.892 549.435 152.103 549.375 152.333L548.321 156.423C548.301 156.493 548.259 156.555 548.201 156.599C548.143 156.643 548.072 156.667 548 156.667C547.927 156.667 547.856 156.643 547.798 156.599C547.74 156.555 547.698 156.493 547.679 156.423L546.625 152.333Z" stroke="#FFD48A" stroke-linecap="round" stroke-linejoin="round"/>
<path d="M553.333 144V146.667" stroke="#FFD48A" stroke-linecap="round" stroke-linejoin="round"/>
<path d="M554.667 145.333H552" stroke="#FFD48A" stroke-linecap="round" stroke-linejoin="round"/>
<path d="M542.667 153.333V154.667" stroke="#FFD48A" stroke-linecap="round" stroke-linejoin="round"/>
<path d="M543.333 154H542" stroke="#FFD48A" stroke-linecap="round" stroke-linejoin="round"/>
</g>
<g clip-path="url(#clip5_2001_30)">
<path d="M796.625 152.333C796.565 152.103 796.445 151.892 796.276 151.724C796.108 151.555 795.897 151.435 795.667 151.375L791.577 150.321C791.507 150.301 791.445 150.259 791.402 150.201C791.358 150.143 791.334 150.073 791.334 150C791.334 149.928 791.358 149.857 791.402 149.799C791.445 149.741 791.507 149.699 791.577 149.679L795.667 148.624C795.897 148.565 796.108 148.444 796.276 148.276C796.445 148.108 796.565 147.897 796.625 147.667L797.679 143.577C797.699 143.507 797.741 143.445 797.799 143.401C797.857 143.357 797.927 143.333 798 143.333C798.073 143.333 798.144 143.357 798.202 143.401C798.26 143.445 798.302 143.507 798.321 143.577L799.375 147.667C799.435 147.897 799.555 148.108 799.723 148.276C799.892 148.445 800.102 148.565 800.333 148.625L804.423 149.679C804.494 149.698 804.556 149.74 804.6 149.798C804.644 149.856 804.668 149.927 804.668 150C804.668 150.073 804.644 150.144 804.6 150.202C804.556 150.26 804.494 150.302 804.423 150.321L800.333 151.375C800.102 151.435 799.892 151.555 799.723 151.724C799.555 151.892 799.435 152.103 799.375 152.333L798.321 156.423C798.301 156.493 798.259 156.555 798.201 156.599C798.143 156.643 798.072 156.667 798 156.667C797.927 156.667 797.856 156.643 797.798 156.599C797.74 156.555 797.698 156.493 797.679 156.423L796.625 152.333Z" stroke="#FFD48A" stroke-linecap="round" stroke-linejoin="round"/>
<path d="M803.333 144V146.667" stroke="#FFD48A" stroke-linecap="round" stroke-linejoin="round"/>
<path d="M804.667 145.333H802" stroke="#FFD48A" stroke-linecap="round" stroke-linejoin="round"/>
<path d="M792.667 153.333V154.667" stroke="#FFD48A" stroke-linecap="round" stroke-linejoin="round"/>
<path d="M793.333 154H792" stroke="#FFD48A" stroke-linecap="round" stroke-linejoin="round"/>
</g>
<path d="M670.691 275.991C670.812 275.786 670.876 275.552 670.876 275.314C670.876 275.075 670.812 274.842 670.691 274.636L668.545 270.998C668.51 270.935 668.496 270.862 668.506 270.79C668.516 270.718 668.549 270.652 668.6 270.6C668.652 270.549 668.718 270.516 668.79 270.506C668.862 270.496 668.935 270.51 668.998 270.545L672.637 272.691C672.842 272.812 673.076 272.876 673.314 272.876C673.552 272.876 673.786 272.812 673.991 272.691L677.629 270.545C677.692 270.509 677.766 270.495 677.838 270.505C677.91 270.515 677.977 270.548 678.028 270.6C678.079 270.651 678.113 270.718 678.123 270.79C678.132 270.862 678.118 270.936 678.083 270.999L675.936 274.636C675.815 274.842 675.751 275.075 675.751 275.314C675.751 275.552 675.815 275.786 675.936 275.991L678.083 279.628C678.119 279.692 678.133 279.765 678.123 279.838C678.113 279.91 678.08 279.977 678.029 280.029C677.977 280.08 677.91 280.114 677.838 280.123C677.765 280.133 677.692 280.119 677.628 280.083L673.991 277.936C673.786 277.815 673.552 277.751 673.314 277.751C673.075 277.751 672.841 277.815 672.636 277.936L668.998 280.082C668.935 280.118 668.862 280.132 668.79 280.122C668.718 280.112 668.651 280.079 668.599 280.028C668.548 279.976 668.515 279.909 668.505 279.837C668.495 279.765 668.509 279.692 668.544 279.628L670.691 275.991Z" stroke="#FFD48A" stroke-linecap="round" stroke-linejoin="round"/>
<g clip-path="url(#clip6_2001_30)">
<path d="M671.625 27.3334C671.565 27.1027 671.445 26.8922 671.276 26.7237C671.108 26.5552 670.897 26.4349 670.667 26.3754L666.577 25.3208C666.507 25.3009 666.445 25.2589 666.402 25.201C666.358 25.1432 666.334 25.0726 666.334 25.0001C666.334 24.9275 666.358 24.857 666.402 24.7991C666.445 24.7413 666.507 24.6992 666.577 24.6794L670.667 23.6241C670.897 23.5646 671.108 23.4445 671.276 23.2761C671.445 23.1078 671.565 22.8973 671.625 22.6668L672.679 18.5768C672.699 18.5067 672.741 18.445 672.799 18.401C672.857 18.357 672.927 18.3333 673 18.3333C673.073 18.3333 673.144 18.357 673.202 18.401C673.26 18.445 673.302 18.5067 673.321 18.5768L674.375 22.6668C674.435 22.8975 674.555 23.108 674.723 23.2765C674.892 23.445 675.102 23.5652 675.333 23.6248L679.423 24.6788C679.494 24.6982 679.556 24.7401 679.6 24.7981C679.644 24.8562 679.668 24.9271 679.668 25.0001C679.668 25.073 679.644 25.144 679.6 25.202C679.556 25.2601 679.494 25.302 679.423 25.3214L675.333 26.3754C675.102 26.4349 674.892 26.5552 674.723 26.7237C674.555 26.8922 674.435 27.1027 674.375 27.3334L673.321 31.4234C673.301 31.4935 673.259 31.5552 673.201 31.5992C673.143 31.6431 673.072 31.6669 673 31.6669C672.927 31.6669 672.856 31.6431 672.798 31.5992C672.74 31.5552 672.698 31.4935 672.679 31.4234L671.625 27.3334Z" stroke="#FFD48A" stroke-linecap="round" stroke-linejoin="round"/>
</g>
<defs>
<clipPath id="clip0_2001_30">
<rect width="16" height="16" fill="white" transform="translate(290 142)"/>
</clipPath>
<clipPath id="clip1_2001_30">
<rect width="16" height="16" fill="white" transform="translate(415 267)"/>
</clipPath>
<clipPath id="clip2_2001_30">
<rect width="16" height="16" fill="white" transform="translate(165 17)"/>
</clipPath>
<clipPath id="clip3_2001_30">
<rect width="16" height="16" fill="white" transform="translate(40 142)"/>
</clipPath>
<clipPath id="clip4_2001_30">
<rect width="16" height="16" fill="white" transform="translate(540 142)"/>
</clipPath>
<clipPath id="clip5_2001_30">
<rect width="16" height="16" fill="white" transform="translate(790 142)"/>
</clipPath>
<clipPath id="clip6_2001_30">
<rect width="16" height="16" fill="white" transform="translate(665 17)"/>
</clipPath>
</defs>
</svg>
