<svg width="450" height="300" viewBox="0 0 450 300" fill="none" xmlns="http://www.w3.org/2000/svg">
<g clip-path="url(#clip0_2001_601)">
<rect width="450" height="300" rx="24" fill="#39342D"/>
<g clip-path="url(#clip1_2001_601)">
<path d="M98.6245 152.333C98.565 152.103 98.4448 151.892 98.2763 151.724C98.1078 151.555 97.8973 151.435 97.6665 151.375L93.5765 150.321C93.5068 150.301 93.4454 150.259 93.4016 150.201C93.3579 150.143 93.3342 150.073 93.3342 150C93.3342 149.928 93.3579 149.857 93.4016 149.799C93.4454 149.741 93.5068 149.699 93.5765 149.679L97.6665 148.624C97.8972 148.565 98.1077 148.444 98.2761 148.276C98.4446 148.108 98.5649 147.897 98.6245 147.667L99.6792 143.577C99.6988 143.507 99.7408 143.445 99.7988 143.401C99.8567 143.357 99.9275 143.333 100 143.333C100.073 143.333 100.144 143.357 100.202 143.401C100.26 143.445 100.302 143.507 100.321 143.577L101.375 147.667C101.435 147.897 101.555 148.108 101.723 148.276C101.892 148.445 102.102 148.565 102.333 148.625L106.423 149.679C106.494 149.698 106.556 149.74 106.6 149.798C106.644 149.856 106.668 149.927 106.668 150C106.668 150.073 106.644 150.144 106.6 150.202C106.556 150.26 106.494 150.302 106.423 150.321L102.333 151.375C102.102 151.435 101.892 151.555 101.723 151.724C101.555 151.892 101.435 152.103 101.375 152.333L100.321 156.423C100.301 156.493 100.259 156.555 100.201 156.599C100.143 156.643 100.072 156.667 99.9995 156.667C99.9268 156.667 99.8561 156.643 99.7981 156.599C99.7401 156.555 99.6982 156.493 99.6785 156.423L98.6245 152.333Z" stroke="#554E44" stroke-linecap="round" stroke-linejoin="round"/>
<path d="M105.333 144V146.667" stroke="#554E44" stroke-linecap="round" stroke-linejoin="round"/>
<path d="M106.667 145.333H104" stroke="#554E44" stroke-linecap="round" stroke-linejoin="round"/>
<path d="M94.6667 153.333V154.667" stroke="#554E44" stroke-linecap="round" stroke-linejoin="round"/>
<path d="M95.3333 154H94" stroke="#554E44" stroke-linecap="round" stroke-linejoin="round"/>
</g>
<g clip-path="url(#clip2_2001_601)">
<path d="M223.625 277.333C223.565 277.103 223.445 276.892 223.276 276.724C223.108 276.555 222.897 276.435 222.667 276.375L218.577 275.321C218.507 275.301 218.445 275.259 218.402 275.201C218.358 275.143 218.334 275.073 218.334 275C218.334 274.928 218.358 274.857 218.402 274.799C218.445 274.741 218.507 274.699 218.577 274.679L222.667 273.624C222.897 273.565 223.108 273.444 223.276 273.276C223.445 273.108 223.565 272.897 223.625 272.667L224.679 268.577C224.699 268.507 224.741 268.445 224.799 268.401C224.857 268.357 224.927 268.333 225 268.333C225.073 268.333 225.144 268.357 225.202 268.401C225.26 268.445 225.302 268.507 225.321 268.577L226.375 272.667C226.435 272.897 226.555 273.108 226.723 273.276C226.892 273.445 227.102 273.565 227.333 273.625L231.423 274.679C231.494 274.698 231.556 274.74 231.6 274.798C231.644 274.856 231.668 274.927 231.668 275C231.668 275.073 231.644 275.144 231.6 275.202C231.556 275.26 231.494 275.302 231.423 275.321L227.333 276.375C227.102 276.435 226.892 276.555 226.723 276.724C226.555 276.892 226.435 277.103 226.375 277.333L225.321 281.423C225.301 281.493 225.259 281.555 225.201 281.599C225.143 281.643 225.072 281.667 225 281.667C224.927 281.667 224.856 281.643 224.798 281.599C224.74 281.555 224.698 281.493 224.679 281.423L223.625 277.333Z" stroke="#554E44" stroke-linecap="round" stroke-linejoin="round"/>
</g>
<path d="M222.691 25.9911C222.812 25.7859 222.876 25.552 222.876 25.3137C222.876 25.0755 222.812 24.8415 222.691 24.6363L220.545 20.9985C220.51 20.9351 220.496 20.862 220.506 20.7901C220.516 20.7183 220.549 20.6517 220.6 20.6004C220.652 20.5491 220.718 20.5159 220.79 20.5059C220.862 20.4959 220.935 20.5097 220.998 20.545L224.637 22.6908C224.842 22.8119 225.076 22.8757 225.314 22.8758C225.552 22.8759 225.786 22.8122 225.991 22.6913L229.629 20.545C229.692 20.5093 229.766 20.4954 229.838 20.5053C229.91 20.5152 229.977 20.5484 230.028 20.5998C230.079 20.6512 230.113 20.7181 230.123 20.7902C230.132 20.8622 230.118 20.9356 230.083 20.999L227.936 24.6363C227.815 24.8415 227.751 25.0755 227.751 25.3137C227.751 25.552 227.815 25.7859 227.936 25.9911L230.083 29.6285C230.119 29.6919 230.133 29.7655 230.123 29.8377C230.113 29.91 230.08 29.9771 230.029 30.0287C229.977 30.0803 229.91 30.1136 229.838 30.1233C229.765 30.1331 229.692 30.1189 229.628 30.0829L225.991 27.9361C225.786 27.8151 225.552 27.7512 225.314 27.7512C225.075 27.7512 224.841 27.8151 224.636 27.9361L220.998 30.0824C220.935 30.1181 220.862 30.1321 220.79 30.1222C220.718 30.1123 220.651 30.0791 220.599 30.0276C220.548 29.9762 220.515 29.9094 220.505 29.8373C220.495 29.7652 220.509 29.6919 220.544 29.6285L222.691 25.9911Z" stroke="#554E44" stroke-linecap="round" stroke-linejoin="round"/>
<g clip-path="url(#clip3_2001_601)">
<path d="M348.625 152.333C348.565 152.103 348.445 151.892 348.276 151.724C348.108 151.555 347.897 151.435 347.667 151.375L343.577 150.321C343.507 150.301 343.445 150.259 343.402 150.201C343.358 150.143 343.334 150.073 343.334 150C343.334 149.928 343.358 149.857 343.402 149.799C343.445 149.741 343.507 149.699 343.577 149.679L347.667 148.624C347.897 148.565 348.108 148.444 348.276 148.276C348.445 148.108 348.565 147.897 348.625 147.667L349.679 143.577C349.699 143.507 349.741 143.445 349.799 143.401C349.857 143.357 349.927 143.333 350 143.333C350.073 143.333 350.144 143.357 350.202 143.401C350.26 143.445 350.302 143.507 350.321 143.577L351.375 147.667C351.435 147.897 351.555 148.108 351.723 148.276C351.892 148.445 352.102 148.565 352.333 148.625L356.423 149.679C356.494 149.698 356.556 149.74 356.6 149.798C356.644 149.856 356.668 149.927 356.668 150C356.668 150.073 356.644 150.144 356.6 150.202C356.556 150.26 356.494 150.302 356.423 150.321L352.333 151.375C352.102 151.435 351.892 151.555 351.723 151.724C351.555 151.892 351.435 152.103 351.375 152.333L350.321 156.423C350.301 156.493 350.259 156.555 350.201 156.599C350.143 156.643 350.072 156.667 350 156.667C349.927 156.667 349.856 156.643 349.798 156.599C349.74 156.555 349.698 156.493 349.679 156.423L348.625 152.333Z" stroke="#554E44" stroke-linecap="round" stroke-linejoin="round"/>
<path d="M355.333 144V146.667" stroke="#554E44" stroke-linecap="round" stroke-linejoin="round"/>
<path d="M356.667 145.333H354" stroke="#554E44" stroke-linecap="round" stroke-linejoin="round"/>
<path d="M344.667 153.333V154.667" stroke="#554E44" stroke-linecap="round" stroke-linejoin="round"/>
<path d="M345.333 154H344" stroke="#554E44" stroke-linecap="round" stroke-linejoin="round"/>
</g>
<path d="M113.5 134.167C113.5 129.5 116.833 126.167 122.167 126.167C128.833 126.167 128.607 130.167 132.167 132.833C135.727 135.5 138.833 135.5 138.833 140.833C138.833 146.833 135.5 149.5 129.5 149.5C126.167 149.5 126.167 152.833 121.5 152.833C116.833 152.833 112.167 150.167 112.167 145.5C112.167 141.5 114.167 141.5 114.167 138.833C114.167 136.833 113.5 135.5 113.5 134.167Z" fill="white" stroke="#2B2823" stroke-width="3" stroke-linecap="round" stroke-linejoin="round"/>
<path d="M124.833 144.833C127.411 144.833 129.5 142.744 129.5 140.167C129.5 137.589 127.411 135.5 124.833 135.5C122.256 135.5 120.167 137.589 120.167 140.167C120.167 142.744 122.256 144.833 124.833 144.833Z" fill="#FFAF24" stroke="#39342D" stroke-width="2" stroke-linecap="round" stroke-linejoin="round"/>
<path d="M152.829 149V130.091H157.963V137.477H164.758V130.091H169.892V149H164.758V141.614H157.963V149H152.829ZM172.403 149V134.818H177.5V149H172.403ZM174.951 133.341C174.262 133.341 173.671 133.113 173.179 132.658C172.686 132.202 172.44 131.654 172.44 131.014C172.44 130.374 172.686 129.826 173.179 129.371C173.671 128.915 174.262 128.688 174.951 128.688C175.647 128.688 176.238 128.915 176.724 129.371C177.216 129.826 177.463 130.374 177.463 131.014C177.463 131.654 177.216 132.202 176.724 132.658C176.238 133.113 175.647 133.341 174.951 133.341ZM185.045 146.415L184.971 147.449C184.91 148.335 184.762 149.185 184.528 149.997C184.3 150.81 184.057 151.53 183.799 152.158C183.546 152.786 183.346 153.272 183.199 153.616H180.059C180.158 153.272 180.296 152.773 180.475 152.121C180.66 151.474 180.826 150.742 180.973 149.923C181.127 149.111 181.204 148.286 181.204 147.449V146.415H185.045ZM197.14 130.091V149H192.007V130.091H197.14ZM203.857 130.091V132.307C203.857 132.91 203.734 133.513 203.488 134.116C203.248 134.714 202.94 135.271 202.565 135.788C202.195 136.299 201.814 136.726 201.42 137.071L199.315 136C199.573 135.557 199.804 135.043 200.007 134.458C200.21 133.873 200.312 133.156 200.312 132.307V130.091H203.857ZM205.766 149V134.818H210.604V137.514H210.752C211.047 136.628 211.552 135.926 212.266 135.409C212.98 134.892 213.83 134.634 214.815 134.634C215.812 134.634 216.67 134.898 217.391 135.428C218.111 135.951 218.545 136.646 218.692 137.514H218.84C219.08 136.646 219.591 135.951 220.373 135.428C221.155 134.898 222.072 134.634 223.124 134.634C224.485 134.634 225.586 135.071 226.43 135.945C227.279 136.819 227.704 137.982 227.704 139.435V149H222.607V140.727C222.607 140.106 222.45 139.619 222.136 139.268C221.822 138.911 221.401 138.733 220.871 138.733C220.348 138.733 219.933 138.911 219.625 139.268C219.323 139.619 219.172 140.106 219.172 140.727V149H214.297V140.727C214.297 140.106 214.141 139.619 213.827 139.268C213.513 138.911 213.091 138.733 212.562 138.733C212.211 138.733 211.909 138.813 211.657 138.973C211.405 139.133 211.208 139.364 211.066 139.665C210.931 139.961 210.863 140.315 210.863 140.727V149H205.766ZM234.806 134.227V130.091H251.241V134.227H245.553V149H240.494V134.227H234.806ZM255.269 149.222C254.364 149.222 253.564 149.074 252.868 148.778C252.179 148.477 251.637 148.021 251.243 147.412C250.849 146.803 250.652 146.027 250.652 145.085C250.652 144.31 250.785 143.648 251.049 143.1C251.314 142.546 251.683 142.094 252.157 141.743C252.631 141.392 253.182 141.124 253.81 140.94C254.444 140.755 255.127 140.635 255.86 140.58C256.654 140.518 257.291 140.444 257.771 140.358C258.257 140.266 258.608 140.139 258.823 139.979C259.039 139.813 259.147 139.595 259.147 139.324V139.287C259.147 138.918 259.005 138.634 258.722 138.438C258.439 138.241 258.076 138.142 257.632 138.142C257.146 138.142 256.749 138.25 256.441 138.465C256.14 138.674 255.958 138.998 255.897 139.435H251.206C251.268 138.573 251.542 137.779 252.028 137.053C252.52 136.32 253.237 135.735 254.179 135.298C255.121 134.855 256.297 134.634 257.706 134.634C258.722 134.634 259.633 134.754 260.439 134.994C261.246 135.228 261.932 135.557 262.498 135.982C263.064 136.4 263.495 136.893 263.791 137.459C264.092 138.019 264.243 138.628 264.243 139.287V149H259.479V147.006H259.368C259.085 147.535 258.74 147.963 258.334 148.289C257.934 148.615 257.475 148.852 256.958 149C256.447 149.148 255.884 149.222 255.269 149.222ZM256.931 146.009C257.318 146.009 257.682 145.929 258.02 145.768C258.365 145.608 258.645 145.378 258.86 145.076C259.076 144.774 259.184 144.408 259.184 143.977V142.795C259.048 142.851 258.903 142.903 258.75 142.952C258.602 143.002 258.442 143.048 258.269 143.091C258.103 143.134 257.925 143.174 257.734 143.211C257.549 143.248 257.355 143.282 257.152 143.312C256.758 143.374 256.435 143.476 256.183 143.617C255.937 143.753 255.752 143.922 255.629 144.125C255.512 144.322 255.453 144.544 255.453 144.79C255.453 145.184 255.592 145.485 255.869 145.695C256.146 145.904 256.5 146.009 256.931 146.009ZM275.136 134.818V138.511H265.792V134.818H275.136ZM267.602 131.42H272.698V144.439C272.698 144.636 272.732 144.802 272.8 144.938C272.868 145.067 272.972 145.165 273.114 145.233C273.255 145.295 273.437 145.325 273.658 145.325C273.812 145.325 273.991 145.307 274.194 145.27C274.403 145.233 274.557 145.202 274.656 145.178L275.394 148.76C275.167 148.828 274.84 148.911 274.416 149.009C273.997 149.108 273.498 149.172 272.92 149.203C271.75 149.265 270.769 149.145 269.975 148.843C269.18 148.535 268.583 148.052 268.183 147.393C267.783 146.735 267.589 145.91 267.602 144.919V131.42ZM277.215 149V134.818H282.312V149H277.215ZM279.764 133.341C279.074 133.341 278.483 133.113 277.991 132.658C277.499 132.202 277.252 131.654 277.252 131.014C277.252 130.374 277.499 129.826 277.991 129.371C278.483 128.915 279.074 128.688 279.764 128.688C280.459 128.688 281.05 128.915 281.536 129.371C282.029 129.826 282.275 130.374 282.275 131.014C282.275 131.654 282.029 132.202 281.536 132.658C281.05 133.113 280.459 133.341 279.764 133.341ZM288.861 149.222C287.956 149.222 287.156 149.074 286.46 148.778C285.771 148.477 285.229 148.021 284.835 147.412C284.441 146.803 284.244 146.027 284.244 145.085C284.244 144.31 284.376 143.648 284.641 143.1C284.906 142.546 285.275 142.094 285.749 141.743C286.223 141.392 286.774 141.124 287.402 140.94C288.036 140.755 288.719 140.635 289.451 140.58C290.245 140.518 290.883 140.444 291.363 140.358C291.849 140.266 292.2 140.139 292.415 139.979C292.631 139.813 292.738 139.595 292.738 139.324V139.287C292.738 138.918 292.597 138.634 292.314 138.438C292.031 138.241 291.667 138.142 291.224 138.142C290.738 138.142 290.341 138.25 290.033 138.465C289.732 138.674 289.55 138.998 289.488 139.435H284.798C284.86 138.573 285.133 137.779 285.62 137.053C286.112 136.32 286.829 135.735 287.771 135.298C288.713 134.855 289.888 134.634 291.298 134.634C292.314 134.634 293.225 134.754 294.031 134.994C294.837 135.228 295.524 135.557 296.09 135.982C296.656 136.4 297.087 136.893 297.383 137.459C297.684 138.019 297.835 138.628 297.835 139.287V149H293.071V147.006H292.96C292.677 147.535 292.332 147.963 291.926 148.289C291.526 148.615 291.067 148.852 290.55 149C290.039 149.148 289.476 149.222 288.861 149.222ZM290.522 146.009C290.91 146.009 291.273 145.929 291.612 145.768C291.957 145.608 292.237 145.378 292.452 145.076C292.668 144.774 292.775 144.408 292.775 143.977V142.795C292.64 142.851 292.495 142.903 292.341 142.952C292.194 143.002 292.034 143.048 291.861 143.091C291.695 143.134 291.517 143.174 291.326 143.211C291.141 143.248 290.947 143.282 290.744 143.312C290.35 143.374 290.027 143.476 289.775 143.617C289.528 143.753 289.344 143.922 289.221 144.125C289.104 144.322 289.045 144.544 289.045 144.79C289.045 145.184 289.184 145.485 289.461 145.695C289.738 145.904 290.092 146.009 290.522 146.009ZM305.367 141.023V149H300.27V134.818H305.108V137.514H305.256C305.564 136.616 306.105 135.911 306.881 135.4C307.663 134.889 308.574 134.634 309.614 134.634C310.617 134.634 311.488 134.864 312.227 135.326C312.972 135.781 313.547 136.409 313.953 137.21C314.366 138.01 314.569 138.924 314.563 139.952V149H309.466V141.023C309.472 140.321 309.294 139.77 308.931 139.37C308.574 138.97 308.075 138.77 307.435 138.77C307.016 138.77 306.65 138.862 306.336 139.047C306.028 139.225 305.791 139.484 305.625 139.822C305.459 140.155 305.373 140.555 305.367 141.023ZM321.03 149.222C320.126 149.222 319.325 149.074 318.63 148.778C317.94 148.477 317.399 148.021 317.005 147.412C316.611 146.803 316.414 146.027 316.414 145.085C316.414 144.31 316.546 143.648 316.811 143.1C317.076 142.546 317.445 142.094 317.919 141.743C318.393 141.392 318.944 141.124 319.572 140.94C320.206 140.755 320.889 140.635 321.621 140.58C322.415 140.518 323.052 140.444 323.533 140.358C324.019 140.266 324.37 140.139 324.585 139.979C324.801 139.813 324.908 139.595 324.908 139.324V139.287C324.908 138.918 324.767 138.634 324.484 138.438C324.2 138.241 323.837 138.142 323.394 138.142C322.908 138.142 322.511 138.25 322.203 138.465C321.901 138.674 321.72 138.998 321.658 139.435H316.968C317.03 138.573 317.303 137.779 317.79 137.053C318.282 136.32 318.999 135.735 319.941 135.298C320.883 134.855 322.058 134.634 323.468 134.634C324.484 134.634 325.395 134.754 326.201 134.994C327.007 135.228 327.694 135.557 328.26 135.982C328.826 136.4 329.257 136.893 329.552 137.459C329.854 138.019 330.005 138.628 330.005 139.287V149H325.241V147.006H325.13C324.847 147.535 324.502 147.963 324.096 148.289C323.696 148.615 323.237 148.852 322.72 149C322.209 149.148 321.646 149.222 321.03 149.222ZM322.692 146.009C323.08 146.009 323.443 145.929 323.782 145.768C324.127 145.608 324.407 145.378 324.622 145.076C324.838 144.774 324.945 144.408 324.945 143.977V142.795C324.81 142.851 324.665 142.903 324.511 142.952C324.364 143.002 324.204 143.048 324.031 143.091C323.865 143.134 323.686 143.174 323.496 143.211C323.311 143.248 323.117 143.282 322.914 143.312C322.52 143.374 322.197 143.476 321.945 143.617C321.698 143.753 321.514 143.922 321.391 144.125C321.274 144.322 321.215 144.544 321.215 144.79C321.215 145.184 321.354 145.485 321.631 145.695C321.908 145.904 322.262 146.009 322.692 146.009ZM338.349 130.091L337.869 143.091H333.659L333.179 130.091H338.349ZM335.764 149.295C335.05 149.295 334.437 149.046 333.927 148.548C333.422 148.043 333.173 147.43 333.179 146.71C333.173 146.009 333.422 145.408 333.927 144.91C334.437 144.411 335.05 144.162 335.764 144.162C336.441 144.162 337.038 144.411 337.555 144.91C338.078 145.408 338.343 146.009 338.349 146.71C338.343 147.19 338.217 147.627 337.971 148.021C337.731 148.409 337.417 148.72 337.029 148.954C336.641 149.182 336.219 149.295 335.764 149.295Z" fill="#E8E6E3"/>
<path d="M118.658 168.955C118.607 168.523 118.399 168.188 118.036 167.949C117.672 167.71 117.226 167.591 116.697 167.591C116.311 167.591 115.973 167.653 115.683 167.778C115.396 167.903 115.172 168.075 115.01 168.294C114.851 168.513 114.771 168.761 114.771 169.04C114.771 169.273 114.827 169.473 114.938 169.641C115.051 169.805 115.196 169.943 115.372 170.054C115.548 170.162 115.733 170.251 115.926 170.322C116.119 170.391 116.297 170.446 116.459 170.489L117.345 170.727C117.572 170.787 117.825 170.869 118.104 170.974C118.385 171.08 118.653 171.223 118.909 171.405C119.168 171.584 119.381 171.814 119.548 172.095C119.716 172.376 119.8 172.722 119.8 173.131C119.8 173.602 119.676 174.028 119.429 174.409C119.185 174.79 118.827 175.092 118.355 175.317C117.886 175.541 117.317 175.653 116.646 175.653C116.021 175.653 115.48 175.553 115.023 175.351C114.568 175.149 114.21 174.868 113.949 174.507C113.69 174.146 113.544 173.727 113.51 173.25H114.601C114.629 173.58 114.74 173.852 114.933 174.068C115.129 174.281 115.376 174.44 115.675 174.545C115.976 174.648 116.3 174.699 116.646 174.699C117.05 174.699 117.412 174.634 117.733 174.503C118.054 174.369 118.308 174.185 118.496 173.949C118.683 173.71 118.777 173.432 118.777 173.114C118.777 172.824 118.696 172.588 118.534 172.406C118.372 172.224 118.159 172.077 117.895 171.963C117.631 171.849 117.345 171.75 117.038 171.665L115.964 171.358C115.283 171.162 114.743 170.882 114.345 170.518C113.947 170.155 113.749 169.679 113.749 169.091C113.749 168.602 113.881 168.176 114.145 167.812C114.412 167.446 114.77 167.162 115.219 166.96C115.67 166.756 116.175 166.653 116.732 166.653C117.294 166.653 117.794 166.754 118.232 166.956C118.669 167.155 119.016 167.428 119.271 167.774C119.53 168.121 119.666 168.514 119.68 168.955H118.658ZM124.06 175.636C123.469 175.636 122.951 175.496 122.505 175.214C122.061 174.933 121.715 174.54 121.465 174.034C121.218 173.528 121.094 172.937 121.094 172.261C121.094 171.58 121.218 170.984 121.465 170.476C121.715 169.967 122.061 169.572 122.505 169.291C122.951 169.01 123.469 168.869 124.06 168.869C124.651 168.869 125.168 169.01 125.611 169.291C126.057 169.572 126.404 169.967 126.651 170.476C126.901 170.984 127.026 171.58 127.026 172.261C127.026 172.937 126.901 173.528 126.651 174.034C126.404 174.54 126.057 174.933 125.611 175.214C125.168 175.496 124.651 175.636 124.06 175.636ZM124.06 174.733C124.509 174.733 124.878 174.618 125.168 174.388C125.458 174.158 125.672 173.855 125.811 173.48C125.951 173.105 126.02 172.699 126.02 172.261C126.02 171.824 125.951 171.416 125.811 171.038C125.672 170.661 125.458 170.355 125.168 170.122C124.878 169.889 124.509 169.773 124.06 169.773C123.611 169.773 123.242 169.889 122.952 170.122C122.662 170.355 122.448 170.661 122.309 171.038C122.169 171.416 122.1 171.824 122.1 172.261C122.1 172.699 122.169 173.105 122.309 173.48C122.448 173.855 122.662 174.158 122.952 174.388C123.242 174.618 123.611 174.733 124.06 174.733ZM131.476 168.955V169.807H127.947V168.955H131.476ZM129.004 175.5V168.051C129.004 167.676 129.092 167.364 129.268 167.114C129.445 166.864 129.673 166.676 129.955 166.551C130.236 166.426 130.533 166.364 130.845 166.364C131.092 166.364 131.294 166.384 131.45 166.423C131.607 166.463 131.723 166.5 131.8 166.534L131.51 167.403C131.459 167.386 131.388 167.365 131.297 167.339C131.209 167.314 131.092 167.301 130.947 167.301C130.615 167.301 130.375 167.385 130.227 167.553C130.082 167.72 130.01 167.966 130.01 168.29V175.5H129.004ZM135.732 168.955V169.807H132.34V168.955H135.732ZM133.328 167.386H134.334V173.625C134.334 173.909 134.375 174.122 134.458 174.264C134.543 174.403 134.651 174.497 134.782 174.545C134.915 174.591 135.056 174.614 135.203 174.614C135.314 174.614 135.405 174.608 135.476 174.597C135.547 174.582 135.604 174.571 135.647 174.562L135.851 175.466C135.783 175.491 135.688 175.517 135.566 175.543C135.444 175.571 135.289 175.585 135.101 175.585C134.817 175.585 134.539 175.524 134.266 175.402C133.996 175.28 133.772 175.094 133.593 174.844C133.417 174.594 133.328 174.278 133.328 173.898V167.386ZM138.728 175.5L136.733 168.955H137.79L139.205 173.966H139.273L140.671 168.955H141.745L143.125 173.949H143.194L144.608 168.955H145.665L143.671 175.5H142.682L141.25 170.472H141.148L139.716 175.5H138.728ZM148.921 175.653C148.506 175.653 148.13 175.575 147.792 175.419C147.453 175.26 147.185 175.031 146.986 174.733C146.787 174.432 146.688 174.068 146.688 173.642C146.688 173.267 146.762 172.963 146.909 172.73C147.057 172.494 147.255 172.31 147.502 172.176C147.749 172.043 148.022 171.943 148.32 171.878C148.621 171.81 148.924 171.756 149.228 171.716C149.625 171.665 149.948 171.626 150.195 171.601C150.445 171.572 150.627 171.526 150.74 171.46C150.857 171.395 150.915 171.281 150.915 171.119V171.085C150.915 170.665 150.8 170.338 150.57 170.105C150.343 169.872 149.998 169.756 149.534 169.756C149.054 169.756 148.678 169.861 148.405 170.071C148.132 170.281 147.941 170.506 147.83 170.744L146.875 170.403C147.046 170.006 147.273 169.696 147.557 169.474C147.844 169.25 148.157 169.094 148.495 169.006C148.836 168.915 149.171 168.869 149.5 168.869C149.711 168.869 149.952 168.895 150.225 168.946C150.5 168.994 150.766 169.095 151.022 169.249C151.28 169.402 151.495 169.634 151.665 169.943C151.836 170.253 151.921 170.668 151.921 171.188V175.5H150.915V174.614H150.864C150.796 174.756 150.682 174.908 150.523 175.07C150.364 175.232 150.152 175.369 149.888 175.483C149.624 175.597 149.301 175.653 148.921 175.653ZM149.074 174.75C149.472 174.75 149.807 174.672 150.08 174.516C150.355 174.359 150.563 174.158 150.702 173.911C150.844 173.663 150.915 173.403 150.915 173.131V172.21C150.873 172.261 150.779 172.308 150.634 172.351C150.492 172.391 150.327 172.426 150.14 172.457C149.955 172.486 149.775 172.511 149.598 172.534C149.425 172.554 149.284 172.571 149.176 172.585C148.915 172.619 148.671 172.675 148.444 172.751C148.219 172.825 148.037 172.937 147.898 173.088C147.762 173.236 147.694 173.437 147.694 173.693C147.694 174.043 147.823 174.307 148.081 174.486C148.343 174.662 148.674 174.75 149.074 174.75ZM153.756 175.5V168.955H154.728V169.943H154.796C154.915 169.619 155.131 169.357 155.444 169.155C155.756 168.953 156.109 168.852 156.501 168.852C156.575 168.852 156.667 168.854 156.778 168.857C156.888 168.859 156.972 168.864 157.029 168.869V169.892C156.995 169.884 156.917 169.871 156.795 169.854C156.675 169.834 156.549 169.824 156.415 169.824C156.097 169.824 155.813 169.891 155.563 170.024C155.316 170.155 155.12 170.337 154.975 170.57C154.833 170.8 154.762 171.062 154.762 171.358V175.5H153.756ZM160.766 175.636C160.136 175.636 159.592 175.497 159.134 175.219C158.68 174.938 158.329 174.545 158.082 174.043C157.837 173.537 157.715 172.949 157.715 172.278C157.715 171.608 157.837 171.017 158.082 170.506C158.329 169.991 158.673 169.591 159.113 169.304C159.556 169.014 160.073 168.869 160.664 168.869C161.005 168.869 161.342 168.926 161.674 169.04C162.006 169.153 162.309 169.338 162.582 169.594C162.854 169.847 163.072 170.182 163.234 170.599C163.396 171.017 163.477 171.531 163.477 172.142V172.568H158.431V171.699H162.454C162.454 171.33 162.38 171 162.232 170.71C162.087 170.42 161.88 170.192 161.61 170.024C161.343 169.857 161.028 169.773 160.664 169.773C160.263 169.773 159.917 169.872 159.624 170.071C159.335 170.267 159.112 170.523 158.955 170.838C158.799 171.153 158.721 171.491 158.721 171.852V172.432C158.721 172.926 158.806 173.345 158.977 173.689C159.15 174.03 159.39 174.29 159.697 174.469C160.004 174.645 160.36 174.733 160.766 174.733C161.031 174.733 161.269 174.696 161.482 174.622C161.698 174.545 161.884 174.432 162.04 174.281C162.197 174.128 162.317 173.937 162.403 173.71L163.374 173.983C163.272 174.312 163.1 174.602 162.859 174.852C162.617 175.099 162.319 175.293 161.964 175.432C161.609 175.568 161.21 175.636 160.766 175.636ZM168.518 175.5V166.773H173.785V167.71H169.575V170.659H173.512V171.597H169.575V174.562H173.853V175.5H168.518ZM176.559 171.562V175.5H175.553V168.955H176.525V169.977H176.61C176.763 169.645 176.996 169.378 177.309 169.176C177.621 168.972 178.025 168.869 178.519 168.869C178.962 168.869 179.35 168.96 179.683 169.142C180.015 169.321 180.273 169.594 180.458 169.96C180.643 170.324 180.735 170.784 180.735 171.341V175.5H179.729V171.409C179.729 170.895 179.596 170.494 179.329 170.207C179.062 169.918 178.695 169.773 178.229 169.773C177.908 169.773 177.621 169.842 177.369 169.982C177.119 170.121 176.921 170.324 176.776 170.591C176.631 170.858 176.559 171.182 176.559 171.562ZM185.215 178.091C184.729 178.091 184.311 178.028 183.962 177.903C183.613 177.781 183.321 177.619 183.088 177.418C182.858 177.219 182.675 177.006 182.539 176.778L183.34 176.216C183.431 176.335 183.546 176.472 183.685 176.625C183.824 176.781 184.015 176.916 184.256 177.03C184.5 177.146 184.82 177.205 185.215 177.205C185.743 177.205 186.179 177.077 186.523 176.821C186.867 176.565 187.039 176.165 187.039 175.619V174.29H186.953C186.88 174.409 186.775 174.557 186.638 174.733C186.505 174.906 186.311 175.061 186.059 175.197C185.809 175.331 185.471 175.398 185.044 175.398C184.516 175.398 184.042 175.273 183.621 175.023C183.203 174.773 182.873 174.409 182.628 173.932C182.387 173.455 182.266 172.875 182.266 172.193C182.266 171.523 182.384 170.939 182.62 170.442C182.855 169.942 183.184 169.555 183.604 169.283C184.025 169.007 184.51 168.869 185.061 168.869C185.488 168.869 185.826 168.94 186.076 169.082C186.328 169.222 186.522 169.381 186.655 169.56C186.792 169.736 186.897 169.881 186.971 169.994H187.073V168.955H188.044V175.688C188.044 176.25 187.917 176.707 187.661 177.06C187.408 177.415 187.067 177.675 186.638 177.839C186.212 178.007 185.738 178.091 185.215 178.091ZM185.181 174.494C185.584 174.494 185.925 174.402 186.203 174.217C186.482 174.033 186.694 173.767 186.838 173.42C186.983 173.074 187.056 172.659 187.056 172.176C187.056 171.705 186.985 171.288 186.843 170.928C186.701 170.567 186.49 170.284 186.212 170.08C185.934 169.875 185.59 169.773 185.181 169.773C184.755 169.773 184.4 169.881 184.115 170.097C183.834 170.312 183.623 170.602 183.48 170.966C183.341 171.33 183.272 171.733 183.272 172.176C183.272 172.631 183.343 173.033 183.485 173.382C183.63 173.729 183.843 174.001 184.124 174.2C184.408 174.396 184.76 174.494 185.181 174.494ZM189.885 175.5V168.955H190.891V175.5H189.885ZM190.397 167.864C190.201 167.864 190.032 167.797 189.89 167.663C189.75 167.53 189.681 167.369 189.681 167.182C189.681 166.994 189.75 166.834 189.89 166.7C190.032 166.567 190.201 166.5 190.397 166.5C190.593 166.5 190.76 166.567 190.9 166.7C191.042 166.834 191.113 166.994 191.113 167.182C191.113 167.369 191.042 167.53 190.9 167.663C190.76 167.797 190.593 167.864 190.397 167.864ZM193.739 171.562V175.5H192.733V168.955H193.705V169.977H193.79C193.943 169.645 194.176 169.378 194.489 169.176C194.801 168.972 195.205 168.869 195.699 168.869C196.142 168.869 196.53 168.96 196.862 169.142C197.195 169.321 197.453 169.594 197.638 169.96C197.822 170.324 197.915 170.784 197.915 171.341V175.5H196.909V171.409C196.909 170.895 196.776 170.494 196.509 170.207C196.241 169.918 195.875 169.773 195.409 169.773C195.088 169.773 194.801 169.842 194.548 169.982C194.298 170.121 194.101 170.324 193.956 170.591C193.811 170.858 193.739 171.182 193.739 171.562ZM202.497 175.636C201.866 175.636 201.322 175.497 200.865 175.219C200.41 174.938 200.059 174.545 199.812 174.043C199.568 173.537 199.446 172.949 199.446 172.278C199.446 171.608 199.568 171.017 199.812 170.506C200.059 169.991 200.403 169.591 200.843 169.304C201.287 169.014 201.804 168.869 202.395 168.869C202.735 168.869 203.072 168.926 203.404 169.04C203.737 169.153 204.039 169.338 204.312 169.594C204.585 169.847 204.802 170.182 204.964 170.599C205.126 171.017 205.207 171.531 205.207 172.142V172.568H200.162V171.699H204.184C204.184 171.33 204.11 171 203.963 170.71C203.818 170.42 203.61 170.192 203.341 170.024C203.074 169.857 202.758 169.773 202.395 169.773C201.994 169.773 201.647 169.872 201.355 170.071C201.065 170.267 200.842 170.523 200.686 170.838C200.529 171.153 200.451 171.491 200.451 171.852V172.432C200.451 172.926 200.537 173.345 200.707 173.689C200.88 174.03 201.12 174.29 201.427 174.469C201.734 174.645 202.091 174.733 202.497 174.733C202.761 174.733 203 174.696 203.213 174.622C203.429 174.545 203.615 174.432 203.771 174.281C203.927 174.128 204.048 173.937 204.133 173.71L205.105 173.983C205.002 174.312 204.831 174.602 204.589 174.852C204.348 175.099 204.049 175.293 203.694 175.432C203.339 175.568 202.94 175.636 202.497 175.636ZM209.481 175.636C208.85 175.636 208.306 175.497 207.849 175.219C207.395 174.938 207.044 174.545 206.797 174.043C206.552 173.537 206.43 172.949 206.43 172.278C206.43 171.608 206.552 171.017 206.797 170.506C207.044 169.991 207.387 169.591 207.828 169.304C208.271 169.014 208.788 168.869 209.379 168.869C209.72 168.869 210.056 168.926 210.389 169.04C210.721 169.153 211.024 169.338 211.297 169.594C211.569 169.847 211.787 170.182 211.949 170.599C212.11 171.017 212.191 171.531 212.191 172.142V172.568H207.146V171.699H211.169C211.169 171.33 211.095 171 210.947 170.71C210.802 170.42 210.595 170.192 210.325 170.024C210.058 169.857 209.743 169.773 209.379 169.773C208.978 169.773 208.632 169.872 208.339 170.071C208.049 170.267 207.826 170.523 207.67 170.838C207.514 171.153 207.436 171.491 207.436 171.852V172.432C207.436 172.926 207.521 173.345 207.691 173.689C207.865 174.03 208.105 174.29 208.412 174.469C208.718 174.645 209.075 174.733 209.481 174.733C209.745 174.733 209.984 174.696 210.197 174.622C210.413 174.545 210.599 174.432 210.755 174.281C210.912 174.128 211.032 173.937 211.118 173.71L212.089 173.983C211.987 174.312 211.815 174.602 211.574 174.852C211.332 175.099 211.034 175.293 210.679 175.432C210.324 175.568 209.924 175.636 209.481 175.636ZM213.721 175.5V168.955H214.693V169.943H214.761C214.88 169.619 215.096 169.357 215.409 169.155C215.721 168.953 216.074 168.852 216.466 168.852C216.539 168.852 216.632 168.854 216.743 168.857C216.853 168.859 216.937 168.864 216.994 168.869V169.892C216.96 169.884 216.882 169.871 216.76 169.854C216.64 169.834 216.514 169.824 216.38 169.824C216.062 169.824 215.778 169.891 215.528 170.024C215.281 170.155 215.085 170.337 214.94 170.57C214.798 170.8 214.727 171.062 214.727 171.358V175.5H213.721ZM221.697 175.5V166.773H222.703V169.994H222.788C222.862 169.881 222.964 169.736 223.095 169.56C223.229 169.381 223.419 169.222 223.666 169.082C223.916 168.94 224.254 168.869 224.68 168.869C225.232 168.869 225.717 169.007 226.138 169.283C226.558 169.558 226.886 169.949 227.122 170.455C227.358 170.96 227.476 171.557 227.476 172.244C227.476 172.938 227.358 173.538 227.122 174.047C226.886 174.553 226.56 174.945 226.142 175.223C225.724 175.499 225.243 175.636 224.697 175.636C224.277 175.636 223.94 175.567 223.688 175.428C223.435 175.286 223.24 175.125 223.104 174.946C222.967 174.764 222.862 174.614 222.788 174.494H222.669V175.5H221.697ZM222.686 172.227C222.686 172.722 222.759 173.158 222.903 173.536C223.048 173.911 223.26 174.205 223.538 174.418C223.817 174.628 224.158 174.733 224.561 174.733C224.982 174.733 225.332 174.622 225.614 174.401C225.898 174.176 226.111 173.875 226.253 173.497C226.398 173.116 226.47 172.693 226.47 172.227C226.47 171.767 226.399 171.352 226.257 170.983C226.118 170.611 225.906 170.317 225.622 170.101C225.341 169.882 224.987 169.773 224.561 169.773C224.152 169.773 223.808 169.876 223.53 170.084C223.251 170.288 223.041 170.575 222.899 170.945C222.757 171.311 222.686 171.739 222.686 172.227ZM230.94 175.653C230.526 175.653 230.149 175.575 229.811 175.419C229.473 175.26 229.205 175.031 229.006 174.733C228.807 174.432 228.707 174.068 228.707 173.642C228.707 173.267 228.781 172.963 228.929 172.73C229.077 172.494 229.274 172.31 229.521 172.176C229.768 172.043 230.041 171.943 230.339 171.878C230.641 171.81 230.943 171.756 231.247 171.716C231.645 171.665 231.967 171.626 232.214 171.601C232.464 171.572 232.646 171.526 232.76 171.46C232.876 171.395 232.935 171.281 232.935 171.119V171.085C232.935 170.665 232.82 170.338 232.589 170.105C232.362 169.872 232.017 169.756 231.554 169.756C231.074 169.756 230.697 169.861 230.425 170.071C230.152 170.281 229.96 170.506 229.849 170.744L228.895 170.403C229.065 170.006 229.293 169.696 229.577 169.474C229.864 169.25 230.176 169.094 230.514 169.006C230.855 168.915 231.19 168.869 231.52 168.869C231.73 168.869 231.972 168.895 232.244 168.946C232.52 168.994 232.786 169.095 233.041 169.249C233.3 169.402 233.514 169.634 233.685 169.943C233.855 170.253 233.94 170.668 233.94 171.188V175.5H232.935V174.614H232.884C232.815 174.756 232.702 174.908 232.543 175.07C232.384 175.232 232.172 175.369 231.908 175.483C231.643 175.597 231.321 175.653 230.94 175.653ZM231.094 174.75C231.491 174.75 231.827 174.672 232.099 174.516C232.375 174.359 232.582 174.158 232.722 173.911C232.864 173.663 232.935 173.403 232.935 173.131V172.21C232.892 172.261 232.798 172.308 232.653 172.351C232.511 172.391 232.347 172.426 232.159 172.457C231.974 172.486 231.794 172.511 231.618 172.534C231.445 172.554 231.304 172.571 231.196 172.585C230.935 172.619 230.69 172.675 230.463 172.751C230.239 172.825 230.057 172.937 229.918 173.088C229.781 173.236 229.713 173.437 229.713 173.693C229.713 174.043 229.842 174.307 230.101 174.486C230.362 174.662 230.693 174.75 231.094 174.75ZM240.412 170.42L239.509 170.676C239.452 170.526 239.368 170.379 239.257 170.237C239.15 170.092 239.002 169.973 238.814 169.879C238.627 169.786 238.387 169.739 238.094 169.739C237.694 169.739 237.36 169.831 237.093 170.016C236.828 170.197 236.696 170.429 236.696 170.71C236.696 170.96 236.787 171.158 236.969 171.303C237.151 171.447 237.435 171.568 237.821 171.665L238.793 171.903C239.378 172.045 239.814 172.263 240.101 172.555C240.388 172.845 240.532 173.219 240.532 173.676C240.532 174.051 240.424 174.386 240.208 174.682C239.995 174.977 239.696 175.21 239.313 175.381C238.929 175.551 238.483 175.636 237.975 175.636C237.307 175.636 236.755 175.491 236.317 175.202C235.88 174.912 235.603 174.489 235.486 173.932L236.441 173.693C236.532 174.045 236.703 174.31 236.956 174.486C237.212 174.662 237.546 174.75 237.958 174.75C238.426 174.75 238.799 174.651 239.074 174.452C239.353 174.25 239.492 174.009 239.492 173.727C239.492 173.5 239.412 173.31 239.253 173.156C239.094 173 238.85 172.884 238.52 172.807L237.429 172.551C236.83 172.409 236.39 172.189 236.108 171.891C235.83 171.589 235.691 171.213 235.691 170.761C235.691 170.392 235.794 170.065 236.002 169.781C236.212 169.497 236.498 169.274 236.858 169.112C237.222 168.95 237.634 168.869 238.094 168.869C238.742 168.869 239.25 169.011 239.62 169.295C239.992 169.58 240.256 169.955 240.412 170.42ZM244.79 175.636C244.159 175.636 243.615 175.497 243.158 175.219C242.703 174.938 242.352 174.545 242.105 174.043C241.861 173.537 241.739 172.949 241.739 172.278C241.739 171.608 241.861 171.017 242.105 170.506C242.352 169.991 242.696 169.591 243.136 169.304C243.58 169.014 244.097 168.869 244.688 168.869C245.028 168.869 245.365 168.926 245.697 169.04C246.03 169.153 246.332 169.338 246.605 169.594C246.878 169.847 247.095 170.182 247.257 170.599C247.419 171.017 247.5 171.531 247.5 172.142V172.568H242.455V171.699H246.477C246.477 171.33 246.403 171 246.256 170.71C246.111 170.42 245.903 170.192 245.634 170.024C245.366 169.857 245.051 169.773 244.688 169.773C244.287 169.773 243.94 169.872 243.648 170.071C243.358 170.267 243.135 170.523 242.979 170.838C242.822 171.153 242.744 171.491 242.744 171.852V172.432C242.744 172.926 242.83 173.345 243 173.689C243.173 174.03 243.413 174.29 243.72 174.469C244.027 174.645 244.384 174.733 244.79 174.733C245.054 174.733 245.293 174.696 245.506 174.622C245.722 174.545 245.908 174.432 246.064 174.281C246.22 174.128 246.341 173.937 246.426 173.71L247.398 173.983C247.295 174.312 247.124 174.602 246.882 174.852C246.641 175.099 246.342 175.293 245.987 175.432C245.632 175.568 245.233 175.636 244.79 175.636ZM251.501 175.636C250.956 175.636 250.474 175.499 250.057 175.223C249.639 174.945 249.313 174.553 249.077 174.047C248.841 173.538 248.723 172.938 248.723 172.244C248.723 171.557 248.841 170.96 249.077 170.455C249.313 169.949 249.641 169.558 250.061 169.283C250.482 169.007 250.967 168.869 251.518 168.869C251.945 168.869 252.281 168.94 252.528 169.082C252.778 169.222 252.969 169.381 253.099 169.56C253.233 169.736 253.337 169.881 253.411 169.994H253.496V166.773H254.501V175.5H253.53V174.494H253.411C253.337 174.614 253.232 174.764 253.095 174.946C252.959 175.125 252.764 175.286 252.511 175.428C252.259 175.567 251.922 175.636 251.501 175.636ZM251.638 174.733C252.041 174.733 252.382 174.628 252.661 174.418C252.939 174.205 253.151 173.911 253.295 173.536C253.44 173.158 253.513 172.722 253.513 172.227C253.513 171.739 253.442 171.311 253.3 170.945C253.158 170.575 252.947 170.288 252.669 170.084C252.391 169.876 252.047 169.773 251.638 169.773C251.212 169.773 250.857 169.882 250.572 170.101C250.291 170.317 250.08 170.611 249.938 170.983C249.798 171.352 249.729 171.767 249.729 172.227C249.729 172.693 249.8 173.116 249.942 173.497C250.087 173.875 250.3 174.176 250.581 174.401C250.865 174.622 251.217 174.733 251.638 174.733ZM259.858 175.5V168.955H260.864V175.5H259.858ZM260.369 167.864C260.173 167.864 260.004 167.797 259.862 167.663C259.723 167.53 259.653 167.369 259.653 167.182C259.653 166.994 259.723 166.834 259.862 166.7C260.004 166.567 260.173 166.5 260.369 166.5C260.565 166.5 260.733 166.567 260.872 166.7C261.014 166.834 261.085 166.994 261.085 167.182C261.085 167.369 261.014 167.53 260.872 167.663C260.733 167.797 260.565 167.864 260.369 167.864ZM263.711 171.562V175.5H262.706V168.955H263.677V169.977H263.762C263.916 169.645 264.149 169.378 264.461 169.176C264.774 168.972 265.177 168.869 265.672 168.869C266.115 168.869 266.502 168.96 266.835 169.142C267.167 169.321 267.426 169.594 267.61 169.96C267.795 170.324 267.887 170.784 267.887 171.341V175.5H266.882V171.409C266.882 170.895 266.748 170.494 266.481 170.207C266.214 169.918 265.848 169.773 265.382 169.773C265.061 169.773 264.774 169.842 264.521 169.982C264.271 170.121 264.074 170.324 263.929 170.591C263.784 170.858 263.711 171.182 263.711 171.562ZM273.594 175.5H272.487L275.691 166.773H276.782L279.987 175.5H278.879L276.271 168.153H276.202L273.594 175.5ZM274.004 172.091H278.469V173.028H274.004V172.091ZM281.21 175.5V168.955H282.181V169.977H282.266C282.403 169.628 282.623 169.357 282.927 169.163C283.231 168.967 283.596 168.869 284.022 168.869C284.454 168.869 284.813 168.967 285.1 169.163C285.39 169.357 285.616 169.628 285.778 169.977H285.846C286.013 169.639 286.265 169.371 286.6 169.172C286.935 168.97 287.337 168.869 287.806 168.869C288.391 168.869 288.87 169.053 289.242 169.419C289.614 169.783 289.8 170.349 289.8 171.119V175.5H288.795V171.119C288.795 170.636 288.663 170.291 288.398 170.084C288.134 169.876 287.823 169.773 287.465 169.773C287.005 169.773 286.648 169.912 286.396 170.19C286.143 170.466 286.016 170.815 286.016 171.239V175.5H284.994V171.017C284.994 170.645 284.873 170.345 284.631 170.118C284.39 169.888 284.079 169.773 283.698 169.773C283.437 169.773 283.192 169.842 282.965 169.982C282.741 170.121 282.559 170.314 282.42 170.561C282.283 170.805 282.215 171.088 282.215 171.409V175.5H281.21ZM296.276 170.42L295.372 170.676C295.315 170.526 295.232 170.379 295.121 170.237C295.013 170.092 294.865 169.973 294.678 169.879C294.49 169.786 294.25 169.739 293.957 169.739C293.557 169.739 293.223 169.831 292.956 170.016C292.692 170.197 292.56 170.429 292.56 170.71C292.56 170.96 292.651 171.158 292.832 171.303C293.014 171.447 293.298 171.568 293.685 171.665L294.656 171.903C295.241 172.045 295.678 172.263 295.964 172.555C296.251 172.845 296.395 173.219 296.395 173.676C296.395 174.051 296.287 174.386 296.071 174.682C295.858 174.977 295.56 175.21 295.176 175.381C294.793 175.551 294.347 175.636 293.838 175.636C293.17 175.636 292.618 175.491 292.18 175.202C291.743 174.912 291.466 174.489 291.349 173.932L292.304 173.693C292.395 174.045 292.567 174.31 292.82 174.486C293.075 174.662 293.409 174.75 293.821 174.75C294.29 174.75 294.662 174.651 294.938 174.452C295.216 174.25 295.355 174.009 295.355 173.727C295.355 173.5 295.276 173.31 295.116 173.156C294.957 173 294.713 172.884 294.384 172.807L293.293 172.551C292.693 172.409 292.253 172.189 291.972 171.891C291.693 171.589 291.554 171.213 291.554 170.761C291.554 170.392 291.658 170.065 291.865 169.781C292.075 169.497 292.361 169.274 292.722 169.112C293.085 168.95 293.497 168.869 293.957 168.869C294.605 168.869 295.114 169.011 295.483 169.295C295.855 169.58 296.119 169.955 296.276 170.42ZM300.755 168.955V169.807H297.363V168.955H300.755ZM298.352 167.386H299.358V173.625C299.358 173.909 299.399 174.122 299.481 174.264C299.566 174.403 299.674 174.497 299.805 174.545C299.939 174.591 300.079 174.614 300.227 174.614C300.338 174.614 300.429 174.608 300.5 174.597C300.571 174.582 300.627 174.571 300.67 174.562L300.875 175.466C300.806 175.491 300.711 175.517 300.589 175.543C300.467 175.571 300.312 175.585 300.125 175.585C299.841 175.585 299.562 175.524 299.289 175.402C299.02 175.28 298.795 175.094 298.616 174.844C298.44 174.594 298.352 174.278 298.352 173.898V167.386ZM304.942 175.636C304.311 175.636 303.767 175.497 303.31 175.219C302.855 174.938 302.505 174.545 302.257 174.043C302.013 173.537 301.891 172.949 301.891 172.278C301.891 171.608 302.013 171.017 302.257 170.506C302.505 169.991 302.848 169.591 303.289 169.304C303.732 169.014 304.249 168.869 304.84 168.869C305.181 168.869 305.517 168.926 305.85 169.04C306.182 169.153 306.485 169.338 306.757 169.594C307.03 169.847 307.248 170.182 307.409 170.599C307.571 171.017 307.652 171.531 307.652 172.142V172.568H302.607V171.699H306.63C306.63 171.33 306.556 171 306.408 170.71C306.263 170.42 306.056 170.192 305.786 170.024C305.519 169.857 305.203 169.773 304.84 169.773C304.439 169.773 304.093 169.872 303.8 170.071C303.51 170.267 303.287 170.523 303.131 170.838C302.975 171.153 302.897 171.491 302.897 171.852V172.432C302.897 172.926 302.982 173.345 303.152 173.689C303.326 174.03 303.566 174.29 303.873 174.469C304.179 174.645 304.536 174.733 304.942 174.733C305.206 174.733 305.445 174.696 305.658 174.622C305.874 174.545 306.06 174.432 306.216 174.281C306.373 174.128 306.493 173.937 306.578 173.71L307.55 173.983C307.448 174.312 307.276 174.602 307.034 174.852C306.793 175.099 306.495 175.293 306.14 175.432C305.784 175.568 305.385 175.636 304.942 175.636ZM309.182 175.5V168.955H310.154V169.943H310.222C310.341 169.619 310.557 169.357 310.87 169.155C311.182 168.953 311.534 168.852 311.926 168.852C312 168.852 312.093 168.854 312.203 168.857C312.314 168.859 312.398 168.864 312.455 168.869V169.892C312.421 169.884 312.343 169.871 312.221 169.854C312.101 169.834 311.975 169.824 311.841 169.824C311.523 169.824 311.239 169.891 310.989 170.024C310.742 170.155 310.546 170.337 310.401 170.57C310.259 170.8 310.188 171.062 310.188 171.358V175.5H309.182ZM315.919 175.636C315.374 175.636 314.892 175.499 314.475 175.223C314.057 174.945 313.73 174.553 313.495 174.047C313.259 173.538 313.141 172.938 313.141 172.244C313.141 171.557 313.259 170.96 313.495 170.455C313.73 169.949 314.059 169.558 314.479 169.283C314.9 169.007 315.385 168.869 315.936 168.869C316.363 168.869 316.699 168.94 316.946 169.082C317.196 169.222 317.387 169.381 317.517 169.56C317.651 169.736 317.755 169.881 317.828 169.994H317.914V166.773H318.919V175.5H317.948V174.494H317.828C317.755 174.614 317.65 174.764 317.513 174.946C317.377 175.125 317.182 175.286 316.929 175.428C316.676 175.567 316.34 175.636 315.919 175.636ZM316.056 174.733C316.459 174.733 316.8 174.628 317.078 174.418C317.357 174.205 317.569 173.911 317.713 173.536C317.858 173.158 317.931 172.722 317.931 172.227C317.931 171.739 317.86 171.311 317.718 170.945C317.576 170.575 317.365 170.288 317.087 170.084C316.809 169.876 316.465 169.773 316.056 169.773C315.63 169.773 315.275 169.882 314.99 170.101C314.709 170.317 314.498 170.611 314.355 170.983C314.216 171.352 314.147 171.767 314.147 172.227C314.147 172.693 314.218 173.116 314.36 173.497C314.505 173.875 314.718 174.176 314.999 174.401C315.283 174.622 315.635 174.733 316.056 174.733ZM322.827 175.653C322.412 175.653 322.036 175.575 321.698 175.419C321.36 175.26 321.091 175.031 320.892 174.733C320.694 174.432 320.594 174.068 320.594 173.642C320.594 173.267 320.668 172.963 320.816 172.73C320.963 172.494 321.161 172.31 321.408 172.176C321.655 172.043 321.928 171.943 322.226 171.878C322.527 171.81 322.83 171.756 323.134 171.716C323.532 171.665 323.854 171.626 324.101 171.601C324.351 171.572 324.533 171.526 324.647 171.46C324.763 171.395 324.821 171.281 324.821 171.119V171.085C324.821 170.665 324.706 170.338 324.476 170.105C324.249 169.872 323.904 169.756 323.441 169.756C322.961 169.756 322.584 169.861 322.311 170.071C322.039 170.281 321.847 170.506 321.736 170.744L320.782 170.403C320.952 170.006 321.179 169.696 321.463 169.474C321.75 169.25 322.063 169.094 322.401 169.006C322.742 168.915 323.077 168.869 323.407 168.869C323.617 168.869 323.858 168.895 324.131 168.946C324.407 168.994 324.672 169.095 324.928 169.249C325.186 169.402 325.401 169.634 325.571 169.943C325.742 170.253 325.827 170.668 325.827 171.188V175.5H324.821V174.614H324.77C324.702 174.756 324.588 174.908 324.429 175.07C324.27 175.232 324.059 175.369 323.794 175.483C323.53 175.597 323.208 175.653 322.827 175.653ZM322.98 174.75C323.378 174.75 323.713 174.672 323.986 174.516C324.262 174.359 324.469 174.158 324.608 173.911C324.75 173.663 324.821 173.403 324.821 173.131V172.21C324.779 172.261 324.685 172.308 324.54 172.351C324.398 172.391 324.233 172.426 324.046 172.457C323.861 172.486 323.681 172.511 323.505 172.534C323.331 172.554 323.191 172.571 323.083 172.585C322.821 172.619 322.577 172.675 322.35 172.751C322.125 172.825 321.944 172.937 321.804 173.088C321.668 173.236 321.6 173.437 321.6 173.693C321.6 174.043 321.729 174.307 321.988 174.486C322.249 174.662 322.58 174.75 322.98 174.75ZM327.663 175.5V168.955H328.634V169.977H328.719C328.856 169.628 329.076 169.357 329.38 169.163C329.684 168.967 330.049 168.869 330.475 168.869C330.907 168.869 331.266 168.967 331.553 169.163C331.843 169.357 332.069 169.628 332.231 169.977H332.299C332.467 169.639 332.718 169.371 333.053 169.172C333.388 168.97 333.79 168.869 334.259 168.869C334.844 168.869 335.323 169.053 335.695 169.419C336.067 169.783 336.254 170.349 336.254 171.119V175.5H335.248V171.119C335.248 170.636 335.116 170.291 334.852 170.084C334.587 169.876 334.276 169.773 333.918 169.773C333.458 169.773 333.102 169.912 332.849 170.19C332.596 170.466 332.469 170.815 332.469 171.239V175.5H331.447V171.017C331.447 170.645 331.326 170.345 331.085 170.118C330.843 169.888 330.532 169.773 330.151 169.773C329.89 169.773 329.646 169.842 329.418 169.982C329.194 170.121 329.012 170.314 328.873 170.561C328.737 170.805 328.668 171.088 328.668 171.409V175.5H327.663Z" fill="#A59B8D"/>
</g>
<defs>
<clipPath id="clip0_2001_601">
<rect width="450" height="300" rx="24" fill="white"/>
</clipPath>
<clipPath id="clip1_2001_601">
<rect width="16" height="16" fill="white" transform="translate(92 142)"/>
</clipPath>
<clipPath id="clip2_2001_601">
<rect width="16" height="16" fill="white" transform="translate(217 267)"/>
</clipPath>
<clipPath id="clip3_2001_601">
<rect width="16" height="16" fill="white" transform="translate(342 142)"/>
</clipPath>
</defs>
</svg>
