<svg width="450" height="300" viewBox="0 0 450 300" fill="none" xmlns="http://www.w3.org/2000/svg">
<g clip-path="url(#clip0_2001_555)">
<rect width="450" height="300" rx="24" fill="#FFF9F0"/>
<path d="M113.834 134.167C113.834 129.5 117.167 126.167 122.5 126.167C129.167 126.167 128.94 130.167 132.5 132.833C136.06 135.5 139.167 135.5 139.167 140.833C139.167 146.833 135.834 149.5 129.834 149.5C126.5 149.5 126.5 152.833 121.834 152.833C117.167 152.833 112.5 150.167 112.5 145.5C112.5 141.5 114.5 141.5 114.5 138.833C114.5 136.833 113.834 135.5 113.834 134.167Z" fill="white" stroke="#39342D" stroke-width="3" stroke-linecap="round" stroke-linejoin="round"/>
<path d="M125.167 144.833C127.744 144.833 129.834 142.744 129.834 140.167C129.834 137.589 127.744 135.5 125.167 135.5C122.59 135.5 120.5 137.589 120.5 140.167C120.5 142.744 122.59 144.833 125.167 144.833Z" fill="#FFAF24" stroke="#39342D" stroke-width="2" stroke-linecap="round" stroke-linejoin="round"/>
<path d="M153.163 149V130.091H158.296V137.477H165.092V130.091H170.225V149H165.092V141.614H158.296V149H153.163ZM172.737 149V134.818H177.833V149H172.737ZM175.285 133.341C174.596 133.341 174.005 133.113 173.512 132.658C173.02 132.202 172.774 131.654 172.774 131.014C172.774 130.374 173.02 129.826 173.512 129.371C174.005 128.915 174.596 128.688 175.285 128.688C175.981 128.688 176.571 128.915 177.058 129.371C177.55 129.826 177.796 130.374 177.796 131.014C177.796 131.654 177.55 132.202 177.058 132.658C176.571 133.113 175.981 133.341 175.285 133.341ZM185.379 146.415L185.305 147.449C185.244 148.335 185.096 149.185 184.862 149.997C184.634 150.81 184.391 151.53 184.132 152.158C183.88 152.786 183.68 153.272 183.532 153.616H180.393C180.492 153.272 180.63 152.773 180.809 152.121C180.993 151.474 181.159 150.742 181.307 149.923C181.461 149.111 181.538 148.286 181.538 147.449V146.415H185.379ZM197.474 130.091V149H192.341V130.091H197.474ZM204.191 130.091V132.307C204.191 132.91 204.068 133.513 203.822 134.116C203.582 134.714 203.274 135.271 202.898 135.788C202.529 136.299 202.148 136.726 201.754 137.071L199.648 136C199.907 135.557 200.138 135.043 200.341 134.458C200.544 133.873 200.646 133.156 200.646 132.307V130.091H204.191ZM206.1 149V134.818H210.938V137.514H211.086C211.381 136.628 211.886 135.926 212.6 135.409C213.314 134.892 214.163 134.634 215.148 134.634C216.145 134.634 217.004 134.898 217.724 135.428C218.444 135.951 218.878 136.646 219.026 137.514H219.174C219.414 136.646 219.925 135.951 220.707 135.428C221.488 134.898 222.405 134.634 223.458 134.634C224.818 134.634 225.92 135.071 226.763 135.945C227.613 136.819 228.037 137.982 228.037 139.435V149H222.941V140.727C222.941 140.106 222.784 139.619 222.47 139.268C222.156 138.911 221.734 138.733 221.205 138.733C220.682 138.733 220.266 138.911 219.959 139.268C219.657 139.619 219.506 140.106 219.506 140.727V149H214.631V140.727C214.631 140.106 214.474 139.619 214.16 139.268C213.846 138.911 213.425 138.733 212.895 138.733C212.545 138.733 212.243 138.813 211.991 138.973C211.738 139.133 211.541 139.364 211.4 139.665C211.264 139.961 211.197 140.315 211.197 140.727V149H206.1ZM235.14 134.227V130.091H251.575V134.227H245.887V149H240.827V134.227H235.14ZM255.602 149.222C254.698 149.222 253.897 149.074 253.202 148.778C252.513 148.477 251.971 148.021 251.577 147.412C251.183 146.803 250.986 146.027 250.986 145.085C250.986 144.31 251.118 143.648 251.383 143.1C251.648 142.546 252.017 142.094 252.491 141.743C252.965 141.392 253.516 141.124 254.144 140.94C254.778 140.755 255.461 140.635 256.193 140.58C256.987 140.518 257.624 140.444 258.105 140.358C258.591 140.266 258.942 140.139 259.157 139.979C259.373 139.813 259.48 139.595 259.48 139.324V139.287C259.48 138.918 259.339 138.634 259.056 138.438C258.772 138.241 258.409 138.142 257.966 138.142C257.48 138.142 257.083 138.25 256.775 138.465C256.473 138.674 256.292 138.998 256.23 139.435H251.54C251.602 138.573 251.875 137.779 252.362 137.053C252.854 136.32 253.571 135.735 254.513 135.298C255.455 134.855 256.63 134.634 258.04 134.634C259.056 134.634 259.967 134.754 260.773 134.994C261.579 135.228 262.266 135.557 262.832 135.982C263.398 136.4 263.829 136.893 264.124 137.459C264.426 138.019 264.577 138.628 264.577 139.287V149H259.813V147.006H259.702C259.419 147.535 259.074 147.963 258.668 148.289C258.268 148.615 257.809 148.852 257.292 149C256.781 149.148 256.218 149.222 255.602 149.222ZM257.264 146.009C257.652 146.009 258.015 145.929 258.354 145.768C258.699 145.608 258.979 145.378 259.194 145.076C259.41 144.774 259.517 144.408 259.517 143.977V142.795C259.382 142.851 259.237 142.903 259.083 142.952C258.936 143.002 258.776 143.048 258.603 143.091C258.437 143.134 258.258 143.174 258.068 143.211C257.883 143.248 257.689 143.282 257.486 143.312C257.092 143.374 256.769 143.476 256.517 143.617C256.27 143.753 256.086 143.922 255.963 144.125C255.846 144.322 255.787 144.544 255.787 144.79C255.787 145.184 255.926 145.485 256.203 145.695C256.48 145.904 256.834 146.009 257.264 146.009ZM275.469 134.818V138.511H266.126V134.818H275.469ZM267.935 131.42H273.032V144.439C273.032 144.636 273.066 144.802 273.134 144.938C273.201 145.067 273.306 145.165 273.447 145.233C273.589 145.295 273.771 145.325 273.992 145.325C274.146 145.325 274.325 145.307 274.528 145.27C274.737 145.233 274.891 145.202 274.989 145.178L275.728 148.76C275.5 148.828 275.174 148.911 274.749 149.009C274.331 149.108 273.832 149.172 273.254 149.203C272.084 149.265 271.102 149.145 270.308 148.843C269.514 148.535 268.917 148.052 268.517 147.393C268.117 146.735 267.923 145.91 267.935 144.919V131.42ZM277.549 149V134.818H282.646V149H277.549ZM280.098 133.341C279.408 133.341 278.817 133.113 278.325 132.658C277.832 132.202 277.586 131.654 277.586 131.014C277.586 130.374 277.832 129.826 278.325 129.371C278.817 128.915 279.408 128.688 280.098 128.688C280.793 128.688 281.384 128.915 281.87 129.371C282.363 129.826 282.609 130.374 282.609 131.014C282.609 131.654 282.363 132.202 281.87 132.658C281.384 133.113 280.793 133.341 280.098 133.341ZM289.194 149.222C288.289 149.222 287.489 149.074 286.794 148.778C286.104 148.477 285.563 148.021 285.169 147.412C284.775 146.803 284.578 146.027 284.578 145.085C284.578 144.31 284.71 143.648 284.975 143.1C285.239 142.546 285.609 142.094 286.083 141.743C286.557 141.392 287.108 141.124 287.735 140.94C288.369 140.755 289.053 140.635 289.785 140.58C290.579 140.518 291.216 140.444 291.696 140.358C292.183 140.266 292.534 140.139 292.749 139.979C292.964 139.813 293.072 139.595 293.072 139.324V139.287C293.072 138.918 292.931 138.634 292.647 138.438C292.364 138.241 292.001 138.142 291.558 138.142C291.072 138.142 290.675 138.25 290.367 138.465C290.065 138.674 289.884 138.998 289.822 139.435H285.132C285.193 138.573 285.467 137.779 285.954 137.053C286.446 136.32 287.163 135.735 288.105 135.298C289.047 134.855 290.222 134.634 291.632 134.634C292.647 134.634 293.558 134.754 294.365 134.994C295.171 135.228 295.857 135.557 296.424 135.982C296.99 136.4 297.421 136.893 297.716 137.459C298.018 138.019 298.169 138.628 298.169 139.287V149H293.404V147.006H293.294C293.011 147.535 292.666 147.963 292.26 148.289C291.86 148.615 291.401 148.852 290.884 149C290.373 149.148 289.81 149.222 289.194 149.222ZM290.856 146.009C291.244 146.009 291.607 145.929 291.946 145.768C292.29 145.608 292.57 145.378 292.786 145.076C293.001 144.774 293.109 144.408 293.109 143.977V142.795C292.974 142.851 292.829 142.903 292.675 142.952C292.527 143.002 292.367 143.048 292.195 143.091C292.029 143.134 291.85 143.174 291.659 143.211C291.475 143.248 291.281 143.282 291.078 143.312C290.684 143.374 290.361 143.476 290.108 143.617C289.862 143.753 289.677 143.922 289.554 144.125C289.437 144.322 289.379 144.544 289.379 144.79C289.379 145.184 289.517 145.485 289.794 145.695C290.071 145.904 290.425 146.009 290.856 146.009ZM305.7 141.023V149H300.604V134.818H305.442V137.514H305.59C305.897 136.616 306.439 135.911 307.215 135.4C307.996 134.889 308.907 134.634 309.948 134.634C310.951 134.634 311.822 134.864 312.561 135.326C313.305 135.781 313.881 136.409 314.287 137.21C314.7 138.01 314.903 138.924 314.897 139.952V149H309.8V141.023C309.806 140.321 309.628 139.77 309.264 139.37C308.907 138.97 308.409 138.77 307.769 138.77C307.35 138.77 306.984 138.862 306.67 139.047C306.362 139.225 306.125 139.484 305.959 139.822C305.793 140.155 305.707 140.555 305.7 141.023ZM321.364 149.222C320.459 149.222 319.659 149.074 318.964 148.778C318.274 148.477 317.733 148.021 317.339 147.412C316.945 146.803 316.748 146.027 316.748 145.085C316.748 144.31 316.88 143.648 317.145 143.1C317.409 142.546 317.779 142.094 318.253 141.743C318.727 141.392 319.278 141.124 319.905 140.94C320.539 140.755 321.223 140.635 321.955 140.58C322.749 140.518 323.386 140.444 323.866 140.358C324.353 140.266 324.703 140.139 324.919 139.979C325.134 139.813 325.242 139.595 325.242 139.324V139.287C325.242 138.918 325.1 138.634 324.817 138.438C324.534 138.241 324.171 138.142 323.728 138.142C323.242 138.142 322.845 138.25 322.537 138.465C322.235 138.674 322.054 138.998 321.992 139.435H317.302C317.363 138.573 317.637 137.779 318.123 137.053C318.616 136.32 319.333 135.735 320.275 135.298C321.216 134.855 322.392 134.634 323.802 134.634C324.817 134.634 325.728 134.754 326.535 134.994C327.341 135.228 328.027 135.557 328.594 135.982C329.16 136.4 329.591 136.893 329.886 137.459C330.188 138.019 330.339 138.628 330.339 139.287V149H325.574V147.006H325.464C325.18 147.535 324.836 147.963 324.43 148.289C324.029 148.615 323.571 148.852 323.054 149C322.543 149.148 321.98 149.222 321.364 149.222ZM323.026 146.009C323.414 146.009 323.777 145.929 324.116 145.768C324.46 145.608 324.74 145.378 324.956 145.076C325.171 144.774 325.279 144.408 325.279 143.977V142.795C325.144 142.851 324.999 142.903 324.845 142.952C324.697 143.002 324.537 143.048 324.365 143.091C324.199 143.134 324.02 143.174 323.829 143.211C323.645 143.248 323.451 143.282 323.248 143.312C322.854 143.374 322.531 143.476 322.278 143.617C322.032 143.753 321.847 143.922 321.724 144.125C321.607 144.322 321.549 144.544 321.549 144.79C321.549 145.184 321.687 145.485 321.964 145.695C322.241 145.904 322.595 146.009 323.026 146.009ZM338.683 130.091L338.203 143.091H333.993L333.512 130.091H338.683ZM336.098 149.295C335.384 149.295 334.771 149.046 334.26 148.548C333.756 148.043 333.506 147.43 333.512 146.71C333.506 146.009 333.756 145.408 334.26 144.91C334.771 144.411 335.384 144.162 336.098 144.162C336.775 144.162 337.372 144.411 337.889 144.91C338.412 145.408 338.677 146.009 338.683 146.71C338.677 147.19 338.551 147.627 338.304 148.021C338.064 148.409 337.75 148.72 337.363 148.954C336.975 149.182 336.553 149.295 336.098 149.295Z" fill="#39342D"/>
<path d="M118.991 168.955C118.94 168.523 118.733 168.188 118.369 167.949C118.006 167.71 117.56 167.591 117.031 167.591C116.645 167.591 116.307 167.653 116.017 167.778C115.73 167.903 115.506 168.075 115.344 168.294C115.185 168.513 115.105 168.761 115.105 169.04C115.105 169.273 115.16 169.473 115.271 169.641C115.385 169.805 115.53 169.943 115.706 170.054C115.882 170.162 116.067 170.251 116.26 170.322C116.453 170.391 116.631 170.446 116.793 170.489L117.679 170.727C117.906 170.787 118.159 170.869 118.437 170.974C118.719 171.08 118.987 171.223 119.243 171.405C119.501 171.584 119.714 171.814 119.882 172.095C120.05 172.376 120.133 172.722 120.133 173.131C120.133 173.602 120.01 174.028 119.763 174.409C119.518 174.79 119.16 175.092 118.689 175.317C118.22 175.541 117.651 175.653 116.98 175.653C116.355 175.653 115.814 175.553 115.356 175.351C114.902 175.149 114.544 174.868 114.283 174.507C114.024 174.146 113.878 173.727 113.844 173.25H114.935C114.963 173.58 115.074 173.852 115.267 174.068C115.463 174.281 115.71 174.44 116.008 174.545C116.31 174.648 116.633 174.699 116.98 174.699C117.383 174.699 117.746 174.634 118.067 174.503C118.388 174.369 118.642 174.185 118.829 173.949C119.017 173.71 119.111 173.432 119.111 173.114C119.111 172.824 119.03 172.588 118.868 172.406C118.706 172.224 118.493 172.077 118.229 171.963C117.964 171.849 117.679 171.75 117.372 171.665L116.298 171.358C115.616 171.162 115.077 170.882 114.679 170.518C114.281 170.155 114.082 169.679 114.082 169.091C114.082 168.602 114.214 168.176 114.479 167.812C114.746 167.446 115.104 167.162 115.552 166.96C116.004 166.756 116.508 166.653 117.065 166.653C117.628 166.653 118.128 166.754 118.565 166.956C119.003 167.155 119.349 167.428 119.605 167.774C119.864 168.121 120 168.514 120.014 168.955H118.991ZM124.394 175.636C123.803 175.636 123.284 175.496 122.838 175.214C122.395 174.933 122.049 174.54 121.799 174.034C121.551 173.528 121.428 172.937 121.428 172.261C121.428 171.58 121.551 170.984 121.799 170.476C122.049 169.967 122.395 169.572 122.838 169.291C123.284 169.01 123.803 168.869 124.394 168.869C124.985 168.869 125.502 169.01 125.945 169.291C126.391 169.572 126.738 169.967 126.985 170.476C127.235 170.984 127.36 171.58 127.36 172.261C127.36 172.937 127.235 173.528 126.985 174.034C126.738 174.54 126.391 174.933 125.945 175.214C125.502 175.496 124.985 175.636 124.394 175.636ZM124.394 174.733C124.843 174.733 125.212 174.618 125.502 174.388C125.791 174.158 126.006 173.855 126.145 173.48C126.284 173.105 126.354 172.699 126.354 172.261C126.354 171.824 126.284 171.416 126.145 171.038C126.006 170.661 125.791 170.355 125.502 170.122C125.212 169.889 124.843 169.773 124.394 169.773C123.945 169.773 123.576 169.889 123.286 170.122C122.996 170.355 122.782 170.661 122.642 171.038C122.503 171.416 122.434 171.824 122.434 172.261C122.434 172.699 122.503 173.105 122.642 173.48C122.782 173.855 122.996 174.158 123.286 174.388C123.576 174.618 123.945 174.733 124.394 174.733ZM131.81 168.955V169.807H128.281V168.955H131.81ZM129.338 175.5V168.051C129.338 167.676 129.426 167.364 129.602 167.114C129.778 166.864 130.007 166.676 130.288 166.551C130.57 166.426 130.866 166.364 131.179 166.364C131.426 166.364 131.628 166.384 131.784 166.423C131.94 166.463 132.057 166.5 132.133 166.534L131.844 167.403C131.793 167.386 131.722 167.365 131.631 167.339C131.543 167.314 131.426 167.301 131.281 167.301C130.949 167.301 130.709 167.385 130.561 167.553C130.416 167.72 130.344 167.966 130.344 168.29V175.5H129.338ZM136.066 168.955V169.807H132.674V168.955H136.066ZM133.662 167.386H134.668V173.625C134.668 173.909 134.709 174.122 134.791 174.264C134.877 174.403 134.985 174.497 135.115 174.545C135.249 174.591 135.389 174.614 135.537 174.614C135.648 174.614 135.739 174.608 135.81 174.597C135.881 174.582 135.938 174.571 135.98 174.562L136.185 175.466C136.117 175.491 136.022 175.517 135.899 175.543C135.777 175.571 135.622 175.585 135.435 175.585C135.151 175.585 134.872 175.524 134.6 175.402C134.33 175.28 134.105 175.094 133.926 174.844C133.75 174.594 133.662 174.278 133.662 173.898V167.386ZM139.061 175.5L137.067 168.955H138.124L139.539 173.966H139.607L141.005 168.955H142.078L143.459 173.949H143.527L144.942 168.955H145.999L144.005 175.5H143.016L141.584 170.472H141.482L140.05 175.5H139.061ZM149.255 175.653C148.84 175.653 148.463 175.575 148.125 175.419C147.787 175.26 147.519 175.031 147.32 174.733C147.121 174.432 147.022 174.068 147.022 173.642C147.022 173.267 147.095 172.963 147.243 172.73C147.391 172.494 147.588 172.31 147.836 172.176C148.083 172.043 148.355 171.943 148.654 171.878C148.955 171.81 149.257 171.756 149.561 171.716C149.959 171.665 150.282 171.626 150.529 171.601C150.779 171.572 150.961 171.526 151.074 171.46C151.191 171.395 151.249 171.281 151.249 171.119V171.085C151.249 170.665 151.134 170.338 150.904 170.105C150.676 169.872 150.331 169.756 149.868 169.756C149.388 169.756 149.012 169.861 148.739 170.071C148.466 170.281 148.274 170.506 148.164 170.744L147.209 170.403C147.38 170.006 147.607 169.696 147.891 169.474C148.178 169.25 148.49 169.094 148.828 169.006C149.169 168.915 149.505 168.869 149.834 168.869C150.044 168.869 150.286 168.895 150.559 168.946C150.834 168.994 151.1 169.095 151.355 169.249C151.614 169.402 151.828 169.634 151.999 169.943C152.169 170.253 152.255 170.668 152.255 171.188V175.5H151.249V174.614H151.198C151.13 174.756 151.016 174.908 150.857 175.07C150.698 175.232 150.486 175.369 150.222 175.483C149.958 175.597 149.635 175.653 149.255 175.653ZM149.408 174.75C149.806 174.75 150.141 174.672 150.414 174.516C150.689 174.359 150.897 174.158 151.036 173.911C151.178 173.663 151.249 173.403 151.249 173.131V172.21C151.206 172.261 151.113 172.308 150.968 172.351C150.826 172.391 150.661 172.426 150.473 172.457C150.289 172.486 150.108 172.511 149.932 172.534C149.759 172.554 149.618 172.571 149.51 172.585C149.249 172.619 149.005 172.675 148.777 172.751C148.553 172.825 148.371 172.937 148.232 173.088C148.095 173.236 148.027 173.437 148.027 173.693C148.027 174.043 148.157 174.307 148.415 174.486C148.676 174.662 149.007 174.75 149.408 174.75ZM154.09 175.5V168.955H155.062V169.943H155.13C155.249 169.619 155.465 169.357 155.778 169.155C156.09 168.953 156.442 168.852 156.834 168.852C156.908 168.852 157.001 168.854 157.111 168.857C157.222 168.859 157.306 168.864 157.363 168.869V169.892C157.329 169.884 157.251 169.871 157.128 169.854C157.009 169.834 156.883 169.824 156.749 169.824C156.431 169.824 156.147 169.891 155.897 170.024C155.65 170.155 155.454 170.337 155.309 170.57C155.167 170.8 155.096 171.062 155.096 171.358V175.5H154.09ZM161.1 175.636C160.469 175.636 159.925 175.497 159.468 175.219C159.013 174.938 158.663 174.545 158.415 174.043C158.171 173.537 158.049 172.949 158.049 172.278C158.049 171.608 158.171 171.017 158.415 170.506C158.663 169.991 159.006 169.591 159.447 169.304C159.89 169.014 160.407 168.869 160.998 168.869C161.339 168.869 161.675 168.926 162.008 169.04C162.34 169.153 162.643 169.338 162.915 169.594C163.188 169.847 163.405 170.182 163.567 170.599C163.729 171.017 163.81 171.531 163.81 172.142V172.568H158.765V171.699H162.788C162.788 171.33 162.714 171 162.566 170.71C162.421 170.42 162.214 170.192 161.944 170.024C161.677 169.857 161.361 169.773 160.998 169.773C160.597 169.773 160.251 169.872 159.958 170.071C159.668 170.267 159.445 170.523 159.289 170.838C159.133 171.153 159.055 171.491 159.055 171.852V172.432C159.055 172.926 159.14 173.345 159.31 173.689C159.484 174.03 159.724 174.29 160.03 174.469C160.337 174.645 160.694 174.733 161.1 174.733C161.364 174.733 161.603 174.696 161.816 174.622C162.032 174.545 162.218 174.432 162.374 174.281C162.53 174.128 162.651 173.937 162.736 173.71L163.708 173.983C163.606 174.312 163.434 174.602 163.192 174.852C162.951 175.099 162.653 175.293 162.298 175.432C161.942 175.568 161.543 175.636 161.1 175.636ZM168.851 175.5V166.773H174.119V167.71H169.908V170.659H173.846V171.597H169.908V174.562H174.187V175.5H168.851ZM176.893 171.562V175.5H175.887V168.955H176.859V169.977H176.944C177.097 169.645 177.33 169.378 177.643 169.176C177.955 168.972 178.359 168.869 178.853 168.869C179.296 168.869 179.684 168.96 180.016 169.142C180.349 169.321 180.607 169.594 180.792 169.96C180.976 170.324 181.069 170.784 181.069 171.341V175.5H180.063V171.409C180.063 170.895 179.93 170.494 179.663 170.207C179.396 169.918 179.029 169.773 178.563 169.773C178.242 169.773 177.955 169.842 177.702 169.982C177.452 170.121 177.255 170.324 177.11 170.591C176.965 170.858 176.893 171.182 176.893 171.562ZM185.549 178.091C185.063 178.091 184.645 178.028 184.296 177.903C183.946 177.781 183.655 177.619 183.422 177.418C183.192 177.219 183.009 177.006 182.872 176.778L183.674 176.216C183.764 176.335 183.88 176.472 184.019 176.625C184.158 176.781 184.348 176.916 184.59 177.03C184.834 177.146 185.154 177.205 185.549 177.205C186.077 177.205 186.513 177.077 186.857 176.821C187.201 176.565 187.372 176.165 187.372 175.619V174.29H187.287C187.213 174.409 187.108 174.557 186.972 174.733C186.838 174.906 186.645 175.061 186.392 175.197C186.142 175.331 185.804 175.398 185.378 175.398C184.85 175.398 184.375 175.273 183.955 175.023C183.537 174.773 183.206 174.409 182.962 173.932C182.72 173.455 182.6 172.875 182.6 172.193C182.6 171.523 182.718 170.939 182.953 170.442C183.189 169.942 183.517 169.555 183.938 169.283C184.358 169.007 184.844 168.869 185.395 168.869C185.821 168.869 186.159 168.94 186.409 169.082C186.662 169.222 186.855 169.381 186.989 169.56C187.125 169.736 187.23 169.881 187.304 169.994H187.407V168.955H188.378V175.688C188.378 176.25 188.25 176.707 187.995 177.06C187.742 177.415 187.401 177.675 186.972 177.839C186.546 178.007 186.071 178.091 185.549 178.091ZM185.514 174.494C185.918 174.494 186.259 174.402 186.537 174.217C186.816 174.033 187.027 173.767 187.172 173.42C187.317 173.074 187.389 172.659 187.389 172.176C187.389 171.705 187.318 171.288 187.176 170.928C187.034 170.567 186.824 170.284 186.546 170.08C186.267 169.875 185.924 169.773 185.514 169.773C185.088 169.773 184.733 169.881 184.449 170.097C184.168 170.312 183.956 170.602 183.814 170.966C183.675 171.33 183.605 171.733 183.605 172.176C183.605 172.631 183.676 173.033 183.818 173.382C183.963 173.729 184.176 174.001 184.458 174.2C184.742 174.396 185.094 174.494 185.514 174.494ZM190.219 175.5V168.955H191.225V175.5H190.219ZM190.73 167.864C190.534 167.864 190.365 167.797 190.223 167.663C190.084 167.53 190.014 167.369 190.014 167.182C190.014 166.994 190.084 166.834 190.223 166.7C190.365 166.567 190.534 166.5 190.73 166.5C190.926 166.5 191.094 166.567 191.233 166.7C191.375 166.834 191.446 166.994 191.446 167.182C191.446 167.369 191.375 167.53 191.233 167.663C191.094 167.797 190.926 167.864 190.73 167.864ZM194.072 171.562V175.5H193.067V168.955H194.038V169.977H194.124C194.277 169.645 194.51 169.378 194.822 169.176C195.135 168.972 195.538 168.869 196.033 168.869C196.476 168.869 196.864 168.96 197.196 169.142C197.528 169.321 197.787 169.594 197.972 169.96C198.156 170.324 198.249 170.784 198.249 171.341V175.5H197.243V171.409C197.243 170.895 197.109 170.494 196.842 170.207C196.575 169.918 196.209 169.773 195.743 169.773C195.422 169.773 195.135 169.842 194.882 169.982C194.632 170.121 194.435 170.324 194.29 170.591C194.145 170.858 194.072 171.182 194.072 171.562ZM202.831 175.636C202.2 175.636 201.656 175.497 201.198 175.219C200.744 174.938 200.393 174.545 200.146 174.043C199.902 173.537 199.779 172.949 199.779 172.278C199.779 171.608 199.902 171.017 200.146 170.506C200.393 169.991 200.737 169.591 201.177 169.304C201.62 169.014 202.137 168.869 202.728 168.869C203.069 168.869 203.406 168.926 203.738 169.04C204.071 169.153 204.373 169.338 204.646 169.594C204.919 169.847 205.136 170.182 205.298 170.599C205.46 171.017 205.541 171.531 205.541 172.142V172.568H200.495V171.699H204.518C204.518 171.33 204.444 171 204.296 170.71C204.152 170.42 203.944 170.192 203.674 170.024C203.407 169.857 203.092 169.773 202.728 169.773C202.328 169.773 201.981 169.872 201.688 170.071C201.399 170.267 201.176 170.523 201.019 170.838C200.863 171.153 200.785 171.491 200.785 171.852V172.432C200.785 172.926 200.87 173.345 201.041 173.689C201.214 174.03 201.454 174.29 201.761 174.469C202.068 174.645 202.424 174.733 202.831 174.733C203.095 174.733 203.333 174.696 203.546 174.622C203.762 174.545 203.948 174.432 204.105 174.281C204.261 174.128 204.382 173.937 204.467 173.71L205.438 173.983C205.336 174.312 205.164 174.602 204.923 174.852C204.681 175.099 204.383 175.293 204.028 175.432C203.673 175.568 203.274 175.636 202.831 175.636ZM209.815 175.636C209.184 175.636 208.64 175.497 208.183 175.219C207.728 174.938 207.377 174.545 207.13 174.043C206.886 173.537 206.764 172.949 206.764 172.278C206.764 171.608 206.886 171.017 207.13 170.506C207.377 169.991 207.721 169.591 208.162 169.304C208.605 169.014 209.122 168.869 209.713 168.869C210.054 168.869 210.39 168.926 210.723 169.04C211.055 169.153 211.358 169.338 211.63 169.594C211.903 169.847 212.12 170.182 212.282 170.599C212.444 171.017 212.525 171.531 212.525 172.142V172.568H207.48V171.699H211.502C211.502 171.33 211.429 171 211.281 170.71C211.136 170.42 210.929 170.192 210.659 170.024C210.392 169.857 210.076 169.773 209.713 169.773C209.312 169.773 208.965 169.872 208.673 170.071C208.383 170.267 208.16 170.523 208.004 170.838C207.848 171.153 207.769 171.491 207.769 171.852V172.432C207.769 172.926 207.855 173.345 208.025 173.689C208.198 174.03 208.438 174.29 208.745 174.469C209.052 174.645 209.409 174.733 209.815 174.733C210.079 174.733 210.318 174.696 210.531 174.622C210.747 174.545 210.933 174.432 211.089 174.281C211.245 174.128 211.366 173.937 211.451 173.71L212.423 173.983C212.321 174.312 212.149 174.602 211.907 174.852C211.666 175.099 211.367 175.293 211.012 175.432C210.657 175.568 210.258 175.636 209.815 175.636ZM214.055 175.5V168.955H215.027V169.943H215.095C215.214 169.619 215.43 169.357 215.742 169.155C216.055 168.953 216.407 168.852 216.799 168.852C216.873 168.852 216.965 168.854 217.076 168.857C217.187 168.859 217.271 168.864 217.328 168.869V169.892C217.294 169.884 217.215 169.871 217.093 169.854C216.974 169.834 216.848 169.824 216.714 169.824C216.396 169.824 216.112 169.891 215.862 170.024C215.615 170.155 215.419 170.337 215.274 170.57C215.132 170.8 215.061 171.062 215.061 171.358V175.5H214.055ZM222.031 175.5V166.773H223.037V169.994H223.122C223.196 169.881 223.298 169.736 223.429 169.56C223.562 169.381 223.753 169.222 224 169.082C224.25 168.94 224.588 168.869 225.014 168.869C225.565 168.869 226.051 169.007 226.472 169.283C226.892 169.558 227.22 169.949 227.456 170.455C227.692 170.96 227.81 171.557 227.81 172.244C227.81 172.938 227.692 173.538 227.456 174.047C227.22 174.553 226.893 174.945 226.476 175.223C226.058 175.499 225.577 175.636 225.031 175.636C224.611 175.636 224.274 175.567 224.021 175.428C223.768 175.286 223.574 175.125 223.437 174.946C223.301 174.764 223.196 174.614 223.122 174.494H223.003V175.5H222.031ZM223.02 172.227C223.02 172.722 223.092 173.158 223.237 173.536C223.382 173.911 223.594 174.205 223.872 174.418C224.151 174.628 224.491 174.733 224.895 174.733C225.315 174.733 225.666 174.622 225.947 174.401C226.231 174.176 226.445 173.875 226.587 173.497C226.731 173.116 226.804 172.693 226.804 172.227C226.804 171.767 226.733 171.352 226.591 170.983C226.452 170.611 226.24 170.317 225.956 170.101C225.675 169.882 225.321 169.773 224.895 169.773C224.486 169.773 224.142 169.876 223.864 170.084C223.585 170.288 223.375 170.575 223.233 170.945C223.091 171.311 223.02 171.739 223.02 172.227ZM231.274 175.653C230.859 175.653 230.483 175.575 230.145 175.419C229.807 175.26 229.538 175.031 229.339 174.733C229.141 174.432 229.041 174.068 229.041 173.642C229.041 173.267 229.115 172.963 229.263 172.73C229.41 172.494 229.608 172.31 229.855 172.176C230.102 172.043 230.375 171.943 230.673 171.878C230.974 171.81 231.277 171.756 231.581 171.716C231.979 171.665 232.301 171.626 232.548 171.601C232.798 171.572 232.98 171.526 233.094 171.46C233.21 171.395 233.268 171.281 233.268 171.119V171.085C233.268 170.665 233.153 170.338 232.923 170.105C232.696 169.872 232.351 169.756 231.888 169.756C231.408 169.756 231.031 169.861 230.758 170.071C230.486 170.281 230.294 170.506 230.183 170.744L229.229 170.403C229.399 170.006 229.626 169.696 229.91 169.474C230.197 169.25 230.51 169.094 230.848 169.006C231.189 168.915 231.524 168.869 231.854 168.869C232.064 168.869 232.305 168.895 232.578 168.946C232.854 168.994 233.119 169.095 233.375 169.249C233.633 169.402 233.848 169.634 234.018 169.943C234.189 170.253 234.274 170.668 234.274 171.188V175.5H233.268V174.614H233.217C233.149 174.756 233.035 174.908 232.876 175.07C232.717 175.232 232.506 175.369 232.241 175.483C231.977 175.597 231.655 175.653 231.274 175.653ZM231.427 174.75C231.825 174.75 232.16 174.672 232.433 174.516C232.709 174.359 232.916 174.158 233.055 173.911C233.197 173.663 233.268 173.403 233.268 173.131V172.21C233.226 172.261 233.132 172.308 232.987 172.351C232.845 172.391 232.68 172.426 232.493 172.457C232.308 172.486 232.128 172.511 231.952 172.534C231.778 172.554 231.638 172.571 231.53 172.585C231.268 172.619 231.024 172.675 230.797 172.751C230.572 172.825 230.391 172.937 230.251 173.088C230.115 173.236 230.047 173.437 230.047 173.693C230.047 174.043 230.176 174.307 230.435 174.486C230.696 174.662 231.027 174.75 231.427 174.75ZM240.746 170.42L239.843 170.676C239.786 170.526 239.702 170.379 239.591 170.237C239.483 170.092 239.336 169.973 239.148 169.879C238.961 169.786 238.72 169.739 238.428 169.739C238.027 169.739 237.693 169.831 237.426 170.016C237.162 170.197 237.03 170.429 237.03 170.71C237.03 170.96 237.121 171.158 237.303 171.303C237.485 171.447 237.769 171.568 238.155 171.665L239.127 171.903C239.712 172.045 240.148 172.263 240.435 172.555C240.722 172.845 240.865 173.219 240.865 173.676C240.865 174.051 240.757 174.386 240.541 174.682C240.328 174.977 240.03 175.21 239.647 175.381C239.263 175.551 238.817 175.636 238.309 175.636C237.641 175.636 237.088 175.491 236.651 175.202C236.213 174.912 235.936 174.489 235.82 173.932L236.774 173.693C236.865 174.045 237.037 174.31 237.29 174.486C237.546 174.662 237.88 174.75 238.291 174.75C238.76 174.75 239.132 174.651 239.408 174.452C239.686 174.25 239.826 174.009 239.826 173.727C239.826 173.5 239.746 173.31 239.587 173.156C239.428 173 239.184 172.884 238.854 172.807L237.763 172.551C237.164 172.409 236.723 172.189 236.442 171.891C236.164 171.589 236.024 171.213 236.024 170.761C236.024 170.392 236.128 170.065 236.336 169.781C236.546 169.497 236.831 169.274 237.192 169.112C237.556 168.95 237.968 168.869 238.428 168.869C239.076 168.869 239.584 169.011 239.953 169.295C240.326 169.58 240.59 169.955 240.746 170.42ZM245.124 175.636C244.493 175.636 243.949 175.497 243.491 175.219C243.037 174.938 242.686 174.545 242.439 174.043C242.195 173.537 242.072 172.949 242.072 172.278C242.072 171.608 242.195 171.017 242.439 170.506C242.686 169.991 243.03 169.591 243.47 169.304C243.913 169.014 244.43 168.869 245.021 168.869C245.362 168.869 245.699 168.926 246.031 169.04C246.364 169.153 246.666 169.338 246.939 169.594C247.212 169.847 247.429 170.182 247.591 170.599C247.753 171.017 247.834 171.531 247.834 172.142V172.568H242.788V171.699H246.811C246.811 171.33 246.737 171 246.589 170.71C246.445 170.42 246.237 170.192 245.967 170.024C245.7 169.857 245.385 169.773 245.021 169.773C244.621 169.773 244.274 169.872 243.981 170.071C243.692 170.267 243.469 170.523 243.312 170.838C243.156 171.153 243.078 171.491 243.078 171.852V172.432C243.078 172.926 243.163 173.345 243.334 173.689C243.507 174.03 243.747 174.29 244.054 174.469C244.361 174.645 244.717 174.733 245.124 174.733C245.388 174.733 245.626 174.696 245.839 174.622C246.055 174.545 246.241 174.432 246.398 174.281C246.554 174.128 246.675 173.937 246.76 173.71L247.731 173.983C247.629 174.312 247.457 174.602 247.216 174.852C246.974 175.099 246.676 175.293 246.321 175.432C245.966 175.568 245.567 175.636 245.124 175.636ZM251.835 175.636C251.29 175.636 250.808 175.499 250.391 175.223C249.973 174.945 249.646 174.553 249.41 174.047C249.175 173.538 249.057 172.938 249.057 172.244C249.057 171.557 249.175 170.96 249.41 170.455C249.646 169.949 249.974 169.558 250.395 169.283C250.815 169.007 251.301 168.869 251.852 168.869C252.278 168.869 252.615 168.94 252.862 169.082C253.112 169.222 253.302 169.381 253.433 169.56C253.567 169.736 253.67 169.881 253.744 169.994H253.829V166.773H254.835V175.5H253.864V174.494H253.744C253.67 174.614 253.565 174.764 253.429 174.946C253.293 175.125 253.098 175.286 252.845 175.428C252.592 175.567 252.256 175.636 251.835 175.636ZM251.972 174.733C252.375 174.733 252.716 174.628 252.994 174.418C253.273 174.205 253.484 173.911 253.629 173.536C253.774 173.158 253.847 172.722 253.847 172.227C253.847 171.739 253.776 171.311 253.633 170.945C253.491 170.575 253.281 170.288 253.003 170.084C252.724 169.876 252.381 169.773 251.972 169.773C251.545 169.773 251.19 169.882 250.906 170.101C250.625 170.317 250.413 170.611 250.271 170.983C250.132 171.352 250.062 171.767 250.062 172.227C250.062 172.693 250.133 173.116 250.276 173.497C250.42 173.875 250.633 174.176 250.915 174.401C251.199 174.622 251.551 174.733 251.972 174.733ZM260.192 175.5V168.955H261.197V175.5H260.192ZM260.703 167.864C260.507 167.864 260.338 167.797 260.196 167.663C260.057 167.53 259.987 167.369 259.987 167.182C259.987 166.994 260.057 166.834 260.196 166.7C260.338 166.567 260.507 166.5 260.703 166.5C260.899 166.5 261.067 166.567 261.206 166.7C261.348 166.834 261.419 166.994 261.419 167.182C261.419 167.369 261.348 167.53 261.206 167.663C261.067 167.797 260.899 167.864 260.703 167.864ZM264.045 171.562V175.5H263.039V168.955H264.011V169.977H264.096C264.25 169.645 264.483 169.378 264.795 169.176C265.108 168.972 265.511 168.869 266.005 168.869C266.448 168.869 266.836 168.96 267.169 169.142C267.501 169.321 267.76 169.594 267.944 169.96C268.129 170.324 268.221 170.784 268.221 171.341V175.5H267.215V171.409C267.215 170.895 267.082 170.494 266.815 170.207C266.548 169.918 266.181 169.773 265.715 169.773C265.394 169.773 265.108 169.842 264.855 169.982C264.605 170.121 264.407 170.324 264.262 170.591C264.117 170.858 264.045 171.182 264.045 171.562ZM273.928 175.5H272.82L276.025 166.773H277.116L280.32 175.5H279.212L276.604 168.153H276.536L273.928 175.5ZM274.337 172.091H278.803V173.028H274.337V172.091ZM281.543 175.5V168.955H282.515V169.977H282.6C282.736 169.628 282.957 169.357 283.261 169.163C283.565 168.967 283.93 168.869 284.356 168.869C284.788 168.869 285.147 168.967 285.434 169.163C285.724 169.357 285.95 169.628 286.111 169.977H286.18C286.347 169.639 286.599 169.371 286.934 169.172C287.269 168.97 287.671 168.869 288.14 168.869C288.725 168.869 289.204 169.053 289.576 169.419C289.948 169.783 290.134 170.349 290.134 171.119V175.5H289.128V171.119C289.128 170.636 288.996 170.291 288.732 170.084C288.468 169.876 288.157 169.773 287.799 169.773C287.339 169.773 286.982 169.912 286.729 170.19C286.476 170.466 286.35 170.815 286.35 171.239V175.5H285.327V171.017C285.327 170.645 285.207 170.345 284.965 170.118C284.724 169.888 284.413 169.773 284.032 169.773C283.771 169.773 283.526 169.842 283.299 169.982C283.075 170.121 282.893 170.314 282.753 170.561C282.617 170.805 282.549 171.088 282.549 171.409V175.5H281.543ZM296.609 170.42L295.706 170.676C295.649 170.526 295.565 170.379 295.454 170.237C295.347 170.092 295.199 169.973 295.011 169.879C294.824 169.786 294.584 169.739 294.291 169.739C293.891 169.739 293.557 169.831 293.29 170.016C293.026 170.197 292.893 170.429 292.893 170.71C292.893 170.96 292.984 171.158 293.166 171.303C293.348 171.447 293.632 171.568 294.018 171.665L294.99 171.903C295.575 172.045 296.011 172.263 296.298 172.555C296.585 172.845 296.729 173.219 296.729 173.676C296.729 174.051 296.621 174.386 296.405 174.682C296.192 174.977 295.893 175.21 295.51 175.381C295.126 175.551 294.68 175.636 294.172 175.636C293.504 175.636 292.952 175.491 292.514 175.202C292.077 174.912 291.8 174.489 291.683 173.932L292.638 173.693C292.729 174.045 292.901 174.31 293.153 174.486C293.409 174.662 293.743 174.75 294.155 174.75C294.624 174.75 294.996 174.651 295.271 174.452C295.55 174.25 295.689 174.009 295.689 173.727C295.689 173.5 295.609 173.31 295.45 173.156C295.291 173 295.047 172.884 294.717 172.807L293.626 172.551C293.027 172.409 292.587 172.189 292.305 171.891C292.027 171.589 291.888 171.213 291.888 170.761C291.888 170.392 291.991 170.065 292.199 169.781C292.409 169.497 292.695 169.274 293.055 169.112C293.419 168.95 293.831 168.869 294.291 168.869C294.939 168.869 295.447 169.011 295.817 169.295C296.189 169.58 296.453 169.955 296.609 170.42ZM301.089 168.955V169.807H297.697V168.955H301.089ZM298.686 167.386H299.691V173.625C299.691 173.909 299.733 174.122 299.815 174.264C299.9 174.403 300.008 174.497 300.139 174.545C300.272 174.591 300.413 174.614 300.561 174.614C300.671 174.614 300.762 174.608 300.833 174.597C300.904 174.582 300.961 174.571 301.004 174.562L301.208 175.466C301.14 175.491 301.045 175.517 300.923 175.543C300.801 175.571 300.646 175.585 300.458 175.585C300.174 175.585 299.896 175.524 299.623 175.402C299.353 175.28 299.129 175.094 298.95 174.844C298.774 174.594 298.686 174.278 298.686 173.898V167.386ZM305.276 175.636C304.645 175.636 304.101 175.497 303.644 175.219C303.189 174.938 302.838 174.545 302.591 174.043C302.347 173.537 302.225 172.949 302.225 172.278C302.225 171.608 302.347 171.017 302.591 170.506C302.838 169.991 303.182 169.591 303.622 169.304C304.066 169.014 304.583 168.869 305.174 168.869C305.514 168.869 305.851 168.926 306.184 169.04C306.516 169.153 306.818 169.338 307.091 169.594C307.364 169.847 307.581 170.182 307.743 170.599C307.905 171.017 307.986 171.531 307.986 172.142V172.568H302.941V171.699H306.963C306.963 171.33 306.889 171 306.742 170.71C306.597 170.42 306.389 170.192 306.12 170.024C305.853 169.857 305.537 169.773 305.174 169.773C304.773 169.773 304.426 169.872 304.134 170.071C303.844 170.267 303.621 170.523 303.465 170.838C303.309 171.153 303.23 171.491 303.23 171.852V172.432C303.23 172.926 303.316 173.345 303.486 173.689C303.659 174.03 303.899 174.29 304.206 174.469C304.513 174.645 304.87 174.733 305.276 174.733C305.54 174.733 305.779 174.696 305.992 174.622C306.208 174.545 306.394 174.432 306.55 174.281C306.706 174.128 306.827 173.937 306.912 173.71L307.884 173.983C307.782 174.312 307.61 174.602 307.368 174.852C307.127 175.099 306.828 175.293 306.473 175.432C306.118 175.568 305.719 175.636 305.276 175.636ZM309.516 175.5V168.955H310.488V169.943H310.556C310.675 169.619 310.891 169.357 311.203 169.155C311.516 168.953 311.868 168.852 312.26 168.852C312.334 168.852 312.426 168.854 312.537 168.857C312.648 168.859 312.732 168.864 312.789 168.869V169.892C312.755 169.884 312.676 169.871 312.554 169.854C312.435 169.834 312.309 169.824 312.175 169.824C311.857 169.824 311.573 169.891 311.323 170.024C311.076 170.155 310.88 170.337 310.735 170.57C310.593 170.8 310.522 171.062 310.522 171.358V175.5H309.516ZM316.253 175.636C315.708 175.636 315.226 175.499 314.809 175.223C314.391 174.945 314.064 174.553 313.828 174.047C313.593 173.538 313.475 172.938 313.475 172.244C313.475 171.557 313.593 170.96 313.828 170.455C314.064 169.949 314.392 169.558 314.813 169.283C315.233 169.007 315.719 168.869 316.27 168.869C316.696 168.869 317.033 168.94 317.28 169.082C317.53 169.222 317.72 169.381 317.851 169.56C317.985 169.736 318.088 169.881 318.162 169.994H318.247V166.773H319.253V175.5H318.282V174.494H318.162C318.088 174.614 317.983 174.764 317.847 174.946C317.711 175.125 317.516 175.286 317.263 175.428C317.01 175.567 316.674 175.636 316.253 175.636ZM316.389 174.733C316.793 174.733 317.134 174.628 317.412 174.418C317.691 174.205 317.902 173.911 318.047 173.536C318.192 173.158 318.264 172.722 318.264 172.227C318.264 171.739 318.193 171.311 318.051 170.945C317.909 170.575 317.699 170.288 317.421 170.084C317.142 169.876 316.799 169.773 316.389 169.773C315.963 169.773 315.608 169.882 315.324 170.101C315.043 170.317 314.831 170.611 314.689 170.983C314.55 171.352 314.48 171.767 314.48 172.227C314.48 172.693 314.551 173.116 314.693 173.497C314.838 173.875 315.051 174.176 315.333 174.401C315.617 174.622 315.969 174.733 316.389 174.733ZM323.161 175.653C322.746 175.653 322.37 175.575 322.032 175.419C321.693 175.26 321.425 175.031 321.226 174.733C321.027 174.432 320.928 174.068 320.928 173.642C320.928 173.267 321.002 172.963 321.149 172.73C321.297 172.494 321.495 172.31 321.742 172.176C321.989 172.043 322.262 171.943 322.56 171.878C322.861 171.81 323.164 171.756 323.468 171.716C323.865 171.665 324.188 171.626 324.435 171.601C324.685 171.572 324.867 171.526 324.98 171.46C325.097 171.395 325.155 171.281 325.155 171.119V171.085C325.155 170.665 325.04 170.338 324.81 170.105C324.583 169.872 324.238 169.756 323.774 169.756C323.294 169.756 322.918 169.861 322.645 170.071C322.372 170.281 322.181 170.506 322.07 170.744L321.115 170.403C321.286 170.006 321.513 169.696 321.797 169.474C322.084 169.25 322.397 169.094 322.735 169.006C323.076 168.915 323.411 168.869 323.74 168.869C323.951 168.869 324.192 168.895 324.465 168.946C324.74 168.994 325.006 169.095 325.262 169.249C325.52 169.402 325.735 169.634 325.905 169.943C326.076 170.253 326.161 170.668 326.161 171.188V175.5H325.155V174.614H325.104C325.036 174.756 324.922 174.908 324.763 175.07C324.604 175.232 324.392 175.369 324.128 175.483C323.864 175.597 323.541 175.653 323.161 175.653ZM323.314 174.75C323.712 174.75 324.047 174.672 324.32 174.516C324.595 174.359 324.803 174.158 324.942 173.911C325.084 173.663 325.155 173.403 325.155 173.131V172.21C325.113 172.261 325.019 172.308 324.874 172.351C324.732 172.391 324.567 172.426 324.38 172.457C324.195 172.486 324.014 172.511 323.838 172.534C323.665 172.554 323.524 172.571 323.416 172.585C323.155 172.619 322.911 172.675 322.684 172.751C322.459 172.825 322.277 172.937 322.138 173.088C322.002 173.236 321.934 173.437 321.934 173.693C321.934 174.043 322.063 174.307 322.321 174.486C322.583 174.662 322.914 174.75 323.314 174.75ZM327.996 175.5V168.955H328.968V169.977H329.053C329.19 169.628 329.41 169.357 329.714 169.163C330.018 168.967 330.383 168.869 330.809 168.869C331.241 168.869 331.6 168.967 331.887 169.163C332.177 169.357 332.403 169.628 332.565 169.977H332.633C332.8 169.639 333.052 169.371 333.387 169.172C333.722 168.97 334.124 168.869 334.593 168.869C335.178 168.869 335.657 169.053 336.029 169.419C336.401 169.783 336.587 170.349 336.587 171.119V175.5H335.582V171.119C335.582 170.636 335.45 170.291 335.185 170.084C334.921 169.876 334.61 169.773 334.252 169.773C333.792 169.773 333.435 169.912 333.182 170.19C332.93 170.466 332.803 170.815 332.803 171.239V175.5H331.78V171.017C331.78 170.645 331.66 170.345 331.418 170.118C331.177 169.888 330.866 169.773 330.485 169.773C330.224 169.773 329.979 169.842 329.752 169.982C329.528 170.121 329.346 170.314 329.207 170.561C329.07 170.805 329.002 171.088 329.002 171.409V175.5H327.996Z" fill="#554E44"/>
<g clip-path="url(#clip1_2001_555)">
<path d="M98.6245 152.333C98.565 152.103 98.4448 151.892 98.2763 151.724C98.1078 151.555 97.8973 151.435 97.6665 151.375L93.5765 150.321C93.5068 150.301 93.4454 150.259 93.4016 150.201C93.3579 150.143 93.3342 150.073 93.3342 150C93.3342 149.928 93.3579 149.857 93.4016 149.799C93.4454 149.741 93.5068 149.699 93.5765 149.679L97.6665 148.624C97.8972 148.565 98.1077 148.444 98.2761 148.276C98.4446 148.108 98.5649 147.897 98.6245 147.667L99.6792 143.577C99.6988 143.507 99.7408 143.445 99.7988 143.401C99.8567 143.357 99.9275 143.333 100 143.333C100.073 143.333 100.144 143.357 100.202 143.401C100.26 143.445 100.302 143.507 100.321 143.577L101.375 147.667C101.435 147.897 101.555 148.108 101.723 148.276C101.892 148.445 102.102 148.565 102.333 148.625L106.423 149.679C106.494 149.698 106.556 149.74 106.6 149.798C106.644 149.856 106.668 149.927 106.668 150C106.668 150.073 106.644 150.144 106.6 150.202C106.556 150.26 106.494 150.302 106.423 150.321L102.333 151.375C102.102 151.435 101.892 151.555 101.723 151.724C101.555 151.892 101.435 152.103 101.375 152.333L100.321 156.423C100.301 156.493 100.259 156.555 100.201 156.599C100.143 156.643 100.072 156.667 99.9995 156.667C99.9268 156.667 99.8561 156.643 99.7981 156.599C99.7401 156.555 99.6982 156.493 99.6785 156.423L98.6245 152.333Z" stroke="#FFD48A" stroke-linecap="round" stroke-linejoin="round"/>
<path d="M105.333 144V146.667" stroke="#FFD48A" stroke-linecap="round" stroke-linejoin="round"/>
<path d="M106.667 145.333H104" stroke="#FFD48A" stroke-linecap="round" stroke-linejoin="round"/>
<path d="M94.6667 153.333V154.667" stroke="#FFD48A" stroke-linecap="round" stroke-linejoin="round"/>
<path d="M95.3333 154H94" stroke="#FFD48A" stroke-linecap="round" stroke-linejoin="round"/>
</g>
<g clip-path="url(#clip2_2001_555)">
<path d="M223.625 277.333C223.565 277.103 223.445 276.892 223.276 276.724C223.108 276.555 222.897 276.435 222.667 276.375L218.577 275.321C218.507 275.301 218.445 275.259 218.402 275.201C218.358 275.143 218.334 275.073 218.334 275C218.334 274.928 218.358 274.857 218.402 274.799C218.445 274.741 218.507 274.699 218.577 274.679L222.667 273.624C222.897 273.565 223.108 273.444 223.276 273.276C223.445 273.108 223.565 272.897 223.625 272.667L224.679 268.577C224.699 268.507 224.741 268.445 224.799 268.401C224.857 268.357 224.927 268.333 225 268.333C225.073 268.333 225.144 268.357 225.202 268.401C225.26 268.445 225.302 268.507 225.321 268.577L226.375 272.667C226.435 272.897 226.555 273.108 226.723 273.276C226.892 273.445 227.102 273.565 227.333 273.625L231.423 274.679C231.494 274.698 231.556 274.74 231.6 274.798C231.644 274.856 231.668 274.927 231.668 275C231.668 275.073 231.644 275.144 231.6 275.202C231.556 275.26 231.494 275.302 231.423 275.321L227.333 276.375C227.102 276.435 226.892 276.555 226.723 276.724C226.555 276.892 226.435 277.103 226.375 277.333L225.321 281.423C225.301 281.493 225.259 281.555 225.201 281.599C225.143 281.643 225.072 281.667 225 281.667C224.927 281.667 224.856 281.643 224.798 281.599C224.74 281.555 224.698 281.493 224.679 281.423L223.625 277.333Z" stroke="#FFD48A" stroke-linecap="round" stroke-linejoin="round"/>
</g>
<path d="M222.691 25.9911C222.812 25.7859 222.876 25.552 222.876 25.3137C222.876 25.0755 222.812 24.8415 222.691 24.6363L220.545 20.9985C220.51 20.9351 220.496 20.862 220.506 20.7901C220.516 20.7183 220.549 20.6517 220.6 20.6004C220.652 20.5491 220.718 20.5159 220.79 20.5059C220.862 20.4959 220.935 20.5097 220.998 20.545L224.637 22.6908C224.842 22.8119 225.076 22.8757 225.314 22.8758C225.552 22.8759 225.786 22.8122 225.991 22.6913L229.629 20.545C229.692 20.5093 229.766 20.4954 229.838 20.5053C229.91 20.5152 229.977 20.5484 230.028 20.5998C230.079 20.6512 230.113 20.7181 230.123 20.7902C230.132 20.8622 230.118 20.9356 230.083 20.999L227.936 24.6363C227.815 24.8415 227.751 25.0755 227.751 25.3137C227.751 25.552 227.815 25.7859 227.936 25.9911L230.083 29.6285C230.119 29.6919 230.133 29.7655 230.123 29.8377C230.113 29.91 230.08 29.9771 230.029 30.0287C229.977 30.0803 229.91 30.1136 229.838 30.1233C229.765 30.1331 229.692 30.1189 229.628 30.0829L225.991 27.9361C225.786 27.8151 225.552 27.7512 225.314 27.7512C225.075 27.7512 224.841 27.8151 224.636 27.9361L220.998 30.0824C220.935 30.1181 220.862 30.1321 220.79 30.1222C220.718 30.1123 220.651 30.0791 220.599 30.0276C220.548 29.9762 220.515 29.9094 220.505 29.8373C220.495 29.7652 220.509 29.6919 220.544 29.6285L222.691 25.9911Z" stroke="#FFD48A" stroke-linecap="round" stroke-linejoin="round"/>
<g clip-path="url(#clip3_2001_555)">
<path d="M348.625 152.333C348.565 152.103 348.445 151.892 348.276 151.724C348.108 151.555 347.897 151.435 347.667 151.375L343.577 150.321C343.507 150.301 343.445 150.259 343.402 150.201C343.358 150.143 343.334 150.073 343.334 150C343.334 149.928 343.358 149.857 343.402 149.799C343.445 149.741 343.507 149.699 343.577 149.679L347.667 148.624C347.897 148.565 348.108 148.444 348.276 148.276C348.445 148.108 348.565 147.897 348.625 147.667L349.679 143.577C349.699 143.507 349.741 143.445 349.799 143.401C349.857 143.357 349.927 143.333 350 143.333C350.073 143.333 350.144 143.357 350.202 143.401C350.26 143.445 350.302 143.507 350.321 143.577L351.375 147.667C351.435 147.897 351.555 148.108 351.723 148.276C351.892 148.445 352.102 148.565 352.333 148.625L356.423 149.679C356.494 149.698 356.556 149.74 356.6 149.798C356.644 149.856 356.668 149.927 356.668 150C356.668 150.073 356.644 150.144 356.6 150.202C356.556 150.26 356.494 150.302 356.423 150.321L352.333 151.375C352.102 151.435 351.892 151.555 351.723 151.724C351.555 151.892 351.435 152.103 351.375 152.333L350.321 156.423C350.301 156.493 350.259 156.555 350.201 156.599C350.143 156.643 350.072 156.667 350 156.667C349.927 156.667 349.856 156.643 349.798 156.599C349.74 156.555 349.698 156.493 349.679 156.423L348.625 152.333Z" stroke="#FFD48A" stroke-linecap="round" stroke-linejoin="round"/>
<path d="M355.333 144V146.667" stroke="#FFD48A" stroke-linecap="round" stroke-linejoin="round"/>
<path d="M356.667 145.333H354" stroke="#FFD48A" stroke-linecap="round" stroke-linejoin="round"/>
<path d="M344.667 153.333V154.667" stroke="#FFD48A" stroke-linecap="round" stroke-linejoin="round"/>
<path d="M345.333 154H344" stroke="#FFD48A" stroke-linecap="round" stroke-linejoin="round"/>
</g>
</g>
<defs>
<clipPath id="clip0_2001_555">
<rect width="450" height="300" rx="24" fill="white"/>
</clipPath>
<clipPath id="clip1_2001_555">
<rect width="16" height="16" fill="white" transform="translate(92 142)"/>
</clipPath>
<clipPath id="clip2_2001_555">
<rect width="16" height="16" fill="white" transform="translate(217 267)"/>
</clipPath>
<clipPath id="clip3_2001_555">
<rect width="16" height="16" fill="white" transform="translate(342 142)"/>
</clipPath>
</defs>
</svg>
